<?xml version="1.0" standalone="no"?>
<!DOCTYPE svg PUBLIC "-//W3C//DTD SVG 1.1//EN" "http://www.w3.org/Graphics/SVG/1.1/DTD/svg11.dtd" >
<svg>
<metadata>
Created by FontForge 20090622 at Fri Feb 26 22:40:58 2016
 By deploy user
Copyright 1990, 2001 Adobe Systems Incorporated. All Rights Reserved.
</metadata>
<defs>
<font id="CaslonTwoTwentyFour-BookIt" horiz-adv-x="1139" >
  <font-face 
    font-family="Caslon 224 Book"
    font-weight="400"
    font-style="italic"
    font-stretch="normal"
    units-per-em="2048"
    panose-1="2 3 5 3 6 5 6 9 4 4"
    ascent="1638"
    descent="-410"
    x-height="946"
    cap-height="1393"
    bbox="-442 -442 2220 1870"
    underline-thickness="102"
    underline-position="-154"
    slope="-13"
    unicode-range="U+0020-U+F006"
  />
<missing-glyph horiz-adv-x="1024" 
d="M51 0v1536h922v-1536h-922zM179 128h666v1280h-666v-1280z" />
    <glyph glyph-name=".notdef" horiz-adv-x="1024" 
d="M51 0v1536h922v-1536h-922zM179 128h666v1280h-666v-1280z" />
    <glyph glyph-name=".null" horiz-adv-x="0" 
 />
    <glyph glyph-name="nonmarkingreturn" horiz-adv-x="569" 
 />
    <glyph glyph-name="space" unicode=" " horiz-adv-x="569" 
 />
    <glyph glyph-name="exclam" unicode="!" horiz-adv-x="758" 
d="M614 1311q0 -56 -22.5 -126.5t-67.5 -175.5t-87.5 -215.5t-80.5 -236.5q-38 -136 -43 -150t-20 -14q-21 0 -21 23q0 17 14 81t27.5 175.5t24.5 361.5q9 197 54.5 292t129.5 95q92 0 92 -110zM344 123q0 -64 -36.5 -101.5t-94.5 -37.5q-41 0 -69.5 24.5t-28.5 65.5
q0 64 36.5 101.5t94.5 37.5q42 0 70 -24t28 -66z" />
    <glyph glyph-name="quotedbl" unicode="&#x22;" horiz-adv-x="682" 
d="M578 1305q0 -35 -3 -50l-34 -417q-4 -33 -8.5 -48.5t-24.5 -15.5t-24.5 17t-8.5 47l-35 417q-2 15 -2 50q0 116 70 116t70 -116zM279 1305q0 -35 -3 -50l-34 -417q-4 -33 -8.5 -48.5t-24.5 -15.5t-24.5 17t-8.5 47l-35 417q-2 15 -2 50q0 116 70 116t70 -116z" />
    <glyph glyph-name="numbersign" unicode="#" 
d="M1032 844h-213l-41 -299h197v-111h-213l-62 -434h-127l62 434h-258l-62 -434h-127l62 434h-217v111h233l41 299h-217v110h234l61 435h127l-61 -435h258l61 435h127l-61 -435h196v-110zM692 844h-258l-41 -299h258z" />
    <glyph glyph-name="dollar" unicode="$" 
d="M1194 1466l-60.5 -92t-50.5 -86.5t-16 -73.5l-33 -288t-10.5 -68.5t-17.5 -17.5q-9 0 -12.5 13t-10.5 64.5t-16 98.5t-27 92l-229 -338q81 -33 140.5 -73t99.5 -105t40 -156q0 -81 -38 -155.5t-108 -133t-159.5 -91.5t-191.5 -33q-91 0 -267 63l-149 -225h-51l159 241
q-49 9 -63 9q-43 0 -79 -35.5t-81 -108t-69 -106.5h-54q99 119 153 249.5t72 218t36 195t34 107.5q13 0 15.5 -9.5t3 -41t3.5 -93.5t13 -137l258 359q-108 48 -157.5 116t-49.5 164q0 101 59.5 186t155 133t201.5 48q108 0 217 -43l104 153h50l-115 -168q18 -8 29 -13.5
t24 -10t25 -4.5q24 0 49.5 26.5t67.5 90t55 79.5h51zM922 1145q-8 21 -28.5 49t-41.5 45l-287 -403q30 -14 47 -23t62 -27zM819 1266q-31 24 -83 38.5t-95 14.5q-85 0 -146 -42t-89.5 -102.5t-28.5 -117.5q0 -71 36.5 -114t114.5 -89zM823 379q0 92 -58 148t-161 98
l-328 -469q76 -84 220 -84q101 0 174.5 36.5t113 106t39.5 164.5zM563 641q-15 8 -96 47l-283 -389q19 -65 62 -111z" />
    <glyph glyph-name="percent" unicode="%" horiz-adv-x="1518" 
d="M721 1133q0 -93 -26 -178t-76.5 -153.5t-122.5 -107.5t-156 -39q-70 0 -125 30.5t-86 89t-31 145.5q0 128 46.5 239.5t131.5 178.5t197 67q68 0 123.5 -30t90 -91.5t34.5 -150.5zM1430 1405l-1285 -1421h-96l1286 1421h95zM1348 461q0 -93 -26 -178t-76.5 -153.5
t-121.5 -107t-157 -38.5q-108 0 -175 69t-67 195q0 128 46.5 239.5t132 178.5t196.5 67q68 0 123.5 -30t90 -91.5t34.5 -150.5zM573 1249q0 69 -21 94t-73 25q-66 0 -119.5 -92.5t-83.5 -227t-30 -237.5q0 -69 21.5 -94t72.5 -25q66 0 119.5 93t83.5 227.5t30 236.5z
M1200 578q0 70 -21.5 94t-72.5 24q-66 0 -120 -94t-84 -225.5t-30 -237.5q0 -69 21.5 -94t73.5 -25q66 0 119.5 93t83.5 227.5t30 237.5z" />
    <glyph glyph-name="ampersand" unicode="&#x26;" horiz-adv-x="1554" 
d="M1505 819q0 -17 -51.5 -31t-90 -32t-77.5 -70l-87 -114.5l-90.5 -118.5l-125.5 -170q40 -105 83.5 -161t121.5 -56q54 0 91.5 32.5t69.5 79.5t40 47q16 0 16 -18q0 -23 -41 -83.5t-111.5 -108.5t-156.5 -48q-87 0 -153.5 45.5t-100.5 114.5q-201 -160 -434 -160
q-117 0 -215.5 47t-153.5 132.5t-55 195.5q0 106 47.5 195.5t135.5 152.5t202 90q-45 63 -72 122t-27 134q0 82 48.5 172.5t139 151.5t212.5 61q148 0 221.5 -88t73.5 -198q0 -130 -83.5 -203t-240.5 -133q117 -114 189.5 -216t132.5 -243q75 99 107 144.5t55.5 100.5
t23.5 111t-22.5 71.5t-64.5 23.5t-42 28q0 21 31 21q33 0 97 -4.5t107 -4.5q45 0 110 4.5t103 4.5q37 0 37 -21zM858 1176q0 93 -51.5 144.5t-140.5 51.5q-58 0 -112 -29t-87 -81.5t-33 -118.5q0 -179 172 -312q127 50 189.5 134.5t62.5 210.5zM813 170q-59 138 -129.5 244
t-136 177.5t-148.5 149.5q-100 -22 -155.5 -116t-55.5 -236q0 -147 91.5 -245.5t209.5 -98.5q169 0 324 125z" />
    <glyph glyph-name="quotesingle" unicode="'" horiz-adv-x="455" 
d="M315 1305q0 -35 -2 -50l-34 -417q-4 -30 -8.5 -47t-24.5 -17t-24.5 17t-8.5 47l-35 417q-2 15 -2 50q0 116 70 116q69 0 69 -116z" />
    <glyph glyph-name="parenleft" unicode="(" horiz-adv-x="834" 
d="M932 1481q0 -12 -44.5 -29t-87.5 -37t-100 -69q-111 -97 -206 -281.5t-151 -410t-56 -421.5t42 -317t96 -177t107.5 -84.5t53.5 -39.5q0 -12 -25 -12q-22 0 -93.5 40.5t-152 128.5t-138.5 236.5t-58 351.5q0 289 97.5 508.5t238 357t270 203.5t190.5 66q17 0 17 -14z" />
    <glyph glyph-name="parenright" unicode=")" horiz-adv-x="834" 
d="M618 737q0 -288 -97.5 -507.5t-237 -357t-269.5 -203.5t-192 -66q-17 0 -17 14q0 12 45 29t87.5 37t99.5 69q110 96 205.5 280t152 409.5t56.5 422.5t-42 319.5t-95.5 177t-107.5 83.5t-54 39q0 12 24 12q22 0 94.5 -41.5t151 -125.5t137.5 -233.5t59 -357.5z" />
    <glyph glyph-name="asterisk" unicode="*" horiz-adv-x="985" 
d="M899 1147q0 -39 -26 -62.5t-78 -23.5q-40 0 -99 15.5t-92 17.5q31 14 77 56t71.5 58.5t68.5 16.5q32 0 55 -22t23 -56zM702 1348q0 -27 -22.5 -60.5t-120.5 -161.5q-5 39 -17 112t-12 95q0 41 26.5 64.5t64.5 23.5q36 0 58.5 -20.5t22.5 -52.5zM487 1137q-14 6 -67.5 23
t-82 30.5t-48 36t-19.5 53.5q0 28 25 53t57 25q52 0 74 -41.5t61 -179.5zM825 874q0 -30 -25 -56.5t-63 -26.5q-43 0 -63 24t-41.5 99t-36.5 120q27 -13 98.5 -45t101 -55t29.5 -60zM561 831q0 -46 -22.5 -74t-65.5 -28q-84 0 -84 78q0 37 32 84t105 123q35 -122 35 -183z
M469 1063l-57.5 -51.5t-78 -61t-61.5 -18.5q-43 0 -64.5 23.5t-21.5 56.5q0 37 22.5 60.5t63.5 23.5q23 0 43.5 -3t75.5 -14.5t78 -15.5z" />
    <glyph glyph-name="plus" unicode="+" horiz-adv-x="1229" 
d="M1020 401h-402v-401h-126v401h-402v127h402v402h126v-402h402v-127z" />
    <glyph glyph-name="comma" unicode="," horiz-adv-x="569" 
d="M274 63q0 -73 -36 -144.5t-113 -156.5q-52 -56 -100 -89t-66 -33q-20 0 -20 22q0 9 44.5 43.5t73.5 65.5q99 101 99 172q0 34 -54 49q-44 13 -65 35.5t-21 66.5q0 50 37 84.5t94 34.5t92 -39t35 -111z" />
    <glyph glyph-name="hyphen" unicode="-" horiz-adv-x="682" 
d="M524 543l-28 -156h-488l29 156h487z" />
    <glyph glyph-name="period" unicode="." horiz-adv-x="569" 
d="M250 123q0 -64 -36.5 -101.5t-94.5 -37.5q-41 0 -70 25t-29 65q0 62 37.5 100.5t94.5 38.5q42 0 70 -24t28 -66z" />
    <glyph glyph-name="slash" unicode="/" horiz-adv-x="569" 
d="M778 1421l-915 -1454h-133l915 1454h133z" />
    <glyph glyph-name="zero" unicode="0" 
d="M1049 836q0 -163 -52.5 -317t-143 -275t-200.5 -190.5t-219 -69.5q-107 0 -199.5 71.5t-147 201.5t-54.5 296q0 163 53 318t143 275.5t199 189.5t219 69q109 0 201 -72t146.5 -201t54.5 -296zM856 1036q0 165 -51.5 242.5t-145.5 77.5q-117 0 -202.5 -113.5
t-135.5 -279.5t-73 -333t-23 -278q0 -161 52 -240t145 -79q118 0 203.5 113.5t136 281t72.5 332.5t22 276z" />
    <glyph glyph-name="one" unicode="1" 
d="M842 25q0 -29 -25 -29q-72 0 -116 1t-86.5 1.5t-92.5 1t-116 0.5q-60 0 -179 -2t-178 -2q-45 0 -45 24q0 22 21.5 27.5t105.5 5.5q86 0 131.5 12.5t66 42t33.5 87.5l99.5 435t82.5 365t24 116t7 52q0 23 -15 28t-64 5q-173 0 -213.5 4t-40.5 25q0 16 17.5 21t117 22.5
t164.5 34.5q81 20 129.5 41t84.5 41t48 20q22 0 22 -25q0 -22 -27.5 -152l-94 -436l-100.5 -469.5t-34 -195.5q0 -42 42.5 -58t158.5 -16q45 0 58.5 -6.5t13.5 -21.5z" />
    <glyph glyph-name="two" unicode="2" 
d="M1034 1063q0 -176 -94.5 -275t-311 -201.5t-337 -177.5t-205.5 -221h586q69 0 108.5 20.5t55 43t31.5 51.5t30 29q16 0 16 -19t-51.5 -123l-91.5 -190h-831q36 192 156.5 307t328.5 235.5t306.5 215t98.5 250.5q0 76 -37 136t-97.5 93t-131.5 33q-96 0 -163.5 -34
t-105.5 -74t-74 -89t-48 -49q-18 0 -18 16q0 34 67.5 125.5t182 165.5t251.5 74q101 0 188.5 -44t139 -122t51.5 -176z" />
    <glyph glyph-name="three" unicode="3" 
d="M1008 1114q0 -106 -48.5 -169.5t-132.5 -127.5q71 -58 109.5 -136t38.5 -169q0 -110 -51.5 -204.5t-143 -169t-205.5 -114.5t-231 -40q-106 0 -202 38t-153 102t-57 142q0 61 31.5 98t79.5 37q69 0 94.5 -47t38 -132.5t31.5 -115.5q43 -65 166 -65q103 0 191 44t141 137
t53 233q0 111 -46 173t-124 85q-35 11 -76 15t-41 22q0 16 57 24t93 21q48 17 87 57.5t61 97.5t22 119q0 63 -27 110t-79 73t-126 26q-58 0 -109.5 -20.5t-83.5 -44t-62 -51t-36 -27.5q-18 0 -18 18q0 21 55 83.5t151 115.5t212 53q67 0 126.5 -18.5t108.5 -56.5t77 -92
t28 -124z" />
    <glyph glyph-name="four" unicode="4" 
d="M985 512l-27 -111h-200q-41 -200 -41 -251q0 -57 31 -74t80 -24t49 -25q0 -31 -29 -31q-40 0 -129 2t-135 2q-47 0 -133 -2t-121 -2q-41 0 -41 24q0 21 32.5 26.5t65.5 10.5t65.5 26t49.5 73q16 47 24 83t16 80l15 82h-547l-18 80l870 908h111l-187 -877h199zM719 1153
l-4 4l-615 -645h478z" />
    <glyph glyph-name="five" unicode="5" 
d="M1085 1438q0 -8 -3.5 -17.5t-15 -38.5l-28.5 -72.5l-43 -109.5h-616l-84 -254q54 8 92 8q106 0 204.5 -33t178 -96t127 -153t47.5 -199q0 -89 -43.5 -175.5t-123.5 -158.5t-185 -113.5t-227 -41.5q-101 0 -189.5 31.5t-139 85t-50.5 114.5q0 49 31 82t79 33
q50 0 82 -37.5t70 -132.5q30 -68 60.5 -93.5t115.5 -25.5q96 0 176 48t124 129t44 175q0 126 -76 211.5t-192 125.5t-236 40h-94l209 619h588q34 0 46.5 11t28 32.5t29.5 21.5t14 -16z" />
    <glyph glyph-name="six" unicode="6" 
d="M1014 1389q0 -12 -96 -46t-198 -90t-218 -177.5t-197 -317.5l4 -4q130 102 279 102q122 0 217 -50t147 -137.5t52 -189.5q0 -127 -69.5 -241.5t-190.5 -184t-269 -69.5q-138 0 -238 67t-152 180t-52 250q0 244 127 424.5t303.5 288.5t330 159.5t201.5 51.5q19 0 19 -16z
M799 539q0 90 -33 149t-86.5 85t-122.5 26q-98 0 -181 -50.5t-106 -97.5q-19 -44 -36 -151t-17 -183q0 -86 27.5 -150t86.5 -99t146 -35q108 0 181.5 74t107 189.5t33.5 242.5z" />
    <glyph glyph-name="seven" unicode="7" 
d="M1100 1294q-129 -143 -230 -291t-183 -310.5t-142 -341t-92 -359.5q-74 12 -119 12q-51 0 -125 -12q22 129 78.5 267.5t147.5 283.5t224 310.5t304 346.5h-607q-62 0 -98.5 -22t-62 -52t-33.5 -30q-15 0 -15 10q0 12 19.5 52l62.5 124t54 107h782z" />
    <glyph glyph-name="eight" unicode="8" 
d="M1057 1104q0 -98 -46.5 -170.5t-107.5 -117.5t-125 -81q209 -131 209 -321q0 -77 -36.5 -154t-106.5 -139t-172 -99.5t-230 -37.5q-143 0 -246 46t-155.5 128t-52.5 188q0 91 38.5 160t111.5 124.5t192 117.5q-58 43 -96.5 109.5t-38.5 141.5q0 113 66.5 206t177 146.5
t233.5 53.5q118 0 204 -39t133.5 -107.5t47.5 -154.5zM942 1128q0 70 -30 121.5t-87 79t-133 27.5q-109 0 -201 -69.5t-92 -186.5q0 -65 26 -112.5t67.5 -81t102.5 -68l144 -80.5q51 23 98.5 75.5t76 127.5t28.5 167zM782 336q0 68 -32.5 118.5t-84 86.5t-157.5 95.5
t-143 82.5q-100 -39 -171 -140.5t-71 -232.5q0 -92 35.5 -163t106.5 -110.5t171 -39.5q119 0 198 48.5t113.5 118.5t34.5 136z" />
    <glyph glyph-name="nine" unicode="9" 
d="M1024 907q0 -245 -126.5 -425t-301 -287t-330.5 -159t-200 -52q-14 0 -18.5 4t-4.5 14q0 14 100 51t198.5 90t215.5 176t195 312l-4 4q-131 -103 -279 -103q-122 0 -217 50t-147 137.5t-52 189.5q0 126 69.5 241.5t190.5 185t269 69.5q138 0 237.5 -66.5t152 -180.5
t52.5 -251zM840 1071q0 134 -64 209.5t-196 75.5q-108 0 -181.5 -74t-107 -189.5t-33.5 -242.5q0 -134 68.5 -197t173.5 -63q67 0 129 25t103.5 60t53.5 62q20 44 37 151.5t17 182.5z" />
    <glyph glyph-name="colon" unicode=":" horiz-adv-x="569" 
d="M373 709q0 -64 -38 -102t-93 -38q-43 0 -71 24t-28 66q0 62 37 101t94 39q43 0 71 -24t28 -66zM250 123q0 -64 -36.5 -101.5t-94.5 -37.5q-41 0 -70 25t-29 65q0 62 37.5 100.5t94.5 38.5q42 0 70 -24t28 -66z" />
    <glyph glyph-name="semicolon" unicode=";" horiz-adv-x="569" 
d="M373 709q0 -64 -38 -102t-93 -38q-43 0 -71 24t-28 66q0 62 37 101t94 39q43 0 71 -24t28 -66zM274 63q0 -73 -36 -144.5t-113 -156.5q-52 -56 -100 -89t-66 -33q-20 0 -20 22q0 9 44.5 43.5t73.5 65.5q99 101 99 172q0 34 -54 49q-44 13 -65 35.5t-21 66.5q0 50 37 84.5
t94 34.5t92 -39t35 -111z" />
    <glyph glyph-name="less" unicode="&#x3c;" horiz-adv-x="1229" 
d="M1008 -12l-930 411v131l930 412v-129l-795 -348l795 -346v-131z" />
    <glyph glyph-name="equal" unicode="=" horiz-adv-x="1229" 
d="M1020 584h-930v127h930v-127zM1020 219h-930v127h930v-127z" />
    <glyph glyph-name="greater" unicode="&#x3e;" horiz-adv-x="1229" 
d="M1044 399l-929 -411v131l794 346l-794 348v129l929 -412v-131z" />
    <glyph glyph-name="question" unicode="?" horiz-adv-x="1214" 
d="M1038 1044q0 -85 -33.5 -167t-96 -148.5t-148.5 -105.5t-185 -39q-66 0 -167 22q-14 -41 -28.5 -89.5t-22 -62.5t-19.5 -14q-21 0 -21 15q0 6 8.5 83t8.5 158q0 48 -8 162l71 14q20 -61 81.5 -95t133.5 -34q125 0 206.5 54t120 131t38.5 141q0 80 -36.5 143t-98 99.5
t-129.5 36.5q-69 0 -112.5 -24t-93 -72t-78 -67.5t-75.5 -19.5q-42 0 -66 23.5t-24 56.5q0 71 94.5 123.5t233.5 52.5q129 0 231 -45.5t158.5 -131t56.5 -200.5zM406 123q0 -64 -37.5 -101.5t-94.5 -37.5q-41 0 -69.5 24.5t-28.5 65.5q0 64 36.5 101.5t94.5 37.5
q42 0 70.5 -24t28.5 -66z" />
    <glyph glyph-name="at" unicode="@" horiz-adv-x="1638" 
d="M1528 801q0 -82 -26.5 -171t-76.5 -162.5t-125 -121t-165 -47.5q-63 0 -106 29t-63 65t-20 56h-4q-34 -61 -97.5 -105.5t-144.5 -44.5q-94 0 -149 67.5t-55 186.5q0 108 53 228.5t147.5 202t214.5 81.5q57 0 97 -32.5t53 -76.5h4l20 84h142l-121 -462q-21 -90 -21 -132
q0 -34 20 -57.5t62 -23.5q88 0 153 67t99.5 168t34.5 199q0 118 -44.5 223t-126.5 183.5t-197 122.5t-252 44q-166 0 -305 -90t-219.5 -248.5t-80.5 -353.5q0 -136 44 -253.5t126.5 -204t198 -134t256.5 -47.5q121 0 221.5 27t196.5 73l26 -59q-90 -48 -213.5 -81.5
t-244.5 -33.5q-158 0 -298 54t-248 151t-168 228.5t-60 279.5q0 151 56 286.5t159 237.5t246 159.5t307 57.5q149 0 274.5 -46t220.5 -130t147 -199t52 -245zM1030 858q0 55 -28.5 88t-83.5 33q-64 0 -129.5 -63.5t-107.5 -162t-42 -198.5q0 -170 119 -170q72 0 134.5 79
t100 192t37.5 202z" />
    <glyph glyph-name="A" unicode="A" horiz-adv-x="1290" 
d="M1167 23q0 -27 -26 -27q-32 0 -108 2t-107 2q-36 0 -116 -2t-116 -2q-20 0 -20 24q0 25 54.5 36t83 26t28.5 74q0 32 -9.5 82.5t-26 125.5t-30.5 148h-469q-48 -80 -94.5 -172.5t-46.5 -157.5q0 -59 31 -85t77.5 -45t46.5 -32q0 -24 -22 -24q-42 0 -127 2t-127 2
q-43 0 -126 -2t-116 -2q-26 0 -26 24q0 16 22 23t72.5 24.5t106 63.5t110.5 129l138.5 218l178 290.5l160 271t62.5 121.5q0 14 -15.5 26.5t-15.5 20.5q0 12 31.5 40t62.5 61q39 40 55 80.5t27 40.5q15 0 25 -50l233 -1210q11 -55 38 -77.5t64 -39t37 -30.5zM762 561
l-109 543l-321 -543h430z" />
    <glyph glyph-name="B" unicode="B" horiz-adv-x="1251" 
d="M1186 1118q0 -93 -45 -160t-120 -111t-158.5 -66.5t-170.5 -30.5v-2q204 -8 315 -81.5t111 -232.5q0 -77 -31.5 -152.5t-96.5 -140t-172 -105t-247 -40.5q-57 0 -200 2t-213 2q-46 0 -132 -2t-124 -2q-37 0 -37 20q0 25 58 33.5t91 21.5t45 68l132.5 576l74.5 319t32 147
t9 68q0 49 -25 62.5t-76.5 25.5t-51.5 31q0 25 55 25q37 0 110 -2t109 -2q79 0 128.5 1l98.5 2t127 1q140 0 231.5 -37.5t132 -100.5t40.5 -137zM981 1118q0 111 -60 168t-206 57h-178l-129 -569h143q134 0 231.5 39.5t148 117t50.5 187.5zM901 459q0 85 -25.5 141.5
t-107 90.5t-238.5 34h-133l-60.5 -279.5l-37 -167t-23 -108t-4.5 -37.5q0 -44 41 -66t156 -22q128 0 226 46t152 139.5t54 228.5z" />
    <glyph glyph-name="C" unicode="C" horiz-adv-x="1442" 
d="M1399 1360q0 -5 -4 -23l-15.5 -70.5l-36 -170.5l-49.5 -242q-5 -23 -10 -31t-18 -8q-11 0 -16 16t-8.5 53.5t-10.5 100.5q-24 189 -124 288t-267 99q-125 0 -232 -70t-184.5 -194t-119.5 -284t-42 -330q0 -158 47.5 -266.5t130.5 -160t189 -51.5q355 0 532 392
q18 38 27 63t14 31t17 6q18 0 18 -23q0 -12 -18.5 -97.5l-81.5 -375.5q-14 -63 -39 -63q-16 0 -23 16.5t-10.5 33.5t-14.5 29.5t-36 12.5q-24 0 -83 -22t-121 -37t-159 -15q-137 0 -251 45t-194 127.5t-120.5 191t-40.5 234.5q0 242 117.5 439.5t302 307t369.5 109.5
q91 0 158 -19t101 -37.5l87 -48.5t75 -30q43 0 59 19t30 51.5t30 32.5q25 0 25 -29z" />
    <glyph glyph-name="D" unicode="D" horiz-adv-x="1442" 
d="M1331 819q0 -225 -108.5 -415t-300 -299t-430.5 -109q-63 0 -101 1t-74 1.5l-74 1t-79 0.5q-38 0 -130 -2t-128 -2q-27 0 -27 16q0 20 32.5 30.5t70 21t69.5 35.5t43 77q1 5 85 367t106.5 468.5t29.5 154.5t7 87q0 50 -20.5 58.5t-75 16.5t-54.5 36q0 29 37 29
q45 0 131 -2t119 -2q52 0 131 2t123 2q204 0 342 -67.5t207 -197t69 -309.5zM1114 903q0 235 -110 337.5t-349 102.5h-104l-165.5 -758.5t-76 -343t-8.5 -69.5q0 -127 197 -127q161 0 279 78.5t192.5 207t109.5 276t35 296.5z" />
    <glyph glyph-name="E" unicode="E" horiz-adv-x="1290" 
d="M1196 954q0 -26 -22 -26q-11 0 -17.5 10t-13 34l-15.5 58q-33 124 -100.5 191.5t-180 94.5t-292.5 27l-133 -589q145 0 222.5 35.5t123.5 105.5q17 25 28 56t18 61.5t14 44.5t18 14q16 0 16 -16q0 -22 -8.5 -65.5t-52.5 -250.5l-42.5 -204t-23 -104.5t-16.5 -49
t-19 -10.5q-10 0 -14 7t-4 19q0 1 5 37.5t5 65.5q0 95 -57.5 150t-224.5 55l-57 -270l-34 -154t-22 -104t-6 -46q0 -86 145 -86q285 0 518 223q39 38 69 82.5t57 95.5t40 71t25 20q18 0 18 -19q0 -13 -56 -145l-155 -377q-127 0 -359 2t-329 2q-70 0 -175 -2t-152 -2
q-41 0 -41 20q0 15 26 21.5t60 14t63 27.5t37 60l121 539.5l74 325.5t34.5 160.5t10.5 80.5q0 51 -25 64.5t-70 23t-45 31.5q0 29 31 29q80 0 130.5 -1l100 -2t129.5 -1q128 0 208 1l160 2t208 1q25 -233 36 -321.5t11 -117.5z" />
    <glyph glyph-name="F" unicode="F" horiz-adv-x="1214" 
d="M1182 946q0 -15 -5.5 -20.5t-19.5 -5.5q-9 0 -17 17.5t-28.5 72.5t-38.5 92q-44 90 -95.5 140.5t-148.5 75.5t-272 25l-129 -602q121 0 186 19t105 61q39 41 53.5 78.5t31 94.5t30.5 57q11 0 15.5 -5t4.5 -22q0 -13 -10 -62l-33 -154.5l-66 -307.5q-20 -100 -27 -120
t-24 -20q-18 0 -18 19q0 16 6 55t6 62q0 196 -270 196l-55 -251.5l-35 -158t-19.5 -97.5t-5.5 -62q0 -36 28 -49.5t77 -25t49 -23.5q0 -29 -23 -29q-49 0 -135 2t-111 2q-83 0 -93.5 -0.5t-59.5 -2t-80 -1.5q-49 0 -49 29q0 22 48 26.5t82 21t50 81.5l185.5 777.5t45 199.5
t15.5 108q0 44 -18 64t-45.5 27.5t-47.5 13.5t-20 20q0 29 30 29q34 0 161 -2t192 -2q99 0 286 2t273 2l20.5 -226t13.5 -153t5 -68z" />
    <glyph glyph-name="G" unicode="G" horiz-adv-x="1593" 
d="M1532 612q0 -19 -27.5 -25t-63 -12.5t-66.5 -33.5t-46 -90l-104 -451h-72l-37 100q-90 -52 -202 -92.5t-244 -40.5q-159 0 -302 70.5t-233 213.5t-90 351q0 180 75 334t197 261t267 165.5t280 58.5q77 0 149 -18.5t123.5 -40.5l107.5 -47t73 -25q20 0 31.5 14t22.5 38.5
t18 35.5t20 11q27 0 27 -27q0 -5 -20.5 -98.5t-72.5 -358.5q-15 -77 -21.5 -94.5t-21.5 -17.5q-26 0 -26 30q0 4 4 47t4 74q0 123 -58.5 221t-155.5 152.5t-212 54.5q-137 0 -248 -79t-188 -207.5t-117.5 -278t-40.5 -285.5q0 -112 26.5 -204t79.5 -157t129 -98.5t177 -33.5
q133 0 235 57t157.5 160.5t55.5 236.5q0 52 -30.5 70.5t-78.5 29t-48 23.5q0 29 28 29q43 0 128 -2t126 -2q43 0 128 2t126 2q31 0 31 -23z" />
    <glyph glyph-name="H" unicode="H" horiz-adv-x="1479" 
d="M1532 1368q0 -16 -29 -22t-68.5 -12t-70 -27t-41.5 -72l-104 -481l-115 -512q-21 -108 -21 -119q0 -42 25.5 -56t72 -24.5t46.5 -26.5q0 -20 -33 -20q-41 0 -116 2t-111 2q-48 0 -131 -2t-115 -2q-43 0 -43 22q0 21 57 29t94.5 25.5t51.5 77.5l131 555h-602l-41 -179
l-74 -311q-19 -77 -19 -100q0 -41 28.5 -52.5t77 -17t48.5 -20.5q0 -29 -47 -29q-36 0 -109 2t-110 2q-46 0 -131 -2t-119 -2q-39 0 -39 27q0 18 54 24.5t88 18.5t46 61l151.5 626.5l71 295.5t26 117t12.5 87q0 46 -28.5 61.5t-75 24.5t-46.5 25q0 29 47 29q38 0 110 -2
t109 -2q46 0 134 2t131 2q24 0 24 -25q0 -19 -56.5 -27.5t-96 -27.5t-52.5 -82l-102 -477h602l64.5 305.5t35.5 171.5t6 51q0 31 -17.5 36.5t-72.5 15.5t-55 30q0 29 39 29q37 0 110 -2t109 -2q47 0 133 2t125 2q31 0 31 -25z" />
    <glyph glyph-name="I" unicode="I" horiz-adv-x="721" 
d="M770 1366q0 -21 -57 -28t-95.5 -25.5t-54.5 -85.5q-169 -725 -207.5 -900.5t-38.5 -211.5q0 -42 27 -52.5t77 -15.5t50 -22t-7 -23t-32 -6q-41 0 -116 2t-111 2q-48 0 -130 -2t-108 -2q-32 0 -41.5 6t-9.5 23q0 18 52.5 22.5t88.5 20t49 71.5l126.5 531.5l90 375
t30 136.5t7.5 69q0 50 -26 63.5t-72.5 22t-46.5 27.5q0 29 47 29q38 0 110 -2t109 -2q47 0 134 2t128 2q27 0 27 -27z" />
    <glyph glyph-name="J" unicode="J" horiz-adv-x="985" 
d="M1026 1364q0 -22 -54 -31t-88 -24.5t-46 -73.5l-201 -928q-39 -183 -165 -261.5t-269 -78.5q-109 0 -203 60.5t-94 165.5q0 74 38.5 116.5t96.5 42.5q51 0 76.5 -27.5t25.5 -66.5q0 -30 -7 -49.5t-17.5 -39.5t-20.5 -41.5t-10 -35.5q0 -30 31.5 -53t87.5 -23q71 0 116 31
t71.5 97t54.5 190q188 879 188 915t-21 54.5t-48.5 26l-54 14.5t-26.5 20q0 29 48 29q37 0 110 -2t109 -2q51 0 130 2t101 2q41 0 41 -29z" />
    <glyph glyph-name="K" unicode="K" horiz-adv-x="1327" 
d="M1380 1364q0 -10 -30.5 -17.5t-65 -18.5t-88 -42t-117.5 -90l-295 -274l242 -721q27 -84 66.5 -112.5t85 -41t45.5 -31.5q0 -20 -35 -20q-17 0 -67 2t-77 2h-157l-250 788l-248 -239l-50.5 -242.5t-22 -109t-7.5 -72.5q0 -44 28.5 -58.5t73 -22t44.5 -21.5t-8.5 -20.5
t-30.5 -6.5q-16 0 -90 2t-119 2q-87 0 -172 -2t-101 -2q-26 0 -26 22q0 23 57 33.5t91.5 26t47.5 74.5q232 1019 232 1081q0 58 -30 75.5t-79 26.5t-49 29q0 29 51 29q38 0 111 -2t109 -2q46 0 134 2t132 2q22 0 22 -27q0 -15 -29 -21l-67 -13.5t-68.5 -33t-42.5 -77.5
l-120 -580l4 -4l279.5 273t182.5 182.5t88.5 105t24.5 66.5q0 40 -14.5 51t-45 21t-30.5 28q0 16 10 22.5t41 6.5q24 0 97 -2t104 -2q40 0 107 2t94 2q28 0 28 -29z" />
    <glyph glyph-name="L" unicode="L" horiz-adv-x="1214" 
d="M1133 518q0 -13 -9.5 -38.5t-37.5 -90.5l-58 -135l-110 -258q-58 0 -104.5 0.5t-106.5 1.5t-144.5 1.5t-214.5 0.5q-105 0 -168 -0.5t-107 -1.5t-84 -1.5t-104 -0.5q-35 0 -35 24q0 26 69 36t113.5 28.5t59.5 85.5l131 582.5l49 215.5l38.5 172.5t17.5 92.5
q0 60 -27.5 76t-76 24t-48.5 31q0 29 43 29q34 0 103 -2t102 -2q44 0 132 2t132 2q41 0 41 -29q0 -16 -24.5 -20l-65.5 -11t-71.5 -35t-45.5 -90q-225 -1007 -225 -1065q0 -42 30 -70t93 -28q90 0 210.5 46t192.5 104q70 56 120 116t81 109.5l54 86t32 36.5q23 0 23 -25z
" />
    <glyph glyph-name="M" unicode="M" horiz-adv-x="1706" 
d="M1735 1364q0 -19 -27.5 -24.5t-64.5 -11.5t-68 -32.5t-45 -87.5l-116.5 -558l-54.5 -264t-33.5 -173.5t-8.5 -75.5q0 -56 30 -71.5t80 -21.5t50 -26q0 -22 -33 -22q-49 0 -127 2t-113 2q-60 0 -97 -1l-74 -2t-97 -1q-29 0 -29 20q0 19 55 27t94 26t54 85l227 1067l-4 4
l-447 -765.5l-199.5 -346.5t-57 -93.5t-31.5 -23.5t-23 23t-27.5 146.5l-67.5 425.5l-103 626h-4l-71 -359.5l-66 -318.5t-40.5 -206t-13.5 -126q0 -83 33 -115t79 -46t46 -28q0 -22 -27 -22q-35 0 -97 2t-91 2q-43 0 -136 -2t-141 -2q-22 0 -22 22q0 13 50.5 28.5
t91.5 35.5t87 77.5t68 162.5l101 455.5l82.5 360.5t29.5 136q0 28 -24 39t-72 17t-63 10.5t-15 23.5q0 29 45 29q-2 0 98 -2t238 -2l182 -1086l645 1086q104 0 209 2t129 2q27 0 27 -29z" />
    <glyph glyph-name="N" unicode="N" horiz-adv-x="1442" 
d="M1548 1372q0 -12 -48 -29.5t-93.5 -41.5t-91 -79.5t-68.5 -150.5l-124 -543.5t-80.5 -372.5t-36.5 -161t-23 -27q-17 0 -33.5 25t-62 117.5l-198.5 398l-300 586.5h-4l-91 -419.5l-61.5 -283.5t-26 -128.5t-5.5 -53.5q0 -81 39.5 -113t96 -46t56.5 -27q0 -15 -9 -21
t-38 -6q-44 0 -111 2t-94 2q-44 0 -135 -2t-137 -2q-27 0 -27 18q0 19 29.5 27t88.5 26t102 62.5t65 134.5l215 901l-33 62q-34 63 -66.5 82t-72 29t-39.5 26q0 29 23 29q14 0 121 -2t194 -2l551 -1072h4l117.5 537l39 179t18 94t5.5 57q0 68 -37.5 98.5t-93 49.5t-55.5 34
q0 27 39 27q40 0 116 -2t125 -2q25 0 104 2t120 2q13 0 19.5 -6t6.5 -15z" />
    <glyph glyph-name="O" unicode="O" horiz-adv-x="1593" 
d="M1483 815q0 -196 -72.5 -354.5t-194 -269t-265 -167.5t-283.5 -57q-175 0 -317.5 82t-224 220.5t-81.5 303.5q0 197 73 356t193.5 268t265 166.5t283.5 57.5q132 0 246 -46.5t200 -131.5t131.5 -193.5t45.5 -234.5zM1266 913q0 239 -112 349t-298 110q-143 0 -254.5 -79
t-187.5 -212.5t-114 -290.5t-38 -315q0 -239 112.5 -349t297.5 -110q143 0 256 80.5t188 212.5t112.5 289.5t37.5 314.5z" />
    <glyph glyph-name="P" unicode="P" horiz-adv-x="1214" 
d="M1192 1063q0 -122 -81.5 -225t-227.5 -161.5t-330 -58.5h-160l-53.5 -253.5l-22 -107.5t-15 -78t-3.5 -36q0 -39 23.5 -59t54 -25.5t59.5 -11.5t29 -22q0 -17 -11 -23t-44 -6q-15 0 -84 2t-136 2q-97 0 -175 -2t-81 -2q-24 0 -32 6t-8 23t27 21t67 11t69.5 31.5
t40.5 77.5l143 656.5l56 258.5t22 110t9 62q0 51 -26 64.5t-72 21.5t-46 25q0 29 33 29q58 0 95.5 -1l74 -2t96.5 -1q44 0 132 2t133 2q217 0 330.5 -89t113.5 -241zM975 1116q0 103 -52.5 165t-166.5 62h-205l-148 -675h154q134 0 228 55.5t142 157t48 235.5z" />
    <glyph glyph-name="Q" unicode="Q" horiz-adv-x="1593" 
d="M1483 815q0 -192 -71.5 -352t-191 -269t-263.5 -167t-281 -60v-4l191.5 -72t145.5 -44.5t146 -22.5q73 0 120.5 22.5t68.5 46t46.5 58.5t37.5 35q16 0 16 -23q0 -31 -53.5 -95.5t-166.5 -117.5t-278 -53q-86 0 -167 27.5t-189 81.5t-177.5 81t-142.5 27q-87 0 -138 -34
t-84.5 -79t-41.5 -45q-22 0 -22 23q0 32 54.5 90t153.5 103t224 44l4 4q-100 32 -186.5 111t-139.5 193.5t-53 248.5q0 197 73 356t193.5 268t265 166.5t283.5 57.5q132 0 246 -46.5t200 -131.5t131.5 -193.5t45.5 -234.5zM1266 913q0 239 -112 349t-298 110
q-143 0 -254.5 -79t-187.5 -212.5t-114 -290.5t-38 -315q0 -239 112.5 -349t297.5 -110q143 0 256 80.5t188 212.5t112.5 289.5t37.5 314.5z" />
    <glyph glyph-name="R" unicode="R" horiz-adv-x="1290" 
d="M1217 16q0 -20 -54 -20q-38 0 -115 1.5t-80.5 2t-95.5 0.5l-159 539q-22 69 -52.5 98t-80 37.5t-168.5 13.5l-71.5 -340.5l-38.5 -180t-5 -44.5q0 -42 27 -53.5t77 -20.5t50 -26q0 -27 -35 -27q-44 0 -120 2t-112 2q-60 0 -97 -1l-74 -2t-97 -1q-20 0 -20 20
q0 22 56 32.5t92 30t50 85.5l123.5 566.5l51.5 235t45.5 214t7.5 57.5q0 53 -25.5 68.5t-70 27t-44.5 31.5q0 29 41 29q46 0 139 -2t138 -2t137 2t141 2q182 0 294 -68t112 -221q0 -83 -41 -153t-115.5 -123.5t-171 -84t-207.5 -34.5v-4q96 -12 147 -34.5t82 -72
t72.5 -175.5l83.5 -261q23 -70 55.5 -88t80 -25.5t47.5 -32.5zM967 1126q0 114 -65 165.5t-214 51.5h-137l-129 -606q173 0 262.5 13.5t138.5 50.5q66 50 105 143.5t39 181.5z" />
    <glyph glyph-name="S" unicode="S" horiz-adv-x="1214" 
d="M1141 1364q0 -7 -37 -256q-9 -60 -20.5 -146t-16 -99t-18.5 -13q-16 0 -19.5 12t-5.5 45q-10 131 -48 236t-115 167t-195 62q-125 0 -201 -78t-76 -188q0 -107 72 -162.5t236.5 -135.5t247.5 -160.5t83 -221.5q0 -130 -74.5 -235.5t-199.5 -164.5t-267 -59
q-97 0 -153.5 17t-131.5 49.5t-116 32.5q-35 0 -50.5 -14t-28.5 -37t-25 -23q-23 0 -23 16q0 7 3 20.5t9 36t17 67.5t35 155q25 111 37.5 182l20 111t12.5 49.5t18 9.5q12 0 17 -7t6 -29t1 -83q0 -504 348 -504q107 0 189 40t127 118.5t45 192.5q0 101 -76.5 159
t-236.5 135.5t-243 154t-83 206.5q0 79 34.5 150.5t98.5 129t151 88.5t187 31q82 0 144 -19t127 -48t85 -29q19 0 30.5 8.5t19.5 21t17.5 23.5t18.5 11q23 0 23 -25z" />
    <glyph glyph-name="T" unicode="T" horiz-adv-x="1290" 
d="M1266 948q0 -26 -23 -26q-17 0 -21.5 23.5t-13 63.5t-39.5 101q-33 68 -84 119.5t-112.5 82t-128.5 36.5l-105 -510l-94 -450t-37 -187.5t-6 -65.5q0 -50 36.5 -64.5t95.5 -20.5t59 -21q0 -20 -8.5 -26.5t-39.5 -6.5q-64 0 -148 2t-116 2q-43 0 -135 -2t-145 -2
q-25 0 -33 6t-8 21q0 22 64.5 27.5t107 21.5t57.5 78q17 61 46.5 196.5l74 348l88.5 422t49 231.5q-150 -18 -255.5 -81.5t-157 -128.5t-98 -142.5t-62.5 -77.5q-21 0 -21 22q0 10 22 56.5l161 338.5q7 15 19 44.5t16.5 35.5t11.5 6q6 0 19 -12t32 -12h827q27 0 47 12
q26 12 31 12q12 0 12 -37q0 -26 3 -102.5l5.5 -142l4.5 -119.5t2 -72z" />
    <glyph glyph-name="U" unicode="U" horiz-adv-x="1442" 
d="M1532 1364q0 -15 -17 -18.5t-52 -9.5t-71.5 -30.5t-72.5 -80.5q-31 -48 -49.5 -92t-39.5 -128.5t-48.5 -221.5l-83.5 -398q-46 -211 -200 -314.5t-363 -103.5q-86 0 -187.5 34.5t-171.5 105t-70 174.5q0 43 22 146t76 336.5l76.5 335.5t22.5 138q0 58 -25.5 74t-70.5 24
t-45 29q0 16 9.5 22.5t37.5 6.5q37 0 112 -2t111 -2q41 0 123 2t121 2q24 0 24 -29q0 -15 -24 -18t-62 -9t-68 -32.5t-42 -81.5l-129 -602.5t-64 -337.5q0 -121 81 -187.5t210 -66.5q123 0 218 48.5t153 131t80 186.5l71 345.5l37 186t24.5 143.5t6.5 83q0 72 -22.5 111.5
t-43.5 49.5t-58.5 23.5t-37.5 26.5q0 29 29 29q47 0 138 -2t136 -2q29 0 88 2t86 2q25 0 25 -29z" />
    <glyph glyph-name="V" unicode="V" horiz-adv-x="1251" 
d="M1415 1366q0 -16 -18.5 -23t-66.5 -28.5t-103.5 -76.5t-118.5 -161l-364 -614l-190.5 -322t-94 -152t-29.5 -22t-21 25t-32.5 156.5l-98.5 537.5l-106 576q-6 37 -24.5 47t-61.5 23t-43 32q0 29 51 29q38 0 114 -2t114 -2q39 0 110 2t98 2q43 0 43 -27q0 -18 -54.5 -27.5
t-86 -25.5t-31.5 -70q0 -14 5 -52t27 -173l51 -324.5l65 -437.5h4l259 444l183.5 314.5t57 116.5t16.5 88q0 46 -19 69.5t-47.5 33.5t-51.5 19t-23 25q0 15 11 21t46 6q33 0 100 -2t99 -2q33 0 97 2t97 2q23 0 30 -6t7 -21z" />
    <glyph glyph-name="W" unicode="W" horiz-adv-x="1782" 
d="M1946 1364q0 -16 -40.5 -30t-66.5 -24.5t-70 -50.5t-86 -116l-634 -1141q-21 -35 -35 -35t-20.5 8t-10.5 37l-104 842h-5l-460 -852q-21 -35 -35 -35t-20.5 8t-10.5 37l-162 1223q-6 50 -28.5 67t-57 29.5t-34.5 32.5q0 29 53 29q31 0 95 -2t95 -2q37 0 111 2t110 2
q33 0 33 -29q0 -21 -52.5 -34.5t-80 -29t-27.5 -69.5q0 -14 5.5 -62.5t17 -137l28.5 -223.5l62 -509h4l346 653l-45 310q-6 38 -25.5 48.5t-59.5 22t-40 31.5q0 16 7 22.5t32 6.5q37 0 111 -2t110 -2q39 0 109 2t102 2q31 0 31 -29q0 -13 -20 -19l-59 -17t-61 -31t-22 -60
q0 -13 3.5 -48t18 -155.5l30 -246.5l59.5 -498h4l325.5 602.5t106.5 216.5t25 100q0 66 -25 86t-65.5 33t-40.5 37q0 29 34 29q37 0 111 -2t111 -2q31 0 95 2t95 2q23 0 23 -29z" />
    <glyph glyph-name="X" unicode="X" horiz-adv-x="1290" 
d="M1352 1368q0 -16 -16.5 -21.5l-56.5 -18.5t-94.5 -51.5t-123.5 -113.5l-348 -383l254 -614q26 -63 63.5 -84.5t82 -31t44.5 -27.5q0 -27 -29 -27q-36 0 -106 2t-107 2q-47 0 -148 -2t-155 -2q-26 0 -26 22q0 23 55 37t83 28.5t28 68.5q0 17 -6 39t-28.5 81.5l-56.5 144.5
l-98 236l-177.5 -205t-110.5 -135.5t-51 -84.5t-13 -74q0 -54 26 -73t70.5 -30.5t44.5 -30.5q0 -24 -30 -24q-43 0 -130 2t-131 2q-49 0 -148 -2t-149 -2q-22 0 -22 22q0 18 35.5 28l84 24.5t108.5 50t124 104.5l447 486l-242 540q-23 51 -54 64.5t-73.5 21t-42.5 25.5
q0 31 53 31q39 0 114 -2t112 -2t112 2t111 2q28 0 28 -23q0 -21 -48.5 -27.5t-72.5 -18t-24 -56.5q0 -14 11.5 -44.5t55.5 -129.5l109 -252l193 213.5t62.5 87t21.5 90.5q0 53 -23 72t-60.5 31.5t-37.5 29.5q0 27 28 27q45 0 137 -2t138 -2q28 0 86 2t86 2q31 0 31 -25z" />
    <glyph glyph-name="Y" unicode="Y" horiz-adv-x="1214" 
d="M1370 1364q0 -14 -16 -20l-54.5 -20.5t-91 -51t-123.5 -111.5l-108 -118.5l-120 -136l-95 -110.5l-125 -143l-84 -372q-25 -116 -25 -129q0 -63 31 -80t79 -23t48 -24q0 -17 -7 -23t-30 -6q-44 0 -119 2t-110 2q-42 0 -135 -2t-146 -2q-24 0 -24 24q0 19 33 26l72 15
t71.5 35t44.5 86l104 469l-217 604q-11 33 -34.5 49.5t-50 23t-45.5 13.5t-19 23t10 22.5t41 6.5q41 0 123 -2t123 -2q35 0 107 2t108 2q35 0 35 -29q0 -15 -51.5 -22t-85 -24t-33.5 -69q0 -23 13 -69.5t60.5 -182l96.5 -276.5q143 154 230 260.5t117.5 164t30.5 101.5
q0 51 -19.5 65.5t-54 24t-34.5 27.5q0 29 37 29q42 0 122 -2t121 -2q29 0 84 2t82 2q33 0 33 -29z" />
    <glyph glyph-name="Z" unicode="Z" horiz-adv-x="1290" 
d="M1292 1376q0 -4 -5 -11t-13.5 -15.5t-24.5 -26.5l-1085 -1278h168q324 0 540 225q55 56 84 103t60 106.5t43 59.5q22 0 22 -25q0 -18 -69 -178l-140 -340q-75 0 -222 2t-285 2q-141 0 -150 -0.5t-119.5 -2t-163.5 -1.5q-38 0 -38 8q0 4 11.5 15.5t22.5 25.5l1096 1298
h-109q-199 0 -332.5 -55.5t-205 -125.5t-123.5 -145t-68 -75q-20 0 -20 21q0 8 11.5 35t64 139l118.5 256q108 0 175.5 -0.5t117 -1.5t97.5 -1.5t129 -0.5q161 0 279 2t114 2q20 0 20 -17z" />
    <glyph glyph-name="bracketleft" unicode="[" horiz-adv-x="834" 
d="M793 1446q0 -20 -63 -25t-104.5 -19t-54.5 -73l-212 -935t-112 -503.5t-20 -115.5q0 -53 37.5 -69t95.5 -22t58 -22q0 -22 -29 -22h-338q-41 0 -41 18q0 16 26.5 133.5l119.5 517l160 684l94 402.5q12 50 20 60.5t37 10.5h299q27 0 27 -20z" />
    <glyph glyph-name="backslash" unicode="\" horiz-adv-x="569" 
d="M578 -33h-125l-539 1454h125z" />
    <glyph glyph-name="bracketright" unicode="]" horiz-adv-x="834" 
d="M711 1448q0 -20 -48 -230.5l-124.5 -537.5l-136.5 -582l-91 -387q-12 -51 -20.5 -61t-36.5 -10h-299q-27 0 -27 20t63 25t104.5 19t54.5 73l212 935t112 503.5t20 115.5q0 53 -37.5 69t-95.5 22t-58 22q0 22 29 22h338q41 0 41 -18z" />
    <glyph glyph-name="asciicircum" unicode="^" horiz-adv-x="1229" 
d="M999 719h-135l-250 506l-249 -506h-136l332 670h107z" />
    <glyph glyph-name="underscore" unicode="_" horiz-adv-x="1024" 
d="M1024 -256h-1024v102h1024v-102z" />
    <glyph glyph-name="grave" unicode="`" horiz-adv-x="645" 
d="M506 1040h-64l-276 213q-31 26 -40 39t-9 33q0 33 22.5 52.5t53.5 19.5q41 0 92 -66z" />
    <glyph glyph-name="a" unicode="a" horiz-adv-x="1176" 
d="M1085 336q0 -17 -14.5 -73t-46 -121t-85 -111.5t-126.5 -46.5q-172 0 -172 174q0 59 4 104l-4 4q-56 -103 -152.5 -192.5t-240.5 -89.5q-88 0 -147 37t-88 104t-29 160q0 141 52 264.5t134.5 211.5t176.5 136.5t175 48.5q189 0 242 -207l137 127.5t56.5 49.5t31.5 14
q25 0 25 -27q0 -10 -26 -70.5t-43 -104.5t-30 -101q-45 -217 -61.5 -291t-22.5 -109t-6 -63t18.5 -45t45.5 -17q44 0 75.5 38.5t59.5 123.5q27 74 31.5 83t13.5 9q16 0 16 -20zM727 659q0 119 -55 178.5t-144 59.5q-73 0 -139 -60.5t-115.5 -158.5t-77.5 -210.5t-28 -209.5
q0 -111 37 -154t108 -43q87 0 164 66t133 166t86.5 200.5t30.5 165.5z" />
    <glyph glyph-name="b" unicode="b" 
d="M987 553q0 -99 -42.5 -200.5t-120.5 -185.5t-180.5 -133.5t-219.5 -49.5q-101 0 -182 44t-124.5 125.5t-43.5 186.5q0 48 24.5 161.5t71 304.5l79 326t32.5 158q0 46 -25 62t-65.5 28t-40.5 25q0 14 18.5 20.5t69.5 14.5t122.5 20.5t161.5 34.5l-192 -784l4 -4
q133 239 334 239q64 0 122 -26t102.5 -76t69.5 -124t25 -167zM803 672q0 100 -49 154.5t-136 54.5q-95 0 -169 -78.5t-121.5 -190.5t-73 -222.5t-25.5 -166.5q0 -93 45 -141.5t144 -48.5q93 0 165.5 63.5t122 163.5t73.5 210t24 202z" />
    <glyph glyph-name="c" unicode="c" horiz-adv-x="1024" 
d="M913 674q0 -61 -31 -105.5t-87 -44.5q-44 0 -66 23.5t-22 60.5q0 26 11 78.5t11 73.5q0 60 -43.5 104.5t-128.5 44.5q-105 0 -191 -73t-136 -188t-50 -232q0 -141 86.5 -227.5t229.5 -86.5q77 0 135.5 24.5t90 51t65 62.5t42.5 36q15 0 15 -14q0 -18 -30.5 -62.5
t-88.5 -95.5t-140.5 -85.5t-183.5 -34.5q-184 0 -294.5 111.5t-110.5 305.5q0 103 43.5 203t121 176.5t182 121t224.5 44.5q154 0 250 -76t96 -196z" />
    <glyph glyph-name="d" unicode="d" horiz-adv-x="1214" 
d="M1124 1495l-164 -718.5l-87 -384.5t-39.5 -183t-6.5 -57q0 -66 64 -66q90 0 145 158q13 36 19.5 55.5t10 26t11.5 6.5q17 0 17 -19q0 -26 -29 -108t-91 -151.5t-157 -69.5q-77 0 -117.5 46.5t-40.5 121.5q0 58 21 147l-4 4q-174 -319 -410 -319q-128 0 -199 86.5
t-71 240.5q0 114 47.5 228.5t127.5 207t176 146t190 53.5q104 0 156 -53.5t79 -140.5h4l65.5 300t21 99.5t15.5 88t5 50.5q0 46 -25 62t-65.5 28t-40.5 25q0 14 18.5 20.5t69.5 14.5t122.5 20.5t161.5 34.5zM739 653q0 97 -46.5 170.5t-151.5 73.5q-72 0 -139 -62.5
t-116.5 -162t-77.5 -209t-28 -197.5q0 -103 44 -154t120 -51q79 0 153 64.5t127.5 160t84 195.5t30.5 172z" />
    <glyph glyph-name="e" unicode="e" horiz-adv-x="948" 
d="M836 754q0 -160 -275 -252q-133 -45 -381 -90v-9q0 -82 36 -151t107 -109.5t173 -40.5q105 0 200 70l68.5 54t42.5 30q14 0 14 -16q0 -13 -33.5 -55t-91.5 -88.5t-139.5 -79.5t-177.5 -33q-114 0 -202 54t-134.5 144.5t-46.5 196.5q0 174 95 303t230.5 196.5t247.5 67.5
q120 0 193.5 -50t73.5 -142zM680 782q0 127 -117 127q-56 0 -119.5 -27t-120 -81.5t-95.5 -142t-48 -205.5q172 32 280.5 65t157.5 92q34 39 48 83.5t14 88.5z" />
    <glyph glyph-name="f" unicode="f" horiz-adv-x="606" 
d="M821 1401q0 -39 -17.5 -75.5t-47.5 -58.5t-64 -22t-55 19t-21 47q0 13 5 33t11.5 37t9.5 26t3 18q0 54 -43 54q-37 0 -82 -51.5t-63 -114.5q-14 -44 -20.5 -98.5t-15.5 -138t-22 -146.5h219l-16 -103h-221q-51 -264 -113 -477.5t-146 -383.5t-191 -266.5t-234 -96.5
q-37 0 -69 15.5t-51 44.5t-19 73q0 54 31.5 89.5t76.5 35.5q62 0 76.5 -25t31 -82t48.5 -57q41 0 82 35.5t73 98t48 138.5q8 36 28 156.5l42.5 255t45 249.5t45.5 197h-135q80 47 134 128.5t152 256.5t170 251.5t167 76.5q69 0 108 -39t39 -100z" />
    <glyph glyph-name="g" unicode="g" horiz-adv-x="1063" 
d="M897 670q0 -86 -47.5 -160t-139.5 -120.5t-223 -55.5q-136 -9 -211 -20t-106 -30t-31 -61q0 -43 47.5 -64.5t106.5 -27t184 -11t187 -14.5q88 -12 136 -61.5t48 -124.5q0 -82 -59.5 -155t-187 -117.5t-316.5 -44.5q-193 0 -312.5 59t-119.5 158q0 84 53 123t133 67
q-64 41 -64 121q0 95 94 155.5t244 65.5v4q-66 23 -111.5 54.5t-72.5 82t-27 121.5q0 153 125 242.5t326 89.5q11 54 48.5 111t90.5 94t111 37q37 0 57.5 -19.5t20.5 -56.5q0 -35 -27 -57.5t-76 -22.5q-20 0 -49.5 8.5t-52.5 8.5q-40 0 -57 -26.5t-29 -76.5
q92 -11 161 -46.5t107.5 -94t38.5 -135.5zM713 758q0 76 -44.5 113.5t-125.5 37.5q-95 0 -153 -65t-80.5 -154t-22.5 -170q0 -151 170 -151q95 0 153 65t80.5 154t22.5 170zM684 -154q0 42 -26 63.5t-70 30t-121.5 12.5l-136.5 7q-211 14 -252 31q-54 -18 -88.5 -58.5
t-34.5 -99.5q0 -85 82 -138.5t248 -53.5q196 0 297.5 53t101.5 153z" />
    <glyph glyph-name="h" unicode="h" horiz-adv-x="1176" 
d="M1075 313q0 -26 -29 -108t-93 -151.5t-162 -69.5q-79 0 -122.5 46.5t-43.5 121.5q0 53 14.5 121.5t50.5 206l49 190.5t13 86q0 58 -32.5 85t-78.5 27q-76 0 -149.5 -72t-130.5 -183t-87 -222l-106 -399q-43 12 -90 12t-86 -12l140.5 613l96.5 425.5t42 196.5t8 63
q0 36 -18.5 55.5t-47.5 28t-47.5 15t-18.5 16.5q0 14 18.5 20.5t63 13t123 20.5t168.5 36l-225 -922l4 -4q48 101 96.5 172.5t99 117t106.5 66.5t116 21q53 0 92.5 -14t69 -43.5t43.5 -70t14 -93.5q0 -32 -16 -103.5t-43.5 -179.5l-47.5 -187t-20 -101v-2q3 -66 63 -66
q89 0 146 158q7 18 16 46.5t13 35t12 6.5q16 0 16 -19z" />
    <glyph glyph-name="i" unicode="i" horiz-adv-x="645" 
d="M543 1239q0 -50 -34.5 -81.5t-84.5 -31.5q-43 0 -72.5 29.5t-29.5 71.5q0 51 34 81.5t84 30.5q20 0 40 -8t33.5 -20.5t21.5 -32t8 -39.5zM543 313q0 -27 -30.5 -109t-93.5 -151t-161 -69q-78 0 -122 49t-44 125q0 34 17.5 104.5t58 215l57.5 208.5t17 92q0 66 -64 66
q-88 0 -147 -158q-14 -37 -21.5 -54.5t-17.5 -17.5q-17 0 -17 19q0 23 31 101.5t95 145t159 66.5q83 0 124.5 -44.5t41.5 -117.5q0 -48 -22.5 -136l-75 -279.5t-52.5 -216.5q0 -66 64 -66q90 0 145 158q13 36 19.5 55.5t10 26t11.5 6.5q17 0 17 -19z" />
    <glyph glyph-name="j" unicode="j" horiz-adv-x="606" 
d="M543 1239q0 -50 -34.5 -81.5t-84.5 -31.5q-43 0 -72.5 29.5t-29.5 71.5q0 51 34 81.5t84 30.5q20 0 40 -8t33.5 -20.5t21.5 -32t8 -39.5zM451 784q0 -25 -9.5 -81t-30.5 -148l-58.5 -248.5l-116.5 -486.5q-23 -99 -124.5 -158t-220.5 -59q-106 0 -158 37.5t-52 97.5
q0 41 28.5 69.5t73.5 28.5q97 0 108 -121q5 -38 16.5 -50.5t43.5 -12.5q66 0 107.5 32t41.5 87q0 28 -11 66.5t-11 58.5q0 17 29 148.5l60 265l65 291t34 177.5q0 66 -63 66q-87 0 -148 -158q-19 -50 -24 -61t-15 -11q-16 0 -16 19q0 23 31 101.5t95 145t159 66.5
q83 0 124.5 -44.5t41.5 -117.5z" />
    <glyph glyph-name="k" unicode="k" horiz-adv-x="1176" 
d="M1061 293q0 -26 -34.5 -104t-96.5 -141.5t-144 -63.5q-64 0 -110 52.5t-92 149.5l-57.5 122t-41.5 73.5t-45.5 31.5t-79.5 9h-59q-28 -82 -48.5 -150l-40.5 -140l-40 -140q-43 12 -84 12q-44 0 -88 -12l146.5 659.5l81.5 359t43 197t12 82.5q0 46 -25 62t-65.5 28
t-40.5 25q0 14 18.5 20.5t69.5 14.5t122.5 20.5t161.5 34.5l-217 -950l4 -4q72 121 134 204t148 142t189 59q71 0 119.5 -25.5t73 -65.5t24.5 -85q0 -63 -45 -123.5t-141.5 -109.5t-241.5 -76v-4h7q59 0 93 -42t83 -141q36 -72 50.5 -96.5t30.5 -37.5t39 -13q39 0 66 26
t53 80q4 8 15 35t17 36t15 9q21 0 21 -20zM795 731q0 52 -31.5 82.5t-85.5 30.5q-65 0 -137.5 -66t-132.5 -155t-89 -152h76q115 0 206 36.5t142.5 96.5t51.5 127z" />
    <glyph glyph-name="l" unicode="l" horiz-adv-x="606" 
d="M526 1495l-169.5 -724l-94 -397.5t-34.5 -152.5t-11 -69q0 -66 64 -66q88 0 145 158q13 36 19.5 55.5t10 26t11.5 6.5q16 0 16 -19q0 -27 -29.5 -108.5t-96 -151t-167.5 -69.5q-77 0 -117 46t-40 122q0 49 63 309l126 519.5t63 309.5q0 46 -25 62t-65.5 28t-40.5 25
q0 14 18.5 20.5t69.5 14.5t122.5 20.5t161.5 34.5z" />
    <glyph glyph-name="m" unicode="m" horiz-adv-x="1821" 
d="M1718 313q0 -26 -28.5 -108t-94.5 -151.5t-170 -69.5q-77 0 -117 44.5t-40 116.5q0 46 14.5 109.5t51.5 205.5t52 206t15 102q0 100 -103 100q-82 0 -158 -82t-131 -197t-81 -218l-94 -379q-46 12 -95 12q-40 0 -84 -12l75.5 319l51 214t36.5 161.5t7 67.5q0 59 -28 86.5
t-80 27.5q-66 0 -127 -49.5t-112.5 -137.5t-90.5 -198t-70 -239l-59 -252q-46 12 -94 12q-40 0 -84 -12q8 39 62.5 278.5l72.5 315t26.5 116.5t8.5 62q0 35 -17 57.5t-45 22.5q-52 0 -82.5 -42.5t-60.5 -119.5l-18 -56.5t-9 -19t-12 -6.5q-14 0 -14 23q0 28 29 108
t88.5 147.5t148.5 67.5q49 0 86 -22.5t55.5 -65t18.5 -106.5q0 -35 -10 -103l4 -4q78 156 166 228.5t198 72.5q56 0 105 -22t80.5 -73t31.5 -130q0 -45 -10 -88h4q55 98 99 159t113.5 107.5t162.5 46.5q101 0 162 -63.5t61 -157.5q0 -46 -19 -121.5t-66.5 -249t-47.5 -202.5
q0 -66 64 -66q88 0 145 158q13 36 19.5 55.5t10 26t11.5 6.5q16 0 16 -19z" />
    <glyph glyph-name="n" unicode="n" horiz-adv-x="1251" 
d="M1159 313q0 -29 -27.5 -109t-92 -150t-169.5 -70q-80 0 -120.5 46t-40.5 122q0 35 10.5 85.5t45 200t48.5 216t14 102.5q0 53 -28.5 82.5t-83.5 29.5q-88 0 -164 -90t-124.5 -202.5t-70.5 -196.5l-94 -387q-52 12 -94 12q-39 0 -80 -12l71.5 346.5t57 289t19.5 140.5
q0 76 -64 76q-88 0 -147 -158q-14 -37 -21.5 -54.5t-17.5 -17.5q-17 0 -17 19q0 23 31 101.5t95 145t159 66.5q82 0 124 -46t42 -122q0 -74 -14 -139l4 -4q62 111 118 178t120.5 100t142.5 33q99 0 160 -63.5t61 -161.5q0 -47 -18.5 -128.5t-59.5 -248t-41 -192.5
q0 -66 63 -66q89 0 146 158q7 18 16 46.5t13 35t12 6.5q16 0 16 -19z" />
    <glyph glyph-name="o" unicode="o" horiz-adv-x="1063" 
d="M924 528q0 -110 -38 -209.5t-109 -175t-170 -117.5t-214 -42q-116 0 -207 50.5t-140.5 146t-49.5 220.5q0 148 67 273t188.5 198.5t274.5 73.5q88 0 162.5 -29t127.5 -84t80.5 -132t27.5 -173zM739 639q0 91 -24 151t-70.5 89.5t-114.5 29.5q-113 0 -193 -97t-118.5 -241
t-38.5 -280q0 -271 209 -271q114 0 193 96t118 242t39 281z" />
    <glyph glyph-name="p" unicode="p" horiz-adv-x="1214" 
d="M1075 563q0 -120 -46 -227t-123.5 -185.5t-176 -122.5t-197.5 -44q-57 0 -105 15.5t-78 35.5t-60 45l-109 -477q-70 16 -96 16q-32 0 -82 -16l113 522.5l85.5 391.5t38 176.5t7.5 64.5q0 86 -78 86q-43 0 -73.5 -35t-63.5 -102l-20 -47t-13.5 -32t-6 -13.5t-7.5 -4.5
q-15 0 -15 15q0 25 31 106t93 148t153 67q184 0 184 -229h4q62 108 134.5 168.5t183.5 60.5q65 0 125.5 -28t103.5 -77t68.5 -121.5t25.5 -156.5zM891 651q0 117 -49 173.5t-131 56.5q-81 0 -150 -63t-120.5 -169.5t-78 -216.5t-26.5 -207q0 -78 47 -135t143 -57
q90 0 161 70t115.5 171.5t66.5 205t22 171.5z" />
    <glyph glyph-name="q" unicode="q" 
d="M1028 911q0 -10 -17.5 -44t-33.5 -68.5t-37.5 -106.5t-40.5 -166l-182 -923q-70 16 -96 16q-34 0 -82 -16l131 669l-4 4q-175 -292 -402 -292q-80 0 -141 36.5t-94 108.5t-33 178q0 168 84.5 315.5t212 235.5t242.5 88q88 0 153.5 -52.5t91.5 -152.5q49 62 121.5 125.5
t108.5 63.5q18 0 18 -19zM731 680q0 98 -54 157.5t-130 59.5q-117 0 -200 -120t-125 -273.5t-42 -245.5q0 -98 42.5 -147.5t117.5 -49.5q105 0 194.5 108.5t143 258t53.5 252.5z" />
    <glyph glyph-name="r" unicode="r" horiz-adv-x="909" 
d="M893 850q0 -53 -30.5 -81t-82.5 -28q-43 0 -87.5 29t-74.5 29q-79 0 -151 -140t-123 -340l-82 -327q-70 12 -94 12q-16 0 -88 -12q166 729 166 784q0 32 -15 50t-43 18q-85 0 -149 -176q-15 -45 -22.5 -61.5t-16.5 -16.5q-14 0 -14 16q0 30 28.5 114t91 155t160.5 71
q74 0 119 -46t45 -132q0 -59 -8 -96h4q56 105 143 189.5t211 84.5q51 0 82 -25.5t31 -70.5z" />
    <glyph glyph-name="s" unicode="s" horiz-adv-x="948" 
d="M823 750q0 -47 -21 -73t-65 -26q-61 0 -84.5 34.5t-36.5 105.5q-7 41 -19.5 66.5t-44 38.5t-89.5 13q-85 0 -140 -47t-55 -112q0 -72 54.5 -105t188.5 -84.5t201.5 -108t67.5 -161.5q0 -126 -107 -216.5t-321 -90.5q-165 0 -260.5 65.5t-95.5 167.5q0 60 25 93.5t71 33.5
q51 0 71 -39t27 -112q7 -62 21.5 -97.5t51 -55.5t106.5 -20q115 0 185.5 54.5t70.5 140.5q0 67 -62 103t-189.5 83t-194 99.5t-66.5 146.5q0 90 51 158t133.5 104.5t173.5 36.5q88 0 155 -17.5t111 -46.5t65 -63t21 -69z" />
    <glyph glyph-name="t" unicode="t" horiz-adv-x="682" 
d="M616 930l-30 -103h-215l-92 -416.5t-46 -226.5q0 -45 32 -71.5t83 -26.5q50 0 92 22.5t82.5 55.5t48.5 33q15 0 15 -17q0 -15 -49.5 -64.5t-126.5 -90.5t-166 -41q-86 0 -140.5 44t-54.5 117q0 34 8 80t34 160l54.5 234l49.5 208h-175q136 58 231.5 140.5t203.5 249.5
l-62 -287h223z" />
    <glyph glyph-name="u" unicode="u" horiz-adv-x="1251" 
d="M1151 313q0 -26 -28.5 -108t-94.5 -151.5t-170 -69.5q-77 0 -117.5 46.5t-40.5 121.5q0 40 15 143l-4 4q-85 -165 -177.5 -240t-203.5 -75q-102 0 -161.5 59.5t-59.5 165.5q0 34 13 98.5t49.5 215t46 193t9.5 62.5q0 66 -63 66q-89 0 -146 -158q-6 -17 -15 -45.5
t-13.5 -35.5t-12.5 -7q-16 0 -16 18q0 28 29.5 109t94 151t161.5 70q79 0 122.5 -46.5t43.5 -121.5q0 -46 -15 -116.5t-49 -216.5t-44.5 -195.5t-10.5 -85.5q0 -46 27.5 -74.5t76.5 -28.5q92 0 169.5 90t126.5 202t71 198l94 387q53 -12 94 -12t80 12l-42 -206l-54.5 -266
t-38.5 -203t-12 -103q0 -74 63 -74q89 0 146 158q7 18 16 46.5t13 35t12 6.5q16 0 16 -19z" />
    <glyph glyph-name="v" unicode="v" horiz-adv-x="1176" 
d="M1042 621q0 -108 -37.5 -220t-109 -208t-166.5 -152.5t-209 -56.5q-139 0 -214 86t-75 213q0 75 28 155t71.5 156t105.5 164q-61 9 -95 21.5t-70 32t-61 30t-60 10.5q-54 0 -85.5 -35.5t-31.5 -79.5q0 -59 43 -59q10 0 28 2t31 2q37 0 63.5 -23.5t26.5 -70.5
q0 -46 -29 -72.5t-79 -26.5q-146 0 -146 183q0 71 34.5 134t99.5 101.5t145 38.5q48 0 140.5 -16.5t121.5 -16.5q32 0 63 9l15 4q12 4 16 4q15 0 15 -15q0 -8 -74.5 -103.5t-131.5 -200.5t-57 -203q0 -94 34 -154t94.5 -87.5t144.5 -27.5q115 0 195 70.5t117.5 167.5
t37.5 170q0 57 -28.5 90t-84 65.5t-82 59.5t-26.5 76q0 47 26.5 77.5t67.5 30.5q54 0 97 -40.5t67 -116t24 -168.5z" />
    <glyph glyph-name="w" unicode="w" horiz-adv-x="1745" 
d="M1612 672q0 -166 -75.5 -327t-203.5 -261t-272 -100q-84 0 -150 41t-106 110q-89 -72 -170.5 -111.5t-169.5 -39.5q-70 0 -127 33.5t-90 100t-33 158.5q0 60 15 111.5t41.5 102t74.5 122.5l98 146q-40 4 -77 17.5t-80 34.5t-71 31.5t-58 10.5q-58 0 -91.5 -36t-33.5 -83
q0 -55 45 -55q10 0 31 2t30 2q37 0 61.5 -24.5t24.5 -65.5q0 -47 -27 -75t-73 -28q-154 0 -154 183q0 74 32.5 136.5t100 100t160.5 37.5q42 0 143 -14t130 -14q23 0 51 6t33 6q12 0 12 -12q0 -7 -55 -77t-95 -128t-76 -140.5t-36 -156.5q0 -100 27 -166.5t79.5 -98.5
t126.5 -32q102 0 180 74q-26 73 -26 186q0 100 25.5 202t71.5 185t103.5 131.5t116.5 48.5q127 0 127 -166q0 -88 -67.5 -225.5t-206.5 -294.5q53 -60 109.5 -90.5t138.5 -30.5q130 0 210.5 77.5t116 170.5t35.5 139q0 59 -27 93.5t-84.5 72.5t-79.5 60t-22 67q0 47 33 79
t80 32q52 0 92 -37.5t61 -96t21 -124.5zM1096 721q0 98 -84 98q-69 0 -118.5 -93t-49.5 -220q0 -123 53 -203q58 64 104.5 139t70.5 145t24 134z" />
    <glyph glyph-name="x" unicode="x" horiz-adv-x="1176" 
d="M1079 801q0 -51 -33.5 -114t-77.5 -111t-59 -48q-14 0 -14 17q0 7 30 40t49 66t19 80q0 37 -20 62.5t-66 25.5q-50 0 -96 -29.5t-87 -79.5t-71 -99.5l-49 -80.5l94 -225q41 -96 65.5 -127t65.5 -31q42 0 65.5 29t49.5 94q11 26 23 59t18 33q14 0 14 -16q0 -13 -17.5 -74
t-47.5 -125t-80.5 -113.5t-114.5 -49.5q-41 0 -68.5 14.5t-52 52t-52.5 101t-89 215.5l-106 -162q-55 -82 -98.5 -129.5t-89 -69.5t-105.5 -22q-61 0 -99 44t-38 115q0 69 42.5 134t95 110t64.5 45q17 0 17 -16q0 -6 -33.5 -37t-58.5 -68.5t-25 -81.5q0 -118 104 -118
q48 0 95.5 31t100 98.5t114.5 175.5l-70 172q-50 127 -71 165t-48 38q-30 0 -49.5 -20.5t-44.5 -61.5l-31.5 -58t-19.5 -32t-14 -9q-15 0 -15 17q0 19 35.5 100t95 150t129.5 69q46 0 77.5 -38t66.5 -124l86 -204q3 4 86 131.5t140.5 181t127.5 53.5q60 0 100.5 -38.5
t40.5 -106.5z" />
    <glyph glyph-name="y" unicode="y" horiz-adv-x="1024" 
d="M940 760q0 -267 -410 -758q-333 -399 -561 -399q-88 0 -139 38.5t-51 94.5q0 44 30 71t76 27q45 0 69.5 -17t50.5 -52.5t41 -49.5t46 -14q50 0 128.5 55.5t138 126t59.5 107.5q0 17 -6.5 41.5t-25 80.5l-42 125.5l-88.5 264.5l-53.5 167.5t-25.5 71.5t-24.5 39t-35.5 11
q-33 0 -56.5 -35.5t-54.5 -126.5q-13 -40 -18.5 -52t-14.5 -12q-14 0 -14 19q0 34 29.5 123.5t84.5 164t128 74.5q45 0 77 -32.5t54 -96.5l241 -692q125 156 182.5 259t57.5 206q0 48 -15 81t-44.5 69.5t-41.5 57.5t-12 54q0 44 28 69t73 25q34 0 66 -18.5t52.5 -60
t20.5 -107.5z" />
    <glyph glyph-name="z" unicode="z" horiz-adv-x="1024" 
d="M954 903q0 -20 -13.5 -35t-45.5 -43l-651 -571l4 -4q32 4 51 4q67 0 110 -25.5t88 -76.5t71 -71t71 -20q52 0 82.5 25t30.5 59q0 28 -14.5 46.5t-40 39.5t-39 40t-13.5 48q0 40 27 68.5t80 28.5q61 0 94 -40.5t33 -111.5q0 -57 -36 -122.5t-118.5 -111.5t-208.5 -46
q-86 0 -139 29t-116.5 79.5t-94.5 50.5q-42 0 -70.5 -39.5l-57.5 -79.5t-71 -40q-25 0 -39 15t-14 38q0 40 36 63.5t105 55.5q20 7 37 20l580 529l-4 4q-17 -4 -66 -4q-84 0 -147 55q-18 16 -44 45t-47.5 42t-54.5 13q-53 0 -81.5 -29t-28.5 -71q0 -44 29 -67.5l58 -47
t29 -65.5t-30.5 -69.5t-83.5 -27.5q-55 0 -92 38.5t-37 113.5q0 70 33 127.5t85 98.5t110 63t110 22q91 0 182 -65q92 -66 147 -66q42 0 66 18t43 48q25 40 34.5 52.5t28.5 12.5q16 0 29.5 -12.5t13.5 -30.5z" />
    <glyph glyph-name="braceleft" unicode="{" horiz-adv-x="834" 
d="M819 1495l-10 -49q-93 -6 -143.5 -65.5t-77.5 -178.5l-82 -371q-20 -87 -44.5 -138t-68.5 -86t-117 -54v-4q55 -14 89 -52t34 -91q0 -41 -18.5 -133.5t-40.5 -180.5q-59 -242 -59 -311q0 -121 125 -129l-13 -49q-144 0 -212 38t-68 146q0 43 11.5 101t45.5 200t47.5 208
t13.5 105q0 63 -26.5 96.5t-85.5 53.5q99 30 143.5 84.5t67.5 163.5l88 391q30 128 80 193t126.5 88.5t194.5 23.5z" />
    <glyph glyph-name="bar" unicode="|" horiz-adv-x="455" 
d="M250 0h-127v1495h127v-1495z" />
    <glyph glyph-name="braceright" unicode="}" horiz-adv-x="834" 
d="M629 1311q0 -50 -15.5 -123.5t-37 -163.5l-44 -191t-22.5 -137q0 -61 26.5 -95t86.5 -54q-97 -29 -142.5 -85t-68.5 -163l-88 -391q-29 -126 -80 -192t-127.5 -89.5t-194.5 -23.5l10 49q94 6 145.5 66.5t76.5 177.5l82 370q27 124 75 188t154 91v4q-55 14 -89 52t-34 91
q0 64 59 314q60 246 60 311q0 62 -30 93.5t-95 35.5l12 49q145 0 213 -37.5t68 -146.5z" />
    <glyph glyph-name="asciitilde" unicode="~" horiz-adv-x="1229" 
d="M950 496q-53 -74 -103 -116t-126 -42q-74 0 -186 61q-113 62 -213 62q-96 0 -154 -131l-66 102q84 160 230 160q66 0 205 -60l70 -31.5t64 -26t52 -9.5q49 0 85 34.5t77 100.5z" />
    <glyph glyph-name="Adieresis" unicode="&#xc4;" horiz-adv-x="1290" 
d="M1167 23q0 -27 -26 -27q-32 0 -108 2t-107 2q-36 0 -116 -2t-116 -2q-20 0 -20 24q0 25 54.5 36t83 26t28.5 74q0 32 -9.5 82.5t-26 125.5t-30.5 148h-469q-48 -80 -94.5 -172.5t-46.5 -157.5q0 -59 31 -85t77.5 -45t46.5 -32q0 -24 -22 -24q-42 0 -127 2t-127 2
q-43 0 -126 -2t-116 -2q-26 0 -26 24q0 16 22 23t72.5 24.5t106 63.5t110.5 129l138.5 218l178 290.5l160 271t62.5 121.5q0 14 -15.5 26.5t-15.5 20.5q0 12 31.5 40t62.5 61q39 40 55 80.5t27 40.5q15 0 25 -50l233 -1210q11 -55 38 -77.5t64 -39t37 -30.5zM762 561
l-109 543l-321 -543h430zM1108 1592q0 -45 -29 -74t-73 -29t-73 29t-29 74q0 44 29 73t73 29q21 0 40.5 -8t32.5 -21t21 -32.5t8 -40.5zM703 1592q0 -45 -29 -74t-73 -29q-45 0 -74 29t-29 74q0 44 29 73t74 29q21 0 40.5 -8t32.5 -21t21 -32.5t8 -40.5z" />
    <glyph glyph-name="Aring" unicode="&#xc5;" horiz-adv-x="1290" 
d="M1167 23q0 -27 -26 -27q-32 0 -108 2t-107 2q-36 0 -116 -2t-116 -2q-20 0 -20 24q0 25 54.5 36t83 26t28.5 74q0 32 -9.5 82.5t-26 125.5t-30.5 148h-469q-48 -80 -94.5 -172.5t-46.5 -157.5q0 -59 31 -85t77.5 -45t46.5 -32q0 -24 -22 -24q-42 0 -127 2t-127 2
q-43 0 -126 -2t-116 -2q-26 0 -26 24q0 16 22 23t72.5 24.5t106 63.5t110.5 129l138.5 218l178 290.5l160 271t62.5 121.5q0 14 -15.5 26.5t-15.5 20.5q0 12 31.5 40t62.5 61q39 40 55 80.5t27 40.5q15 0 25 -50l233 -1210q11 -55 38 -77.5t64 -39t37 -30.5zM762 561
l-109 543l-321 -543h430zM1012 1661q0 -55 -27 -102t-74.5 -75t-103.5 -28t-103.5 28t-74 75.5t-26.5 101.5q0 84 59.5 144.5t144.5 60.5q56 0 103 -27.5t74.5 -74.5t27.5 -103zM943 1661q0 57 -40 96t-96 39t-95.5 -39.5t-39.5 -95.5t39.5 -95.5t95.5 -39.5t96 39t40 96z
" />
    <glyph glyph-name="Ccedilla" unicode="&#xc7;" horiz-adv-x="1442" 
d="M1399 1360q0 -5 -4 -23l-15.5 -70.5l-36 -170.5l-49.5 -242q-5 -23 -10 -31t-18 -8q-11 0 -16 16t-8.5 53.5t-10.5 100.5q-24 189 -124 288t-267 99q-125 0 -232 -70t-184.5 -194t-119.5 -284t-42 -330q0 -158 47.5 -266.5t130.5 -160t189 -51.5q355 0 532 392
q18 38 27 63t14 31t17 6q18 0 18 -23q0 -12 -18.5 -97.5l-81.5 -375.5q-14 -63 -39 -63q-16 0 -23 16.5t-10.5 33.5t-14.5 29.5t-36 12.5q-24 0 -81.5 -22t-116 -36.5t-152.5 -15.5l-68 -102q27 6 55 6q74 0 119 -37.5t45 -109.5q0 -53 -34 -91t-91 -56.5t-125 -18.5
q-100 0 -182 43l33 57q82 -31 135 -31q51 0 82 25t31 65q0 36 -27 60t-62 24q-36 0 -71 -14l-19 16l105 166q-168 13 -292 94.5t-188.5 212.5t-64.5 289q0 242 117.5 439.5t302 307t369.5 109.5q91 0 158 -19t101 -37.5l87 -48.5t75 -30q43 0 59 19t30 51.5t30 32.5
q25 0 25 -29z" />
    <glyph glyph-name="Eacute" unicode="&#xc9;" horiz-adv-x="1290" 
d="M1196 954q0 -26 -22 -26q-11 0 -17.5 10t-13 34l-15.5 58q-33 124 -100.5 191.5t-180 94.5t-292.5 27l-133 -589q145 0 222.5 35.5t123.5 105.5q17 25 28 56t18 61.5t14 44.5t18 14q16 0 16 -16q0 -22 -8.5 -65.5t-52.5 -250.5l-42.5 -204t-23 -104.5t-16.5 -49
t-19 -10.5q-10 0 -14 7t-4 19q0 1 5 37.5t5 65.5q0 95 -57.5 150t-224.5 55l-57 -270l-34 -154t-22 -104t-6 -46q0 -86 145 -86q285 0 518 223q39 38 69 82.5t57 95.5t40 71t25 20q18 0 18 -19q0 -13 -56 -145l-155 -377q-127 0 -359 2t-329 2q-70 0 -175 -2t-152 -2
q-41 0 -41 20q0 15 26 21.5t60 14t63 27.5t37 60l121 539.5l74 325.5t34.5 160.5t10.5 80.5q0 51 -25 64.5t-70 23t-45 31.5q0 29 31 29q80 0 130.5 -1l100 -2t129.5 -1q128 0 208 1l160 2t208 1q25 -233 36 -321.5t11 -117.5zM1092 1741q0 -41 -57 -78l-336 -207h-70
l306 297q31 31 49.5 45.5t42.5 14.5q26 0 45.5 -18.5t19.5 -53.5z" />
    <glyph glyph-name="Ntilde" unicode="&#xd1;" horiz-adv-x="1442" 
d="M1548 1372q0 -12 -48 -29.5t-93.5 -41.5t-91 -79.5t-68.5 -150.5l-124 -543.5t-80.5 -372.5t-36.5 -161t-23 -27q-17 0 -33.5 25t-62 117.5l-198.5 398l-300 586.5h-4l-91 -419.5l-61.5 -283.5t-26 -128.5t-5.5 -53.5q0 -81 39.5 -113t96 -46t56.5 -27q0 -15 -9 -21
t-38 -6q-44 0 -111 2t-94 2q-44 0 -135 -2t-137 -2q-27 0 -27 18q0 19 29.5 27t88.5 26t102 62.5t65 134.5l215 901l-33 62q-34 63 -66.5 82t-72 29t-39.5 26q0 29 23 29q14 0 121 -2t194 -2l551 -1072h4l117.5 537l39 179t18 94t5.5 57q0 68 -37.5 98.5t-93 49.5t-55.5 34
q0 27 39 27q40 0 116 -2t125 -2q25 0 104 2t120 2q13 0 19.5 -6t6.5 -15zM1225 1731q-15 -92 -66 -152.5t-128 -60.5q-35 0 -71.5 11.5t-88.5 35.5q-96 47 -147 47q-40 0 -68.5 -27.5t-36.5 -70.5h-61q47 217 200 217q62 0 166 -47q17 -8 49 -21.5t55 -19.5t40 -6
q42 0 63.5 23.5t36.5 70.5h57z" />
    <glyph glyph-name="Odieresis" unicode="&#xd6;" horiz-adv-x="1593" 
d="M1483 815q0 -196 -72.5 -354.5t-194 -269t-265 -167.5t-283.5 -57q-175 0 -317.5 82t-224 220.5t-81.5 303.5q0 197 73 356t193.5 268t265 166.5t283.5 57.5q132 0 246 -46.5t200 -131.5t131.5 -193.5t45.5 -234.5zM1266 913q0 239 -112 349t-298 110q-143 0 -254.5 -79
t-187.5 -212.5t-114 -290.5t-38 -315q0 -239 112.5 -349t297.5 -110q143 0 256 80.5t188 212.5t112.5 289.5t37.5 314.5zM1259 1592q0 -45 -29 -74t-73 -29t-73 29t-29 74q0 44 29 73t73 29q21 0 40.5 -8t32.5 -21t21 -32.5t8 -40.5zM854 1592q0 -45 -29 -74t-73 -29
q-45 0 -74 29t-29 74q0 44 29 73t74 29q21 0 40.5 -8t32.5 -21t21 -32.5t8 -40.5z" />
    <glyph glyph-name="Udieresis" unicode="&#xdc;" horiz-adv-x="1442" 
d="M1532 1364q0 -15 -17 -18.5t-52 -9.5t-71.5 -30.5t-72.5 -80.5q-31 -48 -49.5 -92t-39.5 -128.5t-48.5 -221.5l-83.5 -398q-46 -211 -200 -314.5t-363 -103.5q-86 0 -187.5 34.5t-171.5 105t-70 174.5q0 43 22 146t76 336.5l76.5 335.5t22.5 138q0 58 -25.5 74t-70.5 24
t-45 29q0 16 9.5 22.5t37.5 6.5q37 0 112 -2t111 -2q41 0 123 2t121 2q24 0 24 -29q0 -15 -24 -18t-62 -9t-68 -32.5t-42 -81.5l-129 -602.5t-64 -337.5q0 -121 81 -187.5t210 -66.5q123 0 218 48.5t153 131t80 186.5l71 345.5l37 186t24.5 143.5t6.5 83q0 72 -22.5 111.5
t-43.5 49.5t-58.5 23.5t-37.5 26.5q0 29 29 29q47 0 138 -2t136 -2q29 0 88 2t86 2q25 0 25 -29zM1183 1592q0 -45 -29 -74t-73 -29t-73 29t-29 74q0 44 29 73t73 29q21 0 40.5 -8t32.5 -21t21 -32.5t8 -40.5zM778 1592q0 -45 -29 -74t-73 -29q-45 0 -74 29t-29 74
q0 44 29 73t74 29q21 0 40.5 -8t32.5 -21t21 -32.5t8 -40.5z" />
    <glyph glyph-name="aacute" unicode="&#xe1;" horiz-adv-x="1176" 
d="M1085 336q0 -17 -14.5 -73t-46 -121t-85 -111.5t-126.5 -46.5q-172 0 -172 174q0 59 4 104l-4 4q-56 -103 -152.5 -192.5t-240.5 -89.5q-88 0 -147 37t-88 104t-29 160q0 141 52 264.5t134.5 211.5t176.5 136.5t175 48.5q189 0 242 -207l137 127.5t56.5 49.5t31.5 14
q25 0 25 -27q0 -10 -26 -70.5t-43 -104.5t-30 -101q-45 -217 -61.5 -291t-22.5 -109t-6 -63t18.5 -45t45.5 -17q44 0 75.5 38.5t59.5 123.5q27 74 31.5 83t13.5 9q16 0 16 -20zM727 659q0 119 -55 178.5t-144 59.5q-73 0 -139 -60.5t-115.5 -158.5t-77.5 -210.5t-28 -209.5
q0 -111 37 -154t108 -43q87 0 164 66t133 166t86.5 200.5t30.5 165.5zM979 1325q0 -41 -57 -78l-336 -207h-70l306 297q31 31 49.5 45.5t42.5 14.5q26 0 45.5 -18.5t19.5 -53.5z" />
    <glyph glyph-name="agrave" unicode="&#xe0;" horiz-adv-x="1176" 
d="M1085 336q0 -17 -14.5 -73t-46 -121t-85 -111.5t-126.5 -46.5q-172 0 -172 174q0 59 4 104l-4 4q-56 -103 -152.5 -192.5t-240.5 -89.5q-88 0 -147 37t-88 104t-29 160q0 141 52 264.5t134.5 211.5t176.5 136.5t175 48.5q189 0 242 -207l137 127.5t56.5 49.5t31.5 14
q25 0 25 -27q0 -10 -26 -70.5t-43 -104.5t-30 -101q-45 -217 -61.5 -291t-22.5 -109t-6 -63t18.5 -45t45.5 -17q44 0 75.5 38.5t59.5 123.5q27 74 31.5 83t13.5 9q16 0 16 -20zM727 659q0 119 -55 178.5t-144 59.5q-73 0 -139 -60.5t-115.5 -158.5t-77.5 -210.5t-28 -209.5
q0 -111 37 -154t108 -43q87 0 164 66t133 166t86.5 200.5t30.5 165.5zM788 1040h-64l-276 213q-31 26 -40 39t-9 33q0 33 22.5 52.5t53.5 19.5q41 0 92 -66z" />
    <glyph glyph-name="acircumflex" unicode="&#xe2;" horiz-adv-x="1176" 
d="M1085 336q0 -17 -14.5 -73t-46 -121t-85 -111.5t-126.5 -46.5q-172 0 -172 174q0 59 4 104l-4 4q-56 -103 -152.5 -192.5t-240.5 -89.5q-88 0 -147 37t-88 104t-29 160q0 141 52 264.5t134.5 211.5t176.5 136.5t175 48.5q189 0 242 -207l137 127.5t56.5 49.5t31.5 14
q25 0 25 -27q0 -10 -26 -70.5t-43 -104.5t-30 -101q-45 -217 -61.5 -291t-22.5 -109t-6 -63t18.5 -45t45.5 -17q44 0 75.5 38.5t59.5 123.5q27 74 31.5 83t13.5 9q16 0 16 -20zM727 659q0 119 -55 178.5t-144 59.5q-73 0 -139 -60.5t-115.5 -158.5t-77.5 -210.5t-28 -209.5
q0 -111 37 -154t108 -43q87 0 164 66t133 166t86.5 200.5t30.5 165.5zM930 1040h-74l-170 213l-282 -213h-80l324 349h100z" />
    <glyph glyph-name="adieresis" unicode="&#xe4;" horiz-adv-x="1176" 
d="M1085 336q0 -17 -14.5 -73t-46 -121t-85 -111.5t-126.5 -46.5q-172 0 -172 174q0 59 4 104l-4 4q-56 -103 -152.5 -192.5t-240.5 -89.5q-88 0 -147 37t-88 104t-29 160q0 141 52 264.5t134.5 211.5t176.5 136.5t175 48.5q189 0 242 -207l137 127.5t56.5 49.5t31.5 14
q25 0 25 -27q0 -10 -26 -70.5t-43 -104.5t-30 -101q-45 -217 -61.5 -291t-22.5 -109t-6 -63t18.5 -45t45.5 -17q44 0 75.5 38.5t59.5 123.5q27 74 31.5 83t13.5 9q16 0 16 -20zM727 659q0 119 -55 178.5t-144 59.5q-73 0 -139 -60.5t-115.5 -158.5t-77.5 -210.5t-28 -209.5
q0 -111 37 -154t108 -43q87 0 164 66t133 166t86.5 200.5t30.5 165.5zM983 1176q0 -45 -29 -74t-73 -29t-73 29t-29 74q0 44 29 73t73 29q21 0 40.5 -8t32.5 -21t21 -32.5t8 -40.5zM578 1176q0 -45 -29 -74t-73 -29q-45 0 -74 29t-29 74q0 44 29 73t74 29q21 0 40.5 -8
t32.5 -21t21 -32.5t8 -40.5z" />
    <glyph glyph-name="atilde" unicode="&#xe3;" horiz-adv-x="1176" 
d="M1085 336q0 -17 -14.5 -73t-46 -121t-85 -111.5t-126.5 -46.5q-172 0 -172 174q0 59 4 104l-4 4q-56 -103 -152.5 -192.5t-240.5 -89.5q-88 0 -147 37t-88 104t-29 160q0 141 52 264.5t134.5 211.5t176.5 136.5t175 48.5q189 0 242 -207l137 127.5t56.5 49.5t31.5 14
q25 0 25 -27q0 -10 -26 -70.5t-43 -104.5t-30 -101q-45 -217 -61.5 -291t-22.5 -109t-6 -63t18.5 -45t45.5 -17q44 0 75.5 38.5t59.5 123.5q27 74 31.5 83t13.5 9q16 0 16 -20zM727 659q0 119 -55 178.5t-144 59.5q-73 0 -139 -60.5t-115.5 -158.5t-77.5 -210.5t-28 -209.5
q0 -111 37 -154t108 -43q87 0 164 66t133 166t86.5 200.5t30.5 165.5zM1024 1315q-15 -92 -66 -152.5t-128 -60.5q-35 0 -71.5 11.5t-88.5 35.5q-96 47 -147 47q-40 0 -68.5 -27.5t-36.5 -70.5h-61q47 217 200 217q62 0 166 -47q17 -8 49 -21.5t55 -19.5t40 -6
q42 0 63.5 23.5t36.5 70.5h57z" />
    <glyph glyph-name="aring" unicode="&#xe5;" horiz-adv-x="1176" 
d="M1085 336q0 -17 -14.5 -73t-46 -121t-85 -111.5t-126.5 -46.5q-172 0 -172 174q0 59 4 104l-4 4q-56 -103 -152.5 -192.5t-240.5 -89.5q-88 0 -147 37t-88 104t-29 160q0 141 52 264.5t134.5 211.5t176.5 136.5t175 48.5q189 0 242 -207l137 127.5t56.5 49.5t31.5 14
q25 0 25 -27q0 -10 -26 -70.5t-43 -104.5t-30 -101q-45 -217 -61.5 -291t-22.5 -109t-6 -63t18.5 -45t45.5 -17q44 0 75.5 38.5t59.5 123.5q27 74 31.5 83t13.5 9q16 0 16 -20zM727 659q0 119 -55 178.5t-144 59.5q-73 0 -139 -60.5t-115.5 -158.5t-77.5 -210.5t-28 -209.5
q0 -111 37 -154t108 -43q87 0 164 66t133 166t86.5 200.5t30.5 165.5zM887 1245q0 -55 -27 -102t-74.5 -75t-103.5 -28t-103.5 28t-74 75.5t-26.5 101.5q0 84 59.5 144.5t144.5 60.5q56 0 103 -27.5t74.5 -74.5t27.5 -103zM818 1245q0 57 -40 96t-96 39t-95.5 -39.5
t-39.5 -95.5t39.5 -95.5t95.5 -39.5t96 39t40 96z" />
    <glyph glyph-name="ccedilla" unicode="&#xe7;" horiz-adv-x="1024" 
d="M913 674q0 -61 -31 -105.5t-87 -44.5q-44 0 -66 23.5t-22 60.5q0 26 11 78.5t11 73.5q0 60 -43.5 104.5t-128.5 44.5q-105 0 -191 -73t-136 -188t-50 -232q0 -141 86.5 -227.5t229.5 -86.5q77 0 135.5 24.5t90 51t65 62.5t42.5 36q15 0 15 -14q0 -26 -56 -95.5
t-156.5 -126.5t-230.5 -56h-6l-80 -119q29 6 56 6q74 0 119 -37.5t45 -109.5q0 -53 -34 -91t-91 -56.5t-125 -18.5q-100 0 -183 43l33 57q82 -31 135 -31q51 0 82 25t31 65q0 36 -26.5 60t-61.5 24t-72 -14l-18 16l117 187q-149 23 -237.5 130.5t-88.5 280.5q0 103 43.5 203
t121 176.5t182 121t224.5 44.5q154 0 250 -76t96 -196z" />
    <glyph glyph-name="eacute" unicode="&#xe9;" horiz-adv-x="948" 
d="M836 754q0 -160 -275 -252q-133 -45 -381 -90v-9q0 -82 36 -151t107 -109.5t173 -40.5q105 0 200 70l68.5 54t42.5 30q14 0 14 -16q0 -13 -33.5 -55t-91.5 -88.5t-139.5 -79.5t-177.5 -33q-114 0 -202 54t-134.5 144.5t-46.5 196.5q0 174 95 303t230.5 196.5t247.5 67.5
q120 0 193.5 -50t73.5 -142zM680 782q0 127 -117 127q-56 0 -119.5 -27t-120 -81.5t-95.5 -142t-48 -205.5q172 32 280.5 65t157.5 92q34 39 48 83.5t14 88.5zM895 1325q0 -41 -57 -78l-336 -207h-70l306 297q31 31 49.5 45.5t42.5 14.5q26 0 45.5 -18.5t19.5 -53.5z" />
    <glyph glyph-name="egrave" unicode="&#xe8;" horiz-adv-x="948" 
d="M836 754q0 -160 -275 -252q-133 -45 -381 -90v-9q0 -82 36 -151t107 -109.5t173 -40.5q105 0 200 70l68.5 54t42.5 30q14 0 14 -16q0 -13 -33.5 -55t-91.5 -88.5t-139.5 -79.5t-177.5 -33q-114 0 -202 54t-134.5 144.5t-46.5 196.5q0 174 95 303t230.5 196.5t247.5 67.5
q120 0 193.5 -50t73.5 -142zM680 782q0 127 -117 127q-56 0 -119.5 -27t-120 -81.5t-95.5 -142t-48 -205.5q172 32 280.5 65t157.5 92q34 39 48 83.5t14 88.5zM705 1040h-64l-276 213q-31 26 -40 39t-9 33q0 33 22.5 52.5t53.5 19.5q41 0 92 -66z" />
    <glyph glyph-name="ecircumflex" unicode="&#xea;" horiz-adv-x="948" 
d="M836 754q0 -160 -275 -252q-133 -45 -381 -90v-9q0 -82 36 -151t107 -109.5t173 -40.5q105 0 200 70l68.5 54t42.5 30q14 0 14 -16q0 -13 -33.5 -55t-91.5 -88.5t-139.5 -79.5t-177.5 -33q-114 0 -202 54t-134.5 144.5t-46.5 196.5q0 174 95 303t230.5 196.5t247.5 67.5
q120 0 193.5 -50t73.5 -142zM680 782q0 127 -117 127q-56 0 -119.5 -27t-120 -81.5t-95.5 -142t-48 -205.5q172 32 280.5 65t157.5 92q34 39 48 83.5t14 88.5zM846 1040h-74l-170 213l-282 -213h-80l324 349h100z" />
    <glyph glyph-name="edieresis" unicode="&#xeb;" horiz-adv-x="948" 
d="M836 754q0 -160 -275 -252q-133 -45 -381 -90v-9q0 -82 36 -151t107 -109.5t173 -40.5q105 0 200 70l68.5 54t42.5 30q14 0 14 -16q0 -13 -33.5 -55t-91.5 -88.5t-139.5 -79.5t-177.5 -33q-114 0 -202 54t-134.5 144.5t-46.5 196.5q0 174 95 303t230.5 196.5t247.5 67.5
q120 0 193.5 -50t73.5 -142zM680 782q0 127 -117 127q-56 0 -119.5 -27t-120 -81.5t-95.5 -142t-48 -205.5q172 32 280.5 65t157.5 92q34 39 48 83.5t14 88.5zM899 1176q0 -45 -29 -74t-73 -29t-73 29t-29 74q0 44 29 73t73 29q21 0 40.5 -8t32.5 -21t21 -32.5t8 -40.5z
M494 1176q0 -45 -29 -74t-73 -29q-45 0 -74 29t-29 74q0 44 29 73t74 29q21 0 40.5 -8t32.5 -21t21 -32.5t8 -40.5z" />
    <glyph glyph-name="iacute" unicode="&#xed;" horiz-adv-x="645" 
d="M543 313q0 -27 -30.5 -109t-93.5 -151t-161 -69q-78 0 -122 49t-44 125q0 34 17.5 104.5t58 215l57.5 208.5t17 92q0 66 -64 66q-88 0 -147 -158q-14 -37 -21.5 -54.5t-17.5 -17.5q-17 0 -17 19q0 23 31 101.5t95 145t159 66.5q83 0 124.5 -44.5t41.5 -117.5
q0 -48 -22.5 -136l-75 -279.5t-52.5 -216.5q0 -66 64 -66q90 0 145 158q13 36 19.5 55.5t10 26t11.5 6.5q17 0 17 -19zM649 1325q0 -41 -57 -78l-336 -207h-70l306 297q31 31 49.5 45.5t42.5 14.5q26 0 45.5 -18.5t19.5 -53.5z" />
    <glyph glyph-name="igrave" unicode="&#xec;" horiz-adv-x="645" 
d="M543 313q0 -27 -30.5 -109t-93.5 -151t-161 -69q-78 0 -122 49t-44 125q0 34 17.5 104.5t58 215l57.5 208.5t17 92q0 66 -64 66q-88 0 -147 -158q-14 -37 -21.5 -54.5t-17.5 -17.5q-17 0 -17 19q0 23 31 101.5t95 145t159 66.5q83 0 124.5 -44.5t41.5 -117.5
q0 -48 -22.5 -136l-75 -279.5t-52.5 -216.5q0 -66 64 -66q90 0 145 158q13 36 19.5 55.5t10 26t11.5 6.5q17 0 17 -19zM459 1040h-64l-276 213q-31 26 -40 39t-9 33q0 33 22.5 52.5t53.5 19.5q41 0 92 -66z" />
    <glyph glyph-name="icircumflex" unicode="&#xee;" horiz-adv-x="645" 
d="M543 313q0 -27 -30.5 -109t-93.5 -151t-161 -69q-78 0 -122 49t-44 125q0 34 17.5 104.5t58 215l57.5 208.5t17 92q0 66 -64 66q-88 0 -147 -158q-14 -37 -21.5 -54.5t-17.5 -17.5q-17 0 -17 19q0 23 31 101.5t95 145t159 66.5q83 0 124.5 -44.5t41.5 -117.5
q0 -48 -22.5 -136l-75 -279.5t-52.5 -216.5q0 -66 64 -66q90 0 145 158q13 36 19.5 55.5t10 26t11.5 6.5q17 0 17 -19zM600 1040h-74l-170 213l-282 -213h-80l324 349h100z" />
    <glyph glyph-name="idieresis" unicode="&#xef;" horiz-adv-x="645" 
d="M543 313q0 -27 -30.5 -109t-93.5 -151t-161 -69q-78 0 -122 49t-44 125q0 34 17.5 104.5t58 215l57.5 208.5t17 92q0 66 -64 66q-88 0 -147 -158q-14 -37 -21.5 -54.5t-17.5 -17.5q-17 0 -17 19q0 23 31 101.5t95 145t159 66.5q83 0 124.5 -44.5t41.5 -117.5
q0 -48 -22.5 -136l-75 -279.5t-52.5 -216.5q0 -66 64 -66q90 0 145 158q13 36 19.5 55.5t10 26t11.5 6.5q17 0 17 -19zM653 1176q0 -45 -29 -74t-73 -29t-73 29t-29 74q0 44 29 73t73 29q21 0 40.5 -8t32.5 -21t21 -32.5t8 -40.5zM248 1176q0 -45 -29 -74t-73 -29
q-45 0 -74 29t-29 74q0 44 29 73t74 29q21 0 40.5 -8t32.5 -21t21 -32.5t8 -40.5z" />
    <glyph glyph-name="ntilde" unicode="&#xf1;" horiz-adv-x="1251" 
d="M1159 313q0 -29 -27.5 -109t-92 -150t-169.5 -70q-80 0 -120.5 46t-40.5 122q0 35 10.5 85.5t45 200t48.5 216t14 102.5q0 53 -28.5 82.5t-83.5 29.5q-88 0 -164 -90t-124.5 -202.5t-70.5 -196.5l-94 -387q-52 12 -94 12q-39 0 -80 -12l71.5 346.5t57 289t19.5 140.5
q0 76 -64 76q-88 0 -147 -158q-14 -37 -21.5 -54.5t-17.5 -17.5q-17 0 -17 19q0 23 31 101.5t95 145t159 66.5q82 0 124 -46t42 -122q0 -74 -14 -139l4 -4q62 111 118 178t120.5 100t142.5 33q99 0 160 -63.5t61 -161.5q0 -47 -18.5 -128.5t-59.5 -248t-41 -192.5
q0 -66 63 -66q89 0 146 158q7 18 16 46.5t13 35t12 6.5q16 0 16 -19zM1032 1315q-15 -92 -66 -152.5t-128 -60.5q-35 0 -71.5 11.5t-88.5 35.5q-96 47 -147 47q-40 0 -68.5 -27.5t-36.5 -70.5h-61q47 217 200 217q62 0 166 -47q17 -8 49 -21.5t55 -19.5t40 -6
q42 0 63.5 23.5t36.5 70.5h57z" />
    <glyph glyph-name="oacute" unicode="&#xf3;" horiz-adv-x="1063" 
d="M924 528q0 -110 -38 -209.5t-109 -175t-170 -117.5t-214 -42q-116 0 -207 50.5t-140.5 146t-49.5 220.5q0 148 67 273t188.5 198.5t274.5 73.5q88 0 162.5 -29t127.5 -84t80.5 -132t27.5 -173zM739 639q0 91 -24 151t-70.5 89.5t-114.5 29.5q-113 0 -193 -97t-118.5 -241
t-38.5 -280q0 -271 209 -271q114 0 193 96t118 242t39 281zM905 1325q0 -41 -57 -78l-336 -207h-70l306 297q31 31 49.5 45.5t42.5 14.5q26 0 45.5 -18.5t19.5 -53.5z" />
    <glyph glyph-name="ograve" unicode="&#xf2;" horiz-adv-x="1063" 
d="M924 528q0 -110 -38 -209.5t-109 -175t-170 -117.5t-214 -42q-116 0 -207 50.5t-140.5 146t-49.5 220.5q0 148 67 273t188.5 198.5t274.5 73.5q88 0 162.5 -29t127.5 -84t80.5 -132t27.5 -173zM739 639q0 91 -24 151t-70.5 89.5t-114.5 29.5q-113 0 -193 -97t-118.5 -241
t-38.5 -280q0 -271 209 -271q114 0 193 96t118 242t39 281zM715 1040h-64l-276 213q-31 26 -40 39t-9 33q0 33 22.5 52.5t53.5 19.5q41 0 92 -66z" />
    <glyph glyph-name="ocircumflex" unicode="&#xf4;" horiz-adv-x="1063" 
d="M924 528q0 -110 -38 -209.5t-109 -175t-170 -117.5t-214 -42q-116 0 -207 50.5t-140.5 146t-49.5 220.5q0 148 67 273t188.5 198.5t274.5 73.5q88 0 162.5 -29t127.5 -84t80.5 -132t27.5 -173zM739 639q0 91 -24 151t-70.5 89.5t-114.5 29.5q-113 0 -193 -97t-118.5 -241
t-38.5 -280q0 -271 209 -271q114 0 193 96t118 242t39 281zM856 1040h-74l-170 213l-282 -213h-80l324 349h100z" />
    <glyph glyph-name="odieresis" unicode="&#xf6;" horiz-adv-x="1063" 
d="M924 528q0 -110 -38 -209.5t-109 -175t-170 -117.5t-214 -42q-116 0 -207 50.5t-140.5 146t-49.5 220.5q0 148 67 273t188.5 198.5t274.5 73.5q88 0 162.5 -29t127.5 -84t80.5 -132t27.5 -173zM739 639q0 91 -24 151t-70.5 89.5t-114.5 29.5q-113 0 -193 -97t-118.5 -241
t-38.5 -280q0 -271 209 -271q114 0 193 96t118 242t39 281zM909 1176q0 -45 -29 -74t-73 -29t-73 29t-29 74q0 44 29 73t73 29q21 0 40.5 -8t32.5 -21t21 -32.5t8 -40.5zM504 1176q0 -45 -29 -74t-73 -29q-45 0 -74 29t-29 74q0 44 29 73t74 29q21 0 40.5 -8t32.5 -21
t21 -32.5t8 -40.5z" />
    <glyph glyph-name="otilde" unicode="&#xf5;" horiz-adv-x="1063" 
d="M924 528q0 -110 -38 -209.5t-109 -175t-170 -117.5t-214 -42q-116 0 -207 50.5t-140.5 146t-49.5 220.5q0 148 67 273t188.5 198.5t274.5 73.5q88 0 162.5 -29t127.5 -84t80.5 -132t27.5 -173zM739 639q0 91 -24 151t-70.5 89.5t-114.5 29.5q-113 0 -193 -97t-118.5 -241
t-38.5 -280q0 -271 209 -271q114 0 193 96t118 242t39 281zM950 1315q-15 -92 -66 -152.5t-128 -60.5q-35 0 -71.5 11.5t-88.5 35.5q-96 47 -147 47q-40 0 -68.5 -27.5t-36.5 -70.5h-61q47 217 200 217q62 0 166 -47q17 -8 49 -21.5t55 -19.5t40 -6q42 0 63.5 23.5
t36.5 70.5h57z" />
    <glyph glyph-name="uacute" unicode="&#xfa;" horiz-adv-x="1251" 
d="M1151 313q0 -26 -28.5 -108t-94.5 -151.5t-170 -69.5q-77 0 -117.5 46.5t-40.5 121.5q0 40 15 143l-4 4q-85 -165 -177.5 -240t-203.5 -75q-102 0 -161.5 59.5t-59.5 165.5q0 34 13 98.5t49.5 215t46 193t9.5 62.5q0 66 -63 66q-89 0 -146 -158q-6 -17 -15 -45.5
t-13.5 -35.5t-12.5 -7q-16 0 -16 18q0 28 29.5 109t94 151t161.5 70q79 0 122.5 -46.5t43.5 -121.5q0 -46 -15 -116.5t-49 -216.5t-44.5 -195.5t-10.5 -85.5q0 -46 27.5 -74.5t76.5 -28.5q92 0 169.5 90t126.5 202t71 198l94 387q53 -12 94 -12t80 12l-42 -206l-54.5 -266
t-38.5 -203t-12 -103q0 -74 63 -74q89 0 146 158q7 18 16 46.5t13 35t12 6.5q16 0 16 -19zM987 1325q0 -41 -57 -78l-336 -207h-70l306 297q31 31 49.5 45.5t42.5 14.5q26 0 45.5 -18.5t19.5 -53.5z" />
    <glyph glyph-name="ugrave" unicode="&#xf9;" horiz-adv-x="1251" 
d="M1151 313q0 -26 -28.5 -108t-94.5 -151.5t-170 -69.5q-77 0 -117.5 46.5t-40.5 121.5q0 40 15 143l-4 4q-85 -165 -177.5 -240t-203.5 -75q-102 0 -161.5 59.5t-59.5 165.5q0 34 13 98.5t49.5 215t46 193t9.5 62.5q0 66 -63 66q-89 0 -146 -158q-6 -17 -15 -45.5
t-13.5 -35.5t-12.5 -7q-16 0 -16 18q0 28 29.5 109t94 151t161.5 70q79 0 122.5 -46.5t43.5 -121.5q0 -46 -15 -116.5t-49 -216.5t-44.5 -195.5t-10.5 -85.5q0 -46 27.5 -74.5t76.5 -28.5q92 0 169.5 90t126.5 202t71 198l94 387q53 -12 94 -12t80 12l-42 -206l-54.5 -266
t-38.5 -203t-12 -103q0 -74 63 -74q89 0 146 158q7 18 16 46.5t13 35t12 6.5q16 0 16 -19zM797 1040h-64l-276 213q-31 26 -40 39t-9 33q0 33 22.5 52.5t53.5 19.5q41 0 92 -66z" />
    <glyph glyph-name="ucircumflex" unicode="&#xfb;" horiz-adv-x="1251" 
d="M1151 313q0 -26 -28.5 -108t-94.5 -151.5t-170 -69.5q-77 0 -117.5 46.5t-40.5 121.5q0 40 15 143l-4 4q-85 -165 -177.5 -240t-203.5 -75q-102 0 -161.5 59.5t-59.5 165.5q0 34 13 98.5t49.5 215t46 193t9.5 62.5q0 66 -63 66q-89 0 -146 -158q-6 -17 -15 -45.5
t-13.5 -35.5t-12.5 -7q-16 0 -16 18q0 28 29.5 109t94 151t161.5 70q79 0 122.5 -46.5t43.5 -121.5q0 -46 -15 -116.5t-49 -216.5t-44.5 -195.5t-10.5 -85.5q0 -46 27.5 -74.5t76.5 -28.5q92 0 169.5 90t126.5 202t71 198l94 387q53 -12 94 -12t80 12l-42 -206l-54.5 -266
t-38.5 -203t-12 -103q0 -74 63 -74q89 0 146 158q7 18 16 46.5t13 35t12 6.5q16 0 16 -19zM938 1040h-74l-170 213l-282 -213h-80l324 349h100z" />
    <glyph glyph-name="udieresis" unicode="&#xfc;" horiz-adv-x="1251" 
d="M1151 313q0 -26 -28.5 -108t-94.5 -151.5t-170 -69.5q-77 0 -117.5 46.5t-40.5 121.5q0 40 15 143l-4 4q-85 -165 -177.5 -240t-203.5 -75q-102 0 -161.5 59.5t-59.5 165.5q0 34 13 98.5t49.5 215t46 193t9.5 62.5q0 66 -63 66q-89 0 -146 -158q-6 -17 -15 -45.5
t-13.5 -35.5t-12.5 -7q-16 0 -16 18q0 28 29.5 109t94 151t161.5 70q79 0 122.5 -46.5t43.5 -121.5q0 -46 -15 -116.5t-49 -216.5t-44.5 -195.5t-10.5 -85.5q0 -46 27.5 -74.5t76.5 -28.5q92 0 169.5 90t126.5 202t71 198l94 387q53 -12 94 -12t80 12l-42 -206l-54.5 -266
t-38.5 -203t-12 -103q0 -74 63 -74q89 0 146 158q7 18 16 46.5t13 35t12 6.5q16 0 16 -19zM991 1176q0 -45 -29 -74t-73 -29t-73 29t-29 74q0 44 29 73t73 29q21 0 40.5 -8t32.5 -21t21 -32.5t8 -40.5zM586 1176q0 -45 -29 -74t-73 -29q-45 0 -74 29t-29 74q0 44 29 73
t74 29q21 0 40.5 -8t32.5 -21t21 -32.5t8 -40.5z" />
    <glyph glyph-name="dagger" unicode="&#x2020;" horiz-adv-x="1024" 
d="M946 969q0 -45 -32.5 -71t-92.5 -26q-39 0 -114 33t-113 33q-59 0 -59 -61q0 -33 2.5 -55t11 -47.5t24.5 -45.5q-57 -115 -89 -195t-60.5 -180t-55 -222t-67.5 -345h-49q42 209 67.5 351t41.5 257.5t22 190.5t6 141q109 109 109 174q0 37 -60 37q-32 0 -113.5 -28.5
t-123.5 -28.5q-90 0 -90 71q0 47 36 74t99 27q26 0 55.5 -10.5t60 -26.5t58 -28.5t45.5 -12.5q33 0 46 25t13 79q0 24 -13 82.5t-13 91.5q0 69 35 118.5t90 49.5q84 0 84 -86q0 -49 -26 -98t-73 -121.5t-47 -95.5q0 -45 39 -45q24 0 52 8t94 32t88 31t36 7q36 0 56 -24.5
t20 -59.5z" />
    <glyph glyph-name="degree" unicode="&#xb0;" horiz-adv-x="819" 
d="M709 1114q0 -80 -39 -146.5t-105.5 -105.5t-146.5 -39t-146.5 39t-105.5 105.5t-39 146.5t39 146.5t105.5 105.5t146.5 39t146.5 -39t105.5 -105.5t39 -146.5zM606 1114q0 54 -25.5 100.5t-68.5 73.5t-94 27q-80 0 -134.5 -58.5t-54.5 -142.5q0 -85 55 -143t134 -58
q78 0 133 58t55 143z" />
    <glyph glyph-name="cent" unicode="&#xa2;" 
d="M1073 1360l-205 -281q93 -88 93 -182q0 -58 -30 -95.5t-87 -37.5q-34 0 -55 21t-21 55q0 22 8 70t8 67h-4l-385 -533q30 -27 80 -44t94 -17q81 0 137 23t87 51t55 58t33 30q12 0 12 -19q0 -16 -26 -58.5t-78 -90.5t-127 -80.5t-173 -32.5q-101 0 -194 51l-205 -282h-70
l230 313q-129 112 -129 301q0 140 80 255.5t202 182t238 66.5q94 0 176 -43l187 252h69zM770 1044q-12 27 -47 48.5t-84 21.5q-97 0 -175.5 -67t-122.5 -165t-44 -190q0 -74 13 -111.5t44 -91.5z" />
    <glyph glyph-name="sterling" unicode="&#xa3;" 
d="M1114 1337q0 -13 -14 -86l-66 -315q-8 -39 -26 -39q-19 0 -19 21q0 10 2 27t2 26q0 120 -34.5 209t-97.5 138.5t-144 49.5q-61 0 -119 -33t-95.5 -93t-37.5 -134q0 -43 16 -77t53 -84t66.5 -102.5t48.5 -119.5h281l-12 -78h-259q0 -103 -28 -179t-67 -129t-111 -138
q61 -43 95 -60.5t89 -17.5q101 0 157.5 58t79.5 130t38 151t26 79q20 0 20 -25q0 -55 -17 -142.5t-61 -182t-126 -159.5t-201 -65q-108 0 -221 121q-115 -92 -215 -92q-88 0 -135.5 43t-47.5 127q0 80 63 138t153 58q58 0 128.5 -35t143.5 -98q64 70 97.5 128t33.5 122
q0 32 -7.5 62t-20.5 57t-25 49h-340l10 78h268q-63 69 -92 135t-29 144q0 86 52.5 180t146.5 157.5t205 63.5q70 0 117 -19.5t104.5 -53.5t79.5 -34t30 9t20 29t24 20q18 0 18 -19zM305 119q-73 97 -112.5 131.5t-90.5 34.5q-52 0 -85 -33t-33 -84q0 -123 135 -123
q102 0 186 74z" />
    <glyph glyph-name="section" unicode="&#xa7;" horiz-adv-x="1024" 
d="M913 1372q0 -1 -4.5 -29.5t-12.5 -69t-17 -91.5q-13 -79 -19.5 -122t-11.5 -58t-17 -15q-16 0 -26 64t-23 120q-12 50 -42 95.5t-79 75.5t-116 30q-87 0 -137 -54t-50 -126q0 -69 55.5 -122.5t182.5 -144.5t192.5 -166t65.5 -169q0 -57 -28.5 -115t-92.5 -103t-166 -61
q78 -63 114 -118.5t36 -137.5q0 -77 -51.5 -148t-150 -114t-228.5 -43q-73 0 -127 15.5t-105.5 38t-66.5 22.5q-28 0 -40 -9.5t-26.5 -27.5t-23.5 -18q-15 0 -15 14q0 7 6 45q23 120 39 217q13 70 19 108.5t10 55t7.5 21t12.5 4.5q10 0 12.5 -9.5t7.5 -45t17 -107.5
q14 -71 56.5 -134.5t107.5 -102t139 -38.5q102 0 158.5 55.5t56.5 139.5q0 81 -60.5 137t-184 134.5t-187 147t-63.5 169.5q0 81 41.5 142t111 97t148.5 47q-85 62 -120.5 123t-35.5 139q0 69 42.5 137t119.5 111t170 43q72 0 120 -15.5t103.5 -41t75.5 -25.5
q29 0 52.5 21.5t31.5 21.5q16 0 16 -10zM690 522q0 46 -25 85.5t-67.5 76t-108.5 81l-114 77.5q-88 -33 -125 -81.5t-37 -115.5q0 -44 29.5 -86t96.5 -93.5t189 -125.5q70 22 116 72t46 110z" />
    <glyph glyph-name="bullet" unicode="&#x2022;" horiz-adv-x="1024" 
d="M803 694q0 -93 -46.5 -173t-126.5 -126.5t-173 -46.5q-94 0 -173 46.5t-126 126.5t-47 173q0 94 46.5 173.5t126 126t173.5 46.5q93 0 173 -47t126.5 -126t46.5 -173z" />
    <glyph glyph-name="paragraph" unicode="&#xb6;" horiz-adv-x="1229" 
d="M1214 1389l-10 -50q-96 -3 -138.5 -31t-57.5 -96l-338 -1499h-119l364 1614h-122l-365 -1614h-119l189 834q-169 0 -249.5 83t-80.5 218q0 129 38 229.5t107.5 169.5t169.5 105.5t224 36.5h507z" />
    <glyph glyph-name="germandbls" unicode="&#xdf;" 
d="M991 1245q0 -98 -43 -164.5t-114.5 -113.5l-110.5 -71t-39 -48q0 -29 43.5 -60.5l107.5 -77t106 -117.5t42 -177q0 -96 -37 -179t-102 -143.5t-150.5 -93.5t-179.5 -33q-102 0 -163.5 41.5t-61.5 122.5q0 45 31 81t83 36q45 0 70 -24t25 -54q0 -14 -5.5 -28.5t-14 -29
t-17 -31.5t-8.5 -26q0 -51 79 -51q155 0 203 176q21 77 31 126t17.5 100.5t7.5 74.5q0 69 -22.5 116t-52 80l-59.5 69t-30 71q0 52 20.5 78t84 94.5t94 133t30.5 167.5q0 156 -131 156q-63 0 -115.5 -34t-89 -93t-51.5 -127l-268 -1192q-85 0 -186 -2t-113 -2q-23 0 -23 24
q0 17 47 25t77 22.5t42 65.5l150 668h-146q87 53 173.5 188.5l155 246t154 185t207.5 74.5q109 0 180.5 -67.5t71.5 -182.5z" />
    <glyph glyph-name="registered" unicode="&#xae;" horiz-adv-x="1638" 
d="M1499 694q0 -151 -53.5 -282.5t-152 -232t-228 -156.5t-279.5 -56q-199 0 -361.5 96.5t-256.5 264t-94 366.5q0 151 54.5 285t150 231.5t228 154t279.5 56.5q148 0 280 -56t228 -154.5t150.5 -231.5t54.5 -285zM1360 694q0 165 -76.5 309.5t-208.5 230t-289 85.5
t-288.5 -85.5t-208 -230t-76.5 -309.5q0 -123 44 -236.5t122.5 -201t184 -137t222.5 -49.5q156 0 288.5 85t209 229.5t76.5 309.5zM1176 319h-166q-28 0 -55.5 39.5t-82 140t-94.5 160.5h-73v-217q0 -37 6 -53.5t25.5 -23t70.5 -9.5v-37h-365v37q50 3 70.5 9.5t26.5 22.5
t6 54v533q0 54 -16 68t-87 18v37h400q99 0 167 -54t68 -147q0 -73 -44 -130t-120 -83l119 -168q80 -115 144 -172v-25zM905 901q0 148 -131 148h-69v-340h69q57 0 94 49.5t37 142.5z" />
    <glyph glyph-name="copyright" unicode="&#xa9;" horiz-adv-x="1638" 
d="M1499 694q0 -151 -53.5 -282.5t-152 -232t-228 -156.5t-279.5 -56q-199 0 -361.5 96.5t-256.5 264t-94 366.5q0 151 54.5 285t150 231.5t228 154t279.5 56.5q148 0 280 -56t228 -154.5t150.5 -231.5t54.5 -285zM1360 694q0 165 -76.5 309.5t-208.5 230t-289 85.5
t-288.5 -85.5t-208 -230t-76.5 -309.5q0 -123 44 -236.5t122.5 -201t184 -137t222.5 -49.5q156 0 288.5 85t209 229.5t76.5 309.5zM1135 532l-33 -161q-1 -11 -45 -28.5t-107 -30.5t-123 -13q-97 0 -178.5 25.5t-143 79.5t-93 132.5t-31.5 180.5q0 86 31 160.5t88.5 128.5
t144.5 85t199 31q93 0 175.5 -25t82.5 -53v-151h-37q-24 85 -80.5 132.5t-142.5 47.5q-71 0 -129 -38t-92.5 -116t-34.5 -192q0 -379 260 -379q88 0 151.5 50.5t100.5 133.5h37z" />
    <glyph glyph-name="trademark" unicode="&#x2122;" horiz-adv-x="2028" 
d="M1954 1339q-64 -3 -89.5 -31.5t-25.5 -82.5v-477v-21q0 -44 5.5 -58.5t23 -19.5t71.5 -10v-49h-333v37q50 5 67.5 11t22 21t4.5 64v25v423h-4l-310 -589h-18l-311 616h-4v-434q0 -65 21.5 -92t84.5 -33v-49h-266v49q64 6 83 31.5t19 93.5v475q0 28 -21 51t-53 36t-61 13
v50h256l301 -584l316 584h221v-50zM766 1202h-41q-30 137 -135 137h-101v-591v-21q0 -41 5.5 -57t23.5 -21t72 -10v-49h-338v49q53 5 71 10.5t22.5 21t4.5 64.5v13v591h-98q-106 0 -139 -137h-41v187h694v-187z" />
    <glyph glyph-name="acute" unicode="&#xb4;" horiz-adv-x="645" 
d="M696 1325q0 -41 -57 -78l-336 -207h-70l306 297q31 31 49.5 45.5t42.5 14.5q26 0 45.5 -18.5t19.5 -53.5z" />
    <glyph glyph-name="dieresis" unicode="&#xa8;" horiz-adv-x="645" 
d="M700 1176q0 -45 -29 -74t-73 -29t-73 29t-29 74q0 44 29 73t73 29q21 0 40.5 -8t32.5 -21t21 -32.5t8 -40.5zM295 1176q0 -45 -29 -74t-73 -29q-45 0 -74 29t-29 74q0 44 29 73t74 29q21 0 40.5 -8t32.5 -21t21 -32.5t8 -40.5z" />
    <glyph glyph-name="notequal" unicode="&#x2260;" horiz-adv-x="1124" 
d="M1087 289h-602l-163 -289h-111l166 289h-340v96h393l158 279h-551v96h604l164 291h108l-163 -291h337v-96h-391l-155 -279h546v-96z" />
    <glyph glyph-name="AE" unicode="&#xc6;" horiz-adv-x="1972" 
d="M1878 954q0 -15 -5.5 -20.5t-17.5 -5.5t-17.5 10t-12 34l-15.5 58q-33 124 -100.5 191.5t-180 94.5t-292.5 27l-137 -614q87 0 147.5 16.5t101 48t70.5 76.5q17 25 28 56t19.5 65t14 45t16.5 11q16 0 16 -17q0 -22 -8.5 -64l-52.5 -251l-42 -201.5t-23 -105t-17 -52
t-18 -10.5t-15 7t-4 20q0 14 3 32q7 49 7 70q0 96 -52 150.5t-201 54.5l-52 -241.5l-42.5 -196t-12 -63t-4.5 -48.5q0 -86 139 -86q285 0 518 223q39 38 69 82.5t57 95.5t40 71t25 20q18 0 18 -19q0 -13 -56 -145l-155 -377q-87 0 -142 0.5t-111.5 1.5t-128 1.5t-175.5 0.5
q-87 0 -148 -0.5t-108 -1.5t-86.5 -1.5t-91.5 -0.5q-38 0 -48.5 4t-10.5 16q0 20 53.5 30.5t86.5 26t46 72.5l127 535h-463l-175.5 -216t-133 -170t-29.5 -99q0 -60 21 -92.5t55.5 -44t54 -16t19.5 -17.5q0 -29 -33 -29q-42 0 -127 2t-129 2q-46 0 -125 -2t-106 -2
q-32 0 -43 5t-11 22q0 14 30.5 24t74 30.5t116.5 81t168 173.5l435 508.5l268.5 312.5t63.5 82.5t20 54.5q0 32 -14 38.5t-52.5 14t-38.5 25.5q0 25 43 25q75 0 139.5 -0.5t122 -1t116.5 -1.5t149 -1q87 0 142 1t109 1.5t118.5 1t148.5 0.5q25 -233 36 -321.5t11 -117.5z
M1042 1341h-61l-512 -612h438z" />
    <glyph glyph-name="Oslash" unicode="&#xd8;" horiz-adv-x="1593" 
d="M1483 815q0 -196 -72.5 -354.5t-194 -269t-265 -167.5t-283.5 -57q-170 0 -310 78l-147 -217h-94l176 260q-117 85 -182.5 213t-65.5 272q0 197 73 356t193.5 268t265 166.5t283.5 57.5q160 0 287 -65l123 180h96l-149 -221q83 -57 142.5 -134.5t91.5 -170.5t32 -195z
M1266 913q0 212 -97 332l-770 -1141q101 -88 273 -88q143 0 256 80.5t188 212.5t112.5 289.5t37.5 314.5zM1110 1300q-98 72 -254 72q-143 0 -254.5 -79t-187.5 -212.5t-114 -290.5t-38 -315q0 -195 82 -309z" />
    <glyph glyph-name="infinity" unicode="&#x221e;" horiz-adv-x="1460" 
d="M1407 526q0 -186 -115 -307q-50 -53 -111.5 -83t-123.5 -30q-60 0 -112 25t-101.5 80t-98.5 139l-24 43q-44 -83 -90.5 -134.5t-103 -75t-130.5 -23.5q-100 0 -177.5 47t-122 132t-44.5 189q0 102 40.5 186.5t110.5 132.5t156 48q112 0 183 -68q54 -54 110 -159
q48 108 95 166q95 110 276 110q72 0 128 -19.5t110 -64.5q145 -124 145 -334zM1350 526q0 90 -38 169.5t-104 125t-141 45.5q-104 0 -172 -84q-29 -36 -54.5 -92t-78.5 -196l-12 -29q49 -101 93 -156.5t97.5 -81.5t120.5 -26q83 0 149 41.5t103 115.5t37 168zM625 590
q-38 80 -75 125t-84.5 67.5t-107.5 22.5q-74 0 -130 -35t-87.5 -97t-31.5 -143q0 -79 30.5 -147t83 -106.5t115.5 -38.5q60 0 115 36.5t84 92.5q39 77 77 190z" />
    <glyph glyph-name="plusminus" unicode="&#xb1;" horiz-adv-x="1229" 
d="M1020 512h-402v-313h-126v313h-402v127h402v291h126v-291h402v-127zM1020 0h-930v127h930v-127z" />
    <glyph glyph-name="lessequal" unicode="&#x2264;" horiz-adv-x="1124" 
d="M1065 221l-1006 498v51l1006 502v-111l-842 -416l842 -417v-107zM1065 0h-1006v96h1006v-96z" />
    <glyph glyph-name="greaterequal" unicode="&#x2265;" horiz-adv-x="1124" 
d="M1065 723l-1006 -502v111l842 416l-842 417v107l1006 -498v-51zM1065 0h-1006v96h1006v-96z" />
    <glyph glyph-name="yen" unicode="&#xa5;" 
d="M1329 1364q0 -14 -16 -20l-54.5 -20.5t-91 -51t-123.5 -111.5l-86 -94l-89 -101l-63.5 -73l-98.5 -113h270l-14 -78h-324l-43 -49l-31 -137h371l-14 -78h-373q-1 -7 -27.5 -121.5l-30.5 -131.5t-4 -33q0 -63 31 -80t79 -23t48 -24q0 -17 -7 -23t-30 -6q-44 0 -119 2
t-110 2q-45 0 -133 -2t-131 -2q-25 0 -25 24q0 19 33 26l72 15t71.5 35t44.5 86l58 256h-320l14 78h322l31 135l-19 51h-307l14 78h265l-170 475q-11 33 -34.5 49.5t-49.5 23t-46 13.5t-20 23t10 22.5t41 6.5t109 -2t121 -2q35 0 107 2t108 2q35 0 35 -27q0 -19 -53.5 -26
t-85 -21t-31.5 -68q0 -28 12 -68t52.5 -156.5l105.5 -305.5q143 154 230 260.5t117.5 164t30.5 101.5q0 51 -19.5 65.5t-54 24t-34.5 27.5q0 29 37 29q42 0 122 -2t121 -2q29 0 84 2t82 2q33 0 33 -29z" />
    <glyph glyph-name="uni00B5" unicode="&#xb5;" horiz-adv-x="1251" 
d="M1151 313q0 -26 -28.5 -108t-94.5 -151.5t-170 -69.5q-77 0 -117.5 46.5t-40.5 121.5q0 40 15 143l-4 4q-85 -165 -177.5 -240t-203.5 -75q-43 0 -80 10q-17 -61 -38 -160t-34 -142.5t-35.5 -66t-62.5 -22.5q-41 0 -65.5 25.5t-24.5 64.5q0 24 7 62t26 118.5t22 91.5
l131 582l35.5 144t15.5 87q0 66 -63 66q-89 0 -146 -158q-6 -17 -15 -45.5t-13.5 -35.5t-12.5 -7q-16 0 -16 18q0 28 29.5 109t94 151t161.5 70q79 0 122.5 -46.5t43.5 -121.5q0 -46 -15 -116.5t-49 -216.5t-44.5 -195.5t-10.5 -85.5q0 -46 27.5 -74.5t76.5 -28.5
q92 0 169.5 90t126.5 202t71 198l94 387q53 -12 94 -12t80 12l-42 -206l-54.5 -266t-38.5 -203t-12 -103q0 -74 63 -74q89 0 146 158q7 18 16 46.5t13 35t12 6.5q16 0 16 -19z" />
    <glyph glyph-name="partialdiff" unicode="&#x2202;" horiz-adv-x="1012" 
d="M995 920q0 -140 -28 -281t-81.5 -263.5t-127.5 -219.5q-143 -187 -355 -187q-154 0 -245.5 91.5t-91.5 244.5q0 157 76.5 296.5t203.5 222.5t270 83q106 0 189 -51q44 -27 72 -58t51 -81h4q10 147 10 186q0 117 -41.5 202t-120 130t-184.5 45q-100 0 -171.5 -37.5
t-129.5 -122.5h-45q35 74 61.5 116t63.5 79q49 51 117 79.5t137 28.5q47 0 94 -13.5t88 -39.5t70 -59q114 -130 114 -391zM911 629q-36 105 -111 165t-173 60q-81 0 -157.5 -49t-121.5 -127q-33 -57 -60 -132t-41 -146.5t-14 -135.5q0 -108 53.5 -172.5t143.5 -64.5
q72 0 152 49.5t147 136.5q70 93 112 188.5t70 227.5z" />
    <glyph glyph-name="summation" unicode="&#x2211;" horiz-adv-x="1460" 
d="M1419 212l-63 -416h-1313v37l670 831l-670 814v39h1278l27 -338h-39q-16 133 -76 194.5t-174 61.5h-740l562 -685l-629 -778h819q54 0 114.5 17t90.5 39q36 25 60.5 71t43.5 121z" />
    <glyph glyph-name="product" unicode="&#x220f;" horiz-adv-x="1686" 
d="M1640 -204h-598v37h35q87 0 125.5 37.5t38.5 118.5v1450h-797v-1450q0 -79 39.5 -117.5t122.5 -38.5h37v-37h-598v37h35q87 0 125.5 37.5t38.5 118.5v1335q0 83 -38.5 119.5t-125.5 36.5h-35v37h1595v-37h-34q-85 0 -124.5 -36.5t-39.5 -119.5v-1335q0 -81 39.5 -118.5
t124.5 -37.5h34v-37z" />
    <glyph glyph-name="uniF006" unicode="&#xf006;" horiz-adv-x="1124" 
d="M1049 258q-7 -61 -18.5 -104.5t-31.5 -79.5q-24 -48 -66.5 -76.5t-90.5 -28.5q-35 0 -69.5 16.5t-53.5 43.5q-32 44 -46 107.5t-14 168.5q0 62 7 158q3 27 5 52.5t9 98.5l5.5 48l6.5 55l6 53h-260l-4 -61q-17 -294 -39.5 -450t-58.5 -223t-94 -67q-34 0 -59 25t-25 59
q0 27 12 52t43 67q46 59 68.5 113t37.5 143q15 85 22.5 160.5t12.5 181.5h-45q-50 0 -74 -6.5t-51 -26.5q-46 -36 -90 -110h-39q52 160 116.5 224t174.5 64h703v-145h-242q-17 -109 -26 -222.5t-9 -215.5q0 -93 33 -142t92 -49q97 0 117 117h35z" />
    <glyph glyph-name="integral" unicode="&#x222b;" horiz-adv-x="561" 
d="M561 1755q0 -29 -12.5 -53t-34 -36.5t-47.5 -12.5q-36 0 -76 35q-20 20 -39 20q-41 0 -41 -63q0 -46 11 -146q18 -204 27 -371t9 -294l-2 -121l-14 -471q-6 -190 -49 -320q-22 -67 -68 -104t-106 -37q-54 0 -86.5 33.5t-32.5 87.5q0 44 25 71t65 27q42 0 70 -33
q13 -14 24 -22t25 -8q39 0 39 61q0 37 -10 119q-20 170 -29 395q-3 104 -6 229q-2 70 -2 154l16 553q6 191 66 317q19 40 63.5 69.5t87.5 29.5q31 0 61.5 -15t48 -41t17.5 -53z" />
    <glyph glyph-name="ordfeminine" unicode="&#xaa;" horiz-adv-x="705" 
d="M754 1034q0 -18 -17.5 -68.5t-60 -94.5t-111.5 -44q-110 0 -110 93q0 32 4 59l-4 2q-21 -36 -52.5 -69t-83 -59t-118.5 -26q-85 0 -129.5 49t-44.5 132q0 114 56.5 204t140 141.5t155.5 51.5q120 0 158 -109l79 59t47 34.5t21 7.5q14 0 14 -8q0 -11 -27 -70.5t-36 -104.5
q-28 -130 -38 -173t-14.5 -64t-4.5 -33q0 -35 36 -35q24 0 41 19.5t29.5 48t25 53.5t23.5 25q21 0 21 -21zM496 1233q0 65 -29 100t-80 35q-78 0 -128.5 -76t-71.5 -168t-21 -137q0 -98 84 -98q67 0 122.5 62t89.5 144.5t34 137.5z" />
    <glyph glyph-name="ordmasculine" unicode="&#xba;" horiz-adv-x="637" 
d="M645 1155q0 -67 -24 -126t-71.5 -105.5t-111 -71.5t-137.5 -25q-117 0 -187.5 68.5t-70.5 183.5q0 88 43.5 163.5t122.5 119t178 43.5q117 0 187.5 -67.5t70.5 -182.5zM489 1241q0 56 -30 91.5t-70 35.5q-58 0 -100.5 -57t-66 -146t-23.5 -172q0 -62 26.5 -95.5
t73.5 -33.5q57 0 100.5 56t66.5 145.5t23 175.5z" />
    <glyph glyph-name="uni2126" unicode="&#x2126;" horiz-adv-x="1573" 
d="M1518 0h-568l23 279q97 39 158 102t89.5 154.5t28.5 218.5q0 259 -123 405q-64 76 -152 117t-192 41q-102 0 -187 -39.5t-147 -112.5t-95.5 -175t-33.5 -222q0 -133 38 -242.5t106 -171.5q31 -28 57 -42.5t76 -32.5l22 -279h-563v279h35q3 -61 31 -82q26 -20 55.5 -27.5
t83.5 -7.5h270v69q-137 40 -236.5 118.5t-150.5 190t-51 248.5q0 130 50.5 241t142.5 191t218.5 123t278.5 43q154 0 283.5 -43.5t221 -121.5t143 -189.5t51.5 -243.5q0 -137 -54.5 -253t-154.5 -195.5t-230 -108.5l-8 -69h275q88 0 125 24.5t45 92.5h39v-279z" />
    <glyph glyph-name="ae" unicode="&#xe6;" horiz-adv-x="1403" 
d="M1313 778q0 -84 -95 -156t-230.5 -122.5t-282.5 -81.5q0 -110 42 -182.5t107 -103t137 -30.5q65 0 117.5 21.5t84.5 47.5t59.5 54.5t35.5 28.5q12 0 12 -14q0 -12 -27 -54t-78 -89t-127 -80t-171 -33q-100 0 -189.5 56.5t-144.5 145.5q-56 -39 -131.5 -85.5t-159.5 -81.5
t-153 -35q-164 0 -164 178q0 97 68.5 164.5t185 121t358.5 148.5q43 165 43 240q0 34 -18.5 47.5t-63.5 13.5q-56 0 -112.5 -39.5t-98.5 -107.5l-36 -62t-40 -64t-37.5 -34t-47.5 -12q-76 0 -76 67q0 64 86.5 134.5t209 118.5t218.5 48q79 0 116 -22.5t58 -71.5
q90 43 163 68.5t142 25.5q74 0 128 -20.5t83 -58.5t29 -89zM1157 784q0 57 -30 85t-97 28q-58 0 -116 -34t-102 -92t-73.5 -140.5t-33.5 -173.5q159 34 260.5 85t146.5 111.5t45 130.5zM557 545q-133 -50 -210 -87t-123 -77t-65.5 -93t-19.5 -132q0 -54 20.5 -74.5
t65.5 -20.5q91 0 264 123z" />
    <glyph glyph-name="oslash" unicode="&#xf8;" horiz-adv-x="1063" 
d="M924 528q0 -110 -38 -209.5t-109 -175t-170 -117.5t-214 -42q-120 0 -203 49l-135 -201h-78l162 238q-143 107 -143 331q0 148 67 273t188.5 198.5t274.5 73.5q108 0 183 -39l120 178h78l-143 -208q160 -115 160 -349zM674 856q-53 53 -144 53q-113 0 -193 -97
t-118.5 -241t-38.5 -280q0 -79 19 -133zM739 639q0 97 -28 158l-480 -705q51 -72 158 -72q114 0 193 96t118 242t39 281z" />
    <glyph glyph-name="questiondown" unicode="&#xbf;" horiz-adv-x="1214" 
d="M883 913q0 -64 -37.5 -101.5t-93.5 -37.5q-43 0 -71 24t-28 66q0 62 37 101t94 39q43 0 71 -24t28 -67zM795 -258q0 -46 -43.5 -86.5t-118 -65t-166.5 -24.5q-128 0 -231 45.5t-159.5 131t-56.5 200.5q0 111 59.5 218.5t166 174.5t237.5 67q67 0 168 -22q14 41 28.5 89.5
t22 62.5t19.5 14q20 0 20 -15q0 -5 -4.5 -49.5t-8 -95t-3.5 -96.5q0 -48 8 -162l-71 -14q-18 60 -80.5 94.5t-135.5 34.5q-123 0 -205 -54t-120.5 -131t-38.5 -141q0 -79 37 -143t98.5 -99.5t128.5 -35.5q68 0 110.5 23t91 70.5t78.5 68t79 20.5q42 0 66 -22.5t24 -57.5z
" />
    <glyph glyph-name="exclamdown" unicode="&#xa1;" horiz-adv-x="758" 
d="M524 913q0 -64 -36.5 -101.5t-94.5 -37.5q-42 0 -70 24t-28 66q0 64 36.5 102t94.5 38q42 0 70 -24t28 -67zM367 571q0 -15 -14 -79t-27.5 -175.5t-24.5 -363.5q-17 -387 -184 -387q-92 0 -92 110q0 56 21 121.5t76.5 198l89 218.5t71.5 216l31.5 114.5t14.5 40.5t17 9
q21 0 21 -23z" />
    <glyph glyph-name="logicalnot" unicode="&#xac;" horiz-adv-x="1229" 
d="M1020 219h-127v365h-803v127h930v-492z" />
    <glyph glyph-name="radical" unicode="&#x221a;" horiz-adv-x="1124" 
d="M1124 1870l-311 -1948l-496 1022l-198 -92l-35 63l301 152l403 -823h5l258 1626h73z" />
    <glyph glyph-name="florin" unicode="&#x192;" 
d="M1184 1358q0 -44 -26.5 -84.5t-88.5 -40.5q-40 0 -65 28t-25 80q0 14 2 37t2 33q0 23 -45 23q-59 0 -113.5 -37.5t-98.5 -107.5t-73 -161.5t-39 -197.5h228l-45 -103h-201q-55 -225 -116 -427.5t-143.5 -384t-196.5 -297t-257 -115.5q-63 0 -96 28.5t-33 73.5
q0 52 31 85.5t90 33.5q43 0 65.5 -18t50 -51.5t44.5 -33.5q68 0 110.5 76t62 160t81.5 378.5t117 491.5h-162q76 50 170 167.5l189.5 237.5t194.5 191.5t218 71.5q73 0 120.5 -36t47.5 -101z" />
    <glyph glyph-name="approxequal" unicode="&#x2248;" horiz-adv-x="1124" 
d="M1073 874q-20 -152 -93.5 -236.5t-188.5 -84.5q-56 0 -123.5 26.5t-180.5 90.5q-140 78 -211 78q-72 0 -118.5 -49.5t-59.5 -137.5h-47q20 151 93 236.5t182 85.5q48 0 123 -25q56 -21 208 -102q118 -62 193 -62q41 0 68.5 13.5t54.5 46.5q39 47 49 120h51zM1073 487
q-20 -152 -93.5 -236.5t-188.5 -84.5q-56 0 -121 25t-183 90q-71 42 -121 60.5t-90 18.5q-72 0 -118.5 -49t-59.5 -137h-47q12 98 49 170.5t95 111t131 38.5q48 0 123 -25q52 -16 208 -100q118 -62 193 -62q41 0 68.5 13.5t54.5 46.5q39 47 49 120h51z" />
    <glyph glyph-name="uni2206" unicode="&#x2206;" horiz-adv-x="1253" 
d="M1227 0h-1200l628 1386zM991 82l-399 967l-440 -967h839z" />
    <glyph glyph-name="guillemotleft" unicode="&#xab;" horiz-adv-x="909" 
d="M737 827q0 -10 -20 -32.5l-119 -128l-190 -207.5l141 -270t37 -80q0 -12 -8 -18.5t-19 -6.5q-6 0 -13 5.5t-19.5 22.5l-47 63.5l-65.5 86.5q-67 91 -103.5 135t-36.5 58q0 8 7 15.5t65 56l98 83.5l158 138l59.5 52.5l38.5 33.5t19 12q18 0 18 -19zM471 827
q0 -10 -20 -32.5l-127.5 -137l-182.5 -198.5l117.5 -224t51.5 -99.5t9 -26.5q0 -13 -7.5 -19t-18.5 -6q-6 0 -13 5t-20 22.5l-47.5 64l-65.5 86.5l-95.5 124.5t-43.5 68.5q0 8 7 15.5t65 56l98 83.5l158 138l59.5 52.5l38.5 33.5t19 12q18 0 18 -19z" />
    <glyph glyph-name="guillemotright" unicode="&#xbb;" horiz-adv-x="909" 
d="M737 475q0 -8 -9 -17.5t-43 -37.5l-118 -101l-177.5 -154.5l-77.5 -69t-19 -11.5q-19 0 -19 18q0 11 20 33.5l127.5 137l182.5 198.5l-114.5 220t-63.5 130q0 25 27 25q7 0 13 -4.5t17 -18.5l31.5 -41.5l83.5 -113.5l95.5 -124.5t36 -46.5t7.5 -22zM471 475
q0 -8 -9 -17.5t-43 -37.5l-118 -101l-177.5 -154.5l-77.5 -69t-19 -11.5q-19 0 -19 18q0 11 20 33.5l127.5 137l182.5 198.5l-114.5 220t-63.5 130q0 25 26 25q8 0 13.5 -4.5t17 -18.5t32 -41.5l83.5 -113.5l95.5 -124.5t36 -46.5t7.5 -22z" />
    <glyph glyph-name="ellipsis" unicode="&#x2026;" horiz-adv-x="2048" 
d="M1675 123q0 -64 -36.5 -101.5t-94.5 -37.5q-41 0 -69.5 24.5t-28.5 65.5q0 64 36.5 101.5t94.5 37.5q42 0 70 -24t28 -66zM993 123q0 -64 -36.5 -101.5t-94.5 -37.5q-41 0 -69.5 24.5t-28.5 65.5q0 64 36.5 101.5t94.5 37.5q42 0 70 -24t28 -66zM311 123
q0 -64 -36.5 -101.5t-94.5 -37.5q-41 0 -69.5 24.5t-28.5 65.5q0 64 36.5 101.5t94.5 37.5q42 0 70 -24t28 -66z" />
    <glyph glyph-name="uni00A0" unicode="&#xa0;" horiz-adv-x="569" 
 />
    <glyph glyph-name="Agrave" unicode="&#xc0;" horiz-adv-x="1290" 
d="M1167 23q0 -27 -26 -27q-32 0 -108 2t-107 2q-36 0 -116 -2t-116 -2q-20 0 -20 24q0 25 54.5 36t83 26t28.5 74q0 32 -9.5 82.5t-26 125.5t-30.5 148h-469q-48 -80 -94.5 -172.5t-46.5 -157.5q0 -59 31 -85t77.5 -45t46.5 -32q0 -24 -22 -24q-42 0 -127 2t-127 2
q-43 0 -126 -2t-116 -2q-26 0 -26 24q0 16 22 23t72.5 24.5t106 63.5t110.5 129l138.5 218l178 290.5l160 271t62.5 121.5q0 14 -15.5 26.5t-15.5 20.5q0 12 31.5 40t62.5 61q39 40 55 80.5t27 40.5q15 0 25 -50l233 -1210q11 -55 38 -77.5t64 -39t37 -30.5zM762 561
l-109 543l-321 -543h430zM913 1456h-64l-276 213q-31 26 -40 39t-9 33q0 33 22.5 52.5t53.5 19.5q41 0 92 -66z" />
    <glyph glyph-name="Atilde" unicode="&#xc3;" horiz-adv-x="1290" 
d="M1167 23q0 -27 -26 -27q-32 0 -108 2t-107 2q-36 0 -116 -2t-116 -2q-20 0 -20 24q0 25 54.5 36t83 26t28.5 74q0 32 -9.5 82.5t-26 125.5t-30.5 148h-469q-48 -80 -94.5 -172.5t-46.5 -157.5q0 -59 31 -85t77.5 -45t46.5 -32q0 -24 -22 -24q-42 0 -127 2t-127 2
q-43 0 -126 -2t-116 -2q-26 0 -26 24q0 16 22 23t72.5 24.5t106 63.5t110.5 129l138.5 218l178 290.5l160 271t62.5 121.5q0 14 -15.5 26.5t-15.5 20.5q0 12 31.5 40t62.5 61q39 40 55 80.5t27 40.5q15 0 25 -50l233 -1210q11 -55 38 -77.5t64 -39t37 -30.5zM762 561
l-109 543l-321 -543h430zM1149 1731q-15 -92 -66 -152.5t-128 -60.5q-35 0 -71.5 11.5t-88.5 35.5q-96 47 -147 47q-40 0 -68.5 -27.5t-36.5 -70.5h-61q47 217 200 217q62 0 166 -47q17 -8 49 -21.5t55 -19.5t40 -6q42 0 63.5 23.5t36.5 70.5h57z" />
    <glyph glyph-name="Otilde" unicode="&#xd5;" horiz-adv-x="1593" 
d="M1483 815q0 -196 -72.5 -354.5t-194 -269t-265 -167.5t-283.5 -57q-175 0 -317.5 82t-224 220.5t-81.5 303.5q0 197 73 356t193.5 268t265 166.5t283.5 57.5q132 0 246 -46.5t200 -131.5t131.5 -193.5t45.5 -234.5zM1266 913q0 239 -112 349t-298 110q-143 0 -254.5 -79
t-187.5 -212.5t-114 -290.5t-38 -315q0 -239 112.5 -349t297.5 -110q143 0 256 80.5t188 212.5t112.5 289.5t37.5 314.5zM1300 1731q-15 -92 -66 -152.5t-128 -60.5q-35 0 -71.5 11.5t-88.5 35.5q-96 47 -147 47q-40 0 -68.5 -27.5t-36.5 -70.5h-61q47 217 200 217
q62 0 166 -47q17 -8 49 -21.5t55 -19.5t40 -6q42 0 63.5 23.5t36.5 70.5h57z" />
    <glyph glyph-name="OE" unicode="&#x152;" horiz-adv-x="2314" 
d="M2220 954q0 -26 -22 -26q-11 0 -17.5 10t-13 34l-15.5 58q-25 95 -69.5 155t-110.5 94t-160.5 49t-228.5 15l-133 -589q142 0 219.5 35.5t122.5 105.5q17 25 28 56t18 61.5t14 44.5t18 14q16 0 16 -16q0 -22 -8.5 -65.5t-52.5 -250.5l-42.5 -204t-23 -104.5t-16.5 -49
t-19 -10.5q-10 0 -14 7t-4 19q0 1 5 37.5t5 65.5q0 95 -57 150t-221 55l-57 -270l-34 -154t-22 -104t-6 -46q0 -86 141 -86q285 0 518 223q39 38 69 82.5t57 95.5t40 71t25 20q18 0 18 -19q0 -13 -56 -145l-155 -377q-121 0 -194.5 1t-139 1.5l-131.5 1t-129 0.5
q-46 0 -141 -2t-143 -2l24 123q-102 -73 -221.5 -112.5t-232.5 -39.5q-185 0 -328 91t-219 236.5t-76 299.5q0 189 72.5 344t193.5 262.5t265.5 164t283.5 56.5q78 0 148.5 -16.5t130.5 -47t112.5 -73.5t94.5 -96l43 205q37 0 146 -2t194 -2q77 0 119.5 1t83.5 1.5t96 1
t145 0.5q25 -233 36 -321.5t11 -117.5zM1266 913q0 239 -112 349t-298 110q-143 0 -254.5 -79t-187.5 -212.5t-114 -290.5t-38 -315q0 -239 112.5 -349t297.5 -110q143 0 256 80.5t188 212.5t112.5 289.5t37.5 314.5z" />
    <glyph glyph-name="oe" unicode="&#x153;" horiz-adv-x="1554" 
d="M1464 754q0 -173 -274 -260q-67 -21 -148 -41t-184 -39q0 -121 69.5 -216.5t196.5 -95.5q106 0 201 70q46 34 75 59t36 25q14 0 14 -16q0 -20 -58.5 -85t-155.5 -118t-214 -53q-93 0 -165.5 42.5t-117.5 114.5q-63 -73 -160 -115t-202 -42q-108 0 -196 51t-136.5 146.5
t-48.5 219.5q0 148 66 272.5t182.5 198.5t257.5 74q101 0 189 -44.5t136 -127.5q82 84 181.5 128t189.5 44q120 0 193 -49.5t73 -142.5zM1309 782q0 127 -117 127q-100 0 -174 -70t-114.5 -175.5t-45.5 -208.5q95 18 165 35.5t130 45t94 66.5q62 72 62 180zM702 672
q0 115 -48 176t-148 61q-109 0 -182.5 -97.5t-108.5 -247t-35 -306.5q0 -113 54.5 -175.5t154.5 -62.5q78 0 139 59.5t98.5 153.5t56.5 211.5t19 227.5z" />
    <glyph glyph-name="endash" unicode="&#x2013;" horiz-adv-x="1024" 
d="M975 524l-29 -118h-1052l28 118h1053z" />
    <glyph glyph-name="emdash" unicode="&#x2014;" horiz-adv-x="2048" 
d="M1999 524l-29 -118h-2076l28 118h2077z" />
    <glyph glyph-name="quotedblleft" unicode="&#x201c;" horiz-adv-x="909" 
d="M897 1489q0 -9 -39.5 -38.5t-79.5 -70.5q-98 -101 -98 -172q0 -35 53 -49q43 -12 64.5 -35t21.5 -67q0 -50 -36.5 -84.5t-94.5 -34.5q-56 0 -91.5 39.5t-35.5 109.5q0 74 36 146t114 156q56 60 102 91t64 31q20 0 20 -22zM479 1489q0 -9 -39.5 -38.5t-79.5 -70.5
q-98 -101 -98 -172q0 -34 53 -49q45 -13 65.5 -34.5t20.5 -67.5q0 -50 -36.5 -84.5t-94.5 -34.5q-55 0 -91 39t-36 110q0 74 36 146t114 156q56 60 102 91t64 31q20 0 20 -22z" />
    <glyph glyph-name="quotedblright" unicode="&#x201d;" horiz-adv-x="909" 
d="M918 1346q0 -139 -150 -302q-52 -56 -100 -89t-66 -33q-20 0 -20 22q0 9 44.5 43.5t73.5 65.5q99 101 99 172q0 34 -54 49q-44 13 -65 35.5t-21 66.5q0 50 37 84.5t95 34.5q55 0 91 -39t36 -110zM500 1346q0 -73 -36 -146t-114 -156q-52 -56 -100 -89t-66 -33
q-20 0 -20 22q0 9 45 44t74 65q98 101 98 172q0 35 -53 49q-43 12 -64.5 35t-21.5 67q0 50 36.5 84.5t94.5 34.5q55 0 91 -39t36 -110z" />
    <glyph glyph-name="quoteleft" unicode="&#x2018;" horiz-adv-x="455" 
d="M442 1489q0 -9 -37.5 -37t-80.5 -72q-99 -101 -99 -172q0 -19 13 -30t41 -19q43 -12 64.5 -35t21.5 -67q0 -50 -37 -84.5t-95 -34.5q-55 0 -91 39t-36 110q0 74 37.5 147.5t112.5 154.5q56 60 102 91t64 31q20 0 20 -22z" />
    <glyph glyph-name="quoteright" unicode="&#x2019;" horiz-adv-x="455" 
d="M500 1346q0 -73 -36 -146t-114 -156q-52 -56 -100 -89t-66 -33q-20 0 -20 22q0 9 45 44t74 65q98 101 98 172q0 35 -53 49q-43 12 -64.5 35t-21.5 67q0 50 36.5 84.5t94.5 34.5q55 0 91 -39t36 -110z" />
    <glyph glyph-name="divide" unicode="&#xf7;" horiz-adv-x="1229" 
d="M670 840q0 -48 -34.5 -81.5t-80.5 -33.5t-80.5 33.5t-34.5 81.5q0 47 34.5 80.5t80.5 33.5t80.5 -33.5t34.5 -80.5zM1020 401h-930v127h930v-127zM670 90q0 -47 -34 -81t-81 -34t-81 34t-34 81q0 49 34 82t81 33q30 0 56.5 -15t42.5 -42t16 -58z" />
    <glyph glyph-name="lozenge" unicode="&#x25ca;" horiz-adv-x="1012" 
d="M967 709l-418 -709h-111l-391 709l391 714h111zM854 709l-358 616l-340 -616l340 -615z" />
    <glyph glyph-name="ydieresis" unicode="&#xff;" horiz-adv-x="1024" 
d="M940 760q0 -267 -410 -758q-333 -399 -561 -399q-88 0 -139 38.5t-51 94.5q0 44 30 71t76 27q45 0 69.5 -17t50.5 -52.5t41 -49.5t46 -14q50 0 128.5 55.5t138 126t59.5 107.5q0 17 -6.5 41.5t-25 80.5l-42 125.5l-88.5 264.5l-53.5 167.5t-25.5 71.5t-24.5 39t-35.5 11
q-33 0 -56.5 -35.5t-54.5 -126.5q-13 -40 -18.5 -52t-14.5 -12q-14 0 -14 19q0 34 29.5 123.5t84.5 164t128 74.5q45 0 77 -32.5t54 -96.5l241 -692q125 156 182.5 259t57.5 206q0 48 -15 81t-44.5 69.5t-41.5 57.5t-12 54q0 44 28 69t73 25q34 0 66 -18.5t52.5 -60
t20.5 -107.5zM891 1176q0 -45 -29 -74t-73 -29t-73 29t-29 74q0 44 29 73t73 29q21 0 40.5 -8t32.5 -21t21 -32.5t8 -40.5zM486 1176q0 -45 -29 -74t-73 -29q-45 0 -74 29t-29 74q0 44 29 73t74 29q21 0 40.5 -8t32.5 -21t21 -32.5t8 -40.5z" />
    <glyph glyph-name="Ydieresis" unicode="&#x178;" horiz-adv-x="1214" 
d="M1370 1364q0 -14 -16 -20l-54.5 -20.5t-91 -51t-123.5 -111.5l-108 -118.5l-120 -136l-95 -110.5l-125 -143l-84 -372q-25 -116 -25 -129q0 -63 31 -80t79 -23t48 -24q0 -17 -7 -23t-30 -6q-44 0 -119 2t-110 2q-42 0 -135 -2t-146 -2q-24 0 -24 24q0 19 33 26l72 15
t71.5 35t44.5 86l104 469l-217 604q-11 33 -34.5 49.5t-50 23t-45.5 13.5t-19 23t10 22.5t41 6.5q41 0 123 -2t123 -2q35 0 107 2t108 2q35 0 35 -29q0 -15 -51.5 -22t-85 -24t-33.5 -69q0 -23 13 -69.5t60.5 -182l96.5 -276.5q143 154 230 260.5t117.5 164t30.5 101.5
q0 51 -19.5 65.5t-54 24t-34.5 27.5q0 29 37 29q42 0 122 -2t121 -2q29 0 84 2t82 2q33 0 33 -29zM1056 1592q0 -45 -29 -74t-73 -29t-73 29t-29 74q0 44 29 73t73 29q21 0 40.5 -8t32.5 -21t21 -32.5t8 -40.5zM651 1592q0 -45 -29 -74t-73 -29q-45 0 -74 29t-29 74
q0 44 29 73t74 29q21 0 40.5 -8t32.5 -21t21 -32.5t8 -40.5z" />
    <glyph glyph-name="fraction" unicode="&#x2215;" horiz-adv-x="342" 
d="M684 1405l-868 -1421h-158l868 1421h158z" />
    <glyph glyph-name="Euro" unicode="&#x20ac;" 
d="M1196 1376q0 -8 -2 -12l-98 -459q-6 -33 -27 -33q-12 0 -17 21t-5 78q0 385 -242 385q-77 0 -150 -54.5t-135.5 -164t-109.5 -267.5h391l-13 -61h-397q-13 -47 -26 -115q-4 -18 -5.5 -27.5t-5.5 -27.5h398l-13 -61h-397q-18 -126 -18 -220q0 -161 52 -243t140 -82
q94 0 181 51.5t153.5 143t101.5 206.5q16 47 35 47q17 0 17 -20q0 -2 -1 -5.5t-2 -6.5l-90 -433q-6 -32 -30 -32q-13 0 -17.5 34t-10 47t-32.5 13q-21 0 -75.5 -28.5t-110 -47t-143.5 -18.5q-116 0 -198.5 64t-125.5 176t-43 255q0 50 6 99h-151l12 61h147q3 26 11 55
q9 44 32 115h-153l12 61h164q47 112 120 212.5t157 172.5t171 111t162 39q77 0 121.5 -21t89 -55.5t66.5 -34.5q19 0 29.5 12.5t21 38.5t18 39t21.5 13t14 -21z" />
    <glyph glyph-name="guilsinglleft" unicode="&#x2039;" horiz-adv-x="682" 
d="M492 827q0 -10 -20 -32.5l-127.5 -137l-182.5 -198.5l141 -270t37 -80q0 -25 -27 -25q-6 0 -13 5.5t-19.5 22.5l-47 63.5l-65.5 86.5l-95.5 124.5t-43.5 68.5q0 12 46.5 50.5l123.5 104.5l158 138l66.5 58.5l38 33.5t11.5 6q19 0 19 -19z" />
    <glyph glyph-name="guilsinglright" unicode="&#x203a;" horiz-adv-x="682" 
d="M489 475q0 -8 -9 -17.5t-43 -37.5l-118 -101l-190 -165.5t-84 -69.5q-18 0 -18 18q0 8 29 41.5t73.5 80.5l97 103l129.5 144l-114.5 220t-63.5 130q0 12 8.5 18.5t18.5 6.5q7 0 13 -4.5t17 -18.5l31.5 -41.5l83.5 -113.5l95.5 -124.5t36 -46.5t7.5 -22z" />
    <glyph glyph-name="uniF001" unicode="&#xf001;" horiz-adv-x="1176" 
d="M1036 313q0 -26 -28.5 -108t-90.5 -151.5t-157 -69.5q-76 0 -115 46t-39 122q0 46 26 149.5l74 284t48 198.5q0 43 -82 43h-291q-51 -264 -113 -477.5t-146 -383.5t-191 -266.5t-234 -96.5q-37 0 -69 15.5t-51 44.5t-19 73q0 54 31.5 89.5t76.5 35.5q62 0 76.5 -25
t31 -82t48.5 -57q41 0 82 35.5t73 98t48 138.5q8 36 28 156.5l42.5 255t45 249.5t45.5 197h-151q93 27 139.5 95.5t152.5 258.5t200 274.5t243 84.5q66 0 115 -27t75.5 -69t26.5 -88q0 -68 -33.5 -107t-83.5 -39q-45 0 -72.5 24.5t-27.5 61.5q0 31 20.5 68t20.5 63
q0 29 -18.5 46.5t-51.5 17.5q-66 0 -129 -53t-118.5 -180t-87.5 -328h364q81 0 124.5 -22.5t43.5 -82.5q0 -23 -24 -129l-52.5 -221.5l-49.5 -207t-21 -115.5q0 -66 51 -66q80 0 137 158q13 36 19.5 55.5t10 26t11.5 6.5q16 0 16 -19z" />
    <glyph glyph-name="uniF001" unicode="&#xfb01;" horiz-adv-x="1176" 
d="M1036 313q0 -26 -28.5 -108t-90.5 -151.5t-157 -69.5q-76 0 -115 46t-39 122q0 46 26 149.5l74 284t48 198.5q0 43 -82 43h-291q-51 -264 -113 -477.5t-146 -383.5t-191 -266.5t-234 -96.5q-37 0 -69 15.5t-51 44.5t-19 73q0 54 31.5 89.5t76.5 35.5q62 0 76.5 -25
t31 -82t48.5 -57q41 0 82 35.5t73 98t48 138.5q8 36 28 156.5l42.5 255t45 249.5t45.5 197h-151q93 27 139.5 95.5t152.5 258.5t200 274.5t243 84.5q66 0 115 -27t75.5 -69t26.5 -88q0 -68 -33.5 -107t-83.5 -39q-45 0 -72.5 24.5t-27.5 61.5q0 31 20.5 68t20.5 63
q0 29 -18.5 46.5t-51.5 17.5q-66 0 -129 -53t-118.5 -180t-87.5 -328h364q81 0 124.5 -22.5t43.5 -82.5q0 -23 -24 -129l-52.5 -221.5l-49.5 -207t-21 -115.5q0 -66 51 -66q80 0 137 158q13 36 19.5 55.5t10 26t11.5 6.5q16 0 16 -19z" />
    <glyph glyph-name="uniF002" unicode="&#xf002;" horiz-adv-x="1176" 
d="M1096 1475l-200 -822l-99 -407t-17 -94q0 -66 51 -66q81 0 138 158q7 18 16 46.5t13 35t12 6.5q16 0 16 -19q0 -26 -28.5 -108t-90.5 -151.5t-157 -69.5q-76 0 -115 46t-39 122q0 29 16 107.5t44 192.5l70.5 283.5l117.5 478.5q-30 5 -52 28t-22 58q0 24 20.5 66t20.5 59
q0 32 -19.5 49t-50.5 17q-66 0 -129 -53t-118.5 -180t-87.5 -328h210l-32 -103h-203q-51 -264 -113 -477.5t-146 -383.5t-191 -266.5t-234 -96.5q-37 0 -69 15.5t-51 44.5t-19 73q0 54 31.5 89.5t76.5 35.5q62 0 76.5 -25t31 -82t48.5 -57q41 0 82 35.5t73 98t48 138.5
q8 36 28 156.5l42.5 255t45 249.5t45.5 197h-151q93 27 139.5 95.5t152.5 258.5t200 274.5t243 84.5q65 0 117 -27.5t74 -66.5q87 12 135 29z" />
    <glyph glyph-name="uniF002" unicode="&#xfb02;" horiz-adv-x="1176" 
d="M1096 1475l-200 -822l-99 -407t-17 -94q0 -66 51 -66q81 0 138 158q7 18 16 46.5t13 35t12 6.5q16 0 16 -19q0 -26 -28.5 -108t-90.5 -151.5t-157 -69.5q-76 0 -115 46t-39 122q0 29 16 107.5t44 192.5l70.5 283.5l117.5 478.5q-30 5 -52 28t-22 58q0 24 20.5 66t20.5 59
q0 32 -19.5 49t-50.5 17q-66 0 -129 -53t-118.5 -180t-87.5 -328h210l-32 -103h-203q-51 -264 -113 -477.5t-146 -383.5t-191 -266.5t-234 -96.5q-37 0 -69 15.5t-51 44.5t-19 73q0 54 31.5 89.5t76.5 35.5q62 0 76.5 -25t31 -82t48.5 -57q41 0 82 35.5t73 98t48 138.5
q8 36 28 156.5l42.5 255t45 249.5t45.5 197h-151q93 27 139.5 95.5t152.5 258.5t200 274.5t243 84.5q65 0 117 -27.5t74 -66.5q87 12 135 29z" />
    <glyph glyph-name="daggerdbl" unicode="&#x2021;" horiz-adv-x="1024" 
d="M946 969q0 -45 -32.5 -71t-92.5 -26q-39 0 -114 33t-113 33q-59 0 -59 -61q0 -82 36 -138q-75 -117 -75 -196q0 -31 22 -90q-108 -108 -108 -174q0 -21 13.5 -29t45.5 -8q31 0 112.5 28.5t125.5 28.5q30 0 50.5 -9.5t30 -26.5t9.5 -36q0 -46 -36 -73t-99 -27
q-26 0 -47.5 8t-67 30.5t-66 31t-39.5 8.5q-33 0 -46 -25t-13 -80q0 -13 13.5 -74.5t13.5 -99.5q0 -69 -35 -118.5t-90 -49.5q-84 0 -84 86q0 50 23 93.5t72.5 122.5t49.5 100q0 45 -39 45q-24 0 -58 -9.5t-84 -28l-81.5 -29.5t-46.5 -11q-35 0 -55.5 25t-20.5 59
q0 46 33 71t92 25q45 0 118 -32.5t109 -32.5q60 0 60 61q0 100 -39 139q32 47 54 108t22 93q0 51 -17 96q105 99 105 162q0 37 -60 37q-32 0 -113.5 -28.5t-123.5 -28.5q-90 0 -90 71q0 47 36 74t99 27q26 0 55.5 -10.5t60 -26.5t58 -28.5t45.5 -12.5q33 0 46 25t13 79
q0 24 -13 82.5t-13 91.5q0 69 35 118.5t90 49.5q84 0 84 -86q0 -49 -26 -98t-73 -121.5t-47 -95.5q0 -45 39 -45q24 0 52 8t94 32t88 31t36 7q36 0 56 -24.5t20 -59.5z" />
    <glyph glyph-name="periodcentered" unicode="&#x2219;" horiz-adv-x="569" 
d="M336 465q0 -48 -33.5 -81.5t-81.5 -33.5q-46 0 -80.5 33.5t-34.5 81.5q0 47 34 81t81 34q31 0 58 -16t42 -42.5t15 -56.5z" />
    <glyph glyph-name="quotesinglbase" unicode="&#x201a;" horiz-adv-x="455" 
d="M193 63q0 -138 -150 -301q-52 -56 -100 -89t-66 -33q-20 0 -20 22q0 9 44.5 43.5t73.5 65.5q99 101 99 172q0 34 -54 49q-44 13 -65 35.5t-21 66.5q0 50 37 84.5t95 34.5q55 0 91 -39t36 -111z" />
    <glyph glyph-name="quotedblbase" unicode="&#x201e;" horiz-adv-x="909" 
d="M610 55q0 -73 -36 -144.5t-113 -156.5q-54 -58 -101 -90.5t-65 -32.5q-21 0 -21 23q0 9 39.5 38.5t79.5 69.5q99 102 99 172q0 34 -54 50q-44 13 -65 35.5t-21 66.5q0 50 36.5 84.5t94.5 34.5q57 0 92 -39t35 -111zM193 55q0 -138 -150 -301q-54 -58 -101 -90.5
t-65 -32.5q-20 0 -20 23q0 9 39.5 38.5t78.5 69.5q99 102 99 172q0 34 -54 50q-44 13 -65 35.5t-21 66.5q0 50 37 84.5t95 34.5q55 0 91 -39t36 -111z" />
    <glyph glyph-name="perthousand" unicode="&#x2030;" horiz-adv-x="2048" 
d="M2011 461q0 -126 -46.5 -235t-133.5 -175.5t-201 -66.5q-108 0 -174.5 69t-66.5 195q0 128 46.5 239.5t131 178.5t196.5 67q68 0 123.5 -30t90 -91.5t34.5 -150.5zM651 1133q0 -126 -46.5 -235.5t-133.5 -176t-201 -66.5q-70 0 -125 30.5t-85.5 89.5t-30.5 145
q0 128 46.5 239.5t131 178.5t196.5 67q68 0 123.5 -30t90 -91.5t34.5 -150.5zM1360 1405l-1284 -1421h-96l1286 1421h94zM1278 461q0 -126 -46.5 -235t-133.5 -175.5t-201 -66.5q-108 0 -175 69t-67 195q0 128 46.5 239.5t131.5 178.5t197 67q68 0 123.5 -30t90 -91.5
t34.5 -150.5zM1864 578q0 70 -21.5 94t-73.5 24q-66 0 -119.5 -92.5t-83.5 -227t-30 -237.5q0 -69 21.5 -94t72.5 -25q67 0 120.5 93.5t83.5 227.5t30 237zM504 1249q0 69 -21.5 94t-72.5 25q-67 0 -120.5 -93t-83.5 -227t-30 -237q0 -69 21.5 -94t72.5 -25q67 0 120.5 93.5
t83.5 227.5t30 236zM1130 578q0 69 -21 93.5t-73 24.5q-66 0 -119.5 -92.5t-83.5 -227t-30 -237.5q0 -69 21.5 -94t72.5 -25q66 0 119.5 93t83.5 227.5t30 237.5z" />
    <glyph glyph-name="Acircumflex" unicode="&#xc2;" horiz-adv-x="1290" 
d="M1167 23q0 -27 -26 -27q-32 0 -108 2t-107 2q-36 0 -116 -2t-116 -2q-20 0 -20 24q0 25 54.5 36t83 26t28.5 74q0 32 -9.5 82.5t-26 125.5t-30.5 148h-469q-48 -80 -94.5 -172.5t-46.5 -157.5q0 -59 31 -85t77.5 -45t46.5 -32q0 -24 -22 -24q-42 0 -127 2t-127 2
q-43 0 -126 -2t-116 -2q-26 0 -26 24q0 16 22 23t72.5 24.5t106 63.5t110.5 129l138.5 218l178 290.5l160 271t62.5 121.5q0 14 -15.5 26.5t-15.5 20.5q0 12 31.5 40t62.5 61q39 40 55 80.5t27 40.5q15 0 25 -50l233 -1210q11 -55 38 -77.5t64 -39t37 -30.5zM762 561
l-109 543l-321 -543h430zM1055 1456h-74l-170 213l-282 -213h-80l324 349h100z" />
    <glyph glyph-name="Ecircumflex" unicode="&#xca;" horiz-adv-x="1290" 
d="M1196 954q0 -26 -22 -26q-11 0 -17.5 10t-13 34l-15.5 58q-33 124 -100.5 191.5t-180 94.5t-292.5 27l-133 -589q145 0 222.5 35.5t123.5 105.5q17 25 28 56t18 61.5t14 44.5t18 14q16 0 16 -16q0 -22 -8.5 -65.5t-52.5 -250.5l-42.5 -204t-23 -104.5t-16.5 -49
t-19 -10.5q-10 0 -14 7t-4 19q0 1 5 37.5t5 65.5q0 95 -57.5 150t-224.5 55l-57 -270l-34 -154t-22 -104t-6 -46q0 -86 145 -86q285 0 518 223q39 38 69 82.5t57 95.5t40 71t25 20q18 0 18 -19q0 -13 -56 -145l-155 -377q-127 0 -359 2t-329 2q-70 0 -175 -2t-152 -2
q-41 0 -41 20q0 15 26 21.5t60 14t63 27.5t37 60l121 539.5l74 325.5t34.5 160.5t10.5 80.5q0 51 -25 64.5t-70 23t-45 31.5q0 29 31 29q80 0 130.5 -1l100 -2t129.5 -1q128 0 208 1l160 2t208 1q25 -233 36 -321.5t11 -117.5zM1042 1456h-74l-170 213l-282 -213h-80
l324 349h100z" />
    <glyph glyph-name="Aacute" unicode="&#xc1;" horiz-adv-x="1290" 
d="M1167 23q0 -27 -26 -27q-32 0 -108 2t-107 2q-36 0 -116 -2t-116 -2q-20 0 -20 24q0 25 54.5 36t83 26t28.5 74q0 32 -9.5 82.5t-26 125.5t-30.5 148h-469q-48 -80 -94.5 -172.5t-46.5 -157.5q0 -59 31 -85t77.5 -45t46.5 -32q0 -24 -22 -24q-42 0 -127 2t-127 2
q-43 0 -126 -2t-116 -2q-26 0 -26 24q0 16 22 23t72.5 24.5t106 63.5t110.5 129l138.5 218l178 290.5l160 271t62.5 121.5q0 14 -15.5 26.5t-15.5 20.5q0 12 31.5 40t62.5 61q39 40 55 80.5t27 40.5q15 0 25 -50l233 -1210q11 -55 38 -77.5t64 -39t37 -30.5zM762 561
l-109 543l-321 -543h430zM1104 1741q0 -41 -57 -78l-336 -207h-70l306 297q31 31 49.5 45.5t42.5 14.5q26 0 45.5 -18.5t19.5 -53.5z" />
    <glyph glyph-name="Edieresis" unicode="&#xcb;" horiz-adv-x="1290" 
d="M1196 954q0 -26 -22 -26q-11 0 -17.5 10t-13 34l-15.5 58q-33 124 -100.5 191.5t-180 94.5t-292.5 27l-133 -589q145 0 222.5 35.5t123.5 105.5q17 25 28 56t18 61.5t14 44.5t18 14q16 0 16 -16q0 -22 -8.5 -65.5t-52.5 -250.5l-42.5 -204t-23 -104.5t-16.5 -49
t-19 -10.5q-10 0 -14 7t-4 19q0 1 5 37.5t5 65.5q0 95 -57.5 150t-224.5 55l-57 -270l-34 -154t-22 -104t-6 -46q0 -86 145 -86q285 0 518 223q39 38 69 82.5t57 95.5t40 71t25 20q18 0 18 -19q0 -13 -56 -145l-155 -377q-127 0 -359 2t-329 2q-70 0 -175 -2t-152 -2
q-41 0 -41 20q0 15 26 21.5t60 14t63 27.5t37 60l121 539.5l74 325.5t34.5 160.5t10.5 80.5q0 51 -25 64.5t-70 23t-45 31.5q0 29 31 29q80 0 130.5 -1l100 -2t129.5 -1q128 0 208 1l160 2t208 1q25 -233 36 -321.5t11 -117.5zM1095 1592q0 -45 -29 -74t-73 -29t-73 29
t-29 74q0 44 29 73t73 29q21 0 40.5 -8t32.5 -21t21 -32.5t8 -40.5zM690 1592q0 -45 -29 -74t-73 -29q-45 0 -74 29t-29 74q0 44 29 73t74 29q21 0 40.5 -8t32.5 -21t21 -32.5t8 -40.5z" />
    <glyph glyph-name="Egrave" unicode="&#xc8;" horiz-adv-x="1290" 
d="M1196 954q0 -26 -22 -26q-11 0 -17.5 10t-13 34l-15.5 58q-33 124 -100.5 191.5t-180 94.5t-292.5 27l-133 -589q145 0 222.5 35.5t123.5 105.5q17 25 28 56t18 61.5t14 44.5t18 14q16 0 16 -16q0 -22 -8.5 -65.5t-52.5 -250.5l-42.5 -204t-23 -104.5t-16.5 -49
t-19 -10.5q-10 0 -14 7t-4 19q0 1 5 37.5t5 65.5q0 95 -57.5 150t-224.5 55l-57 -270l-34 -154t-22 -104t-6 -46q0 -86 145 -86q285 0 518 223q39 38 69 82.5t57 95.5t40 71t25 20q18 0 18 -19q0 -13 -56 -145l-155 -377q-127 0 -359 2t-329 2q-70 0 -175 -2t-152 -2
q-41 0 -41 20q0 15 26 21.5t60 14t63 27.5t37 60l121 539.5l74 325.5t34.5 160.5t10.5 80.5q0 51 -25 64.5t-70 23t-45 31.5q0 29 31 29q80 0 130.5 -1l100 -2t129.5 -1q128 0 208 1l160 2t208 1q25 -233 36 -321.5t11 -117.5zM901 1456h-64l-276 213q-31 26 -40 39t-9 33
q0 33 22.5 52.5t53.5 19.5q41 0 92 -66z" />
    <glyph glyph-name="Iacute" unicode="&#xcd;" horiz-adv-x="721" 
d="M770 1366q0 -21 -57 -28t-95.5 -25.5t-54.5 -85.5q-169 -725 -207.5 -900.5t-38.5 -211.5q0 -42 27 -52.5t77 -15.5t50 -22t-7 -23t-32 -6q-41 0 -116 2t-111 2q-48 0 -130 -2t-108 -2q-32 0 -41.5 6t-9.5 23q0 18 52.5 22.5t88.5 20t49 71.5l126.5 531.5l90 375
t30 136.5t7.5 69q0 50 -26 63.5t-72.5 22t-46.5 27.5q0 29 47 29q38 0 110 -2t109 -2q47 0 134 2t128 2q27 0 27 -27zM854 1741q0 -41 -57 -78l-336 -207h-70l306 297q31 31 49.5 45.5t42.5 14.5q26 0 45.5 -18.5t19.5 -53.5z" />
    <glyph glyph-name="Icircumflex" unicode="&#xce;" horiz-adv-x="721" 
d="M770 1366q0 -21 -57 -28t-95.5 -25.5t-54.5 -85.5q-169 -725 -207.5 -900.5t-38.5 -211.5q0 -42 27 -52.5t77 -15.5t50 -22t-7 -23t-32 -6q-41 0 -116 2t-111 2q-48 0 -130 -2t-108 -2q-32 0 -41.5 6t-9.5 23q0 18 52.5 22.5t88.5 20t49 71.5l126.5 531.5l90 375
t30 136.5t7.5 69q0 50 -26 63.5t-72.5 22t-46.5 27.5q0 29 47 29q38 0 110 -2t109 -2q47 0 134 2t128 2q27 0 27 -27zM805 1456h-74l-170 213l-282 -213h-80l324 349h100z" />
    <glyph glyph-name="Idieresis" unicode="&#xcf;" horiz-adv-x="721" 
d="M770 1366q0 -21 -57 -28t-95.5 -25.5t-54.5 -85.5q-169 -725 -207.5 -900.5t-38.5 -211.5q0 -42 27 -52.5t77 -15.5t50 -22t-7 -23t-32 -6q-41 0 -116 2t-111 2q-48 0 -130 -2t-108 -2q-32 0 -41.5 6t-9.5 23q0 18 52.5 22.5t88.5 20t49 71.5l126.5 531.5l90 375
t30 136.5t7.5 69q0 50 -26 63.5t-72.5 22t-46.5 27.5q0 29 47 29q38 0 110 -2t109 -2q47 0 134 2t128 2q27 0 27 -27zM858 1592q0 -45 -29 -74t-73 -29t-73 29t-29 74q0 44 29 73t73 29q21 0 40.5 -8t32.5 -21t21 -32.5t8 -40.5zM453 1592q0 -45 -29 -74t-73 -29
q-45 0 -74 29t-29 74q0 44 29 73t74 29q21 0 40.5 -8t32.5 -21t21 -32.5t8 -40.5z" />
    <glyph glyph-name="Igrave" unicode="&#xcc;" horiz-adv-x="721" 
d="M770 1366q0 -21 -57 -28t-95.5 -25.5t-54.5 -85.5q-169 -725 -207.5 -900.5t-38.5 -211.5q0 -42 27 -52.5t77 -15.5t50 -22t-7 -23t-32 -6q-41 0 -116 2t-111 2q-48 0 -130 -2t-108 -2q-32 0 -41.5 6t-9.5 23q0 18 52.5 22.5t88.5 20t49 71.5l126.5 531.5l90 375
t30 136.5t7.5 69q0 50 -26 63.5t-72.5 22t-46.5 27.5q0 29 47 29q38 0 110 -2t109 -2q47 0 134 2t128 2q27 0 27 -27zM664 1456h-64l-276 213q-31 26 -40 39t-9 33q0 33 22.5 52.5t53.5 19.5q41 0 92 -66z" />
    <glyph glyph-name="Oacute" unicode="&#xd3;" horiz-adv-x="1593" 
d="M1483 815q0 -196 -72.5 -354.5t-194 -269t-265 -167.5t-283.5 -57q-175 0 -317.5 82t-224 220.5t-81.5 303.5q0 197 73 356t193.5 268t265 166.5t283.5 57.5q132 0 246 -46.5t200 -131.5t131.5 -193.5t45.5 -234.5zM1266 913q0 239 -112 349t-298 110q-143 0 -254.5 -79
t-187.5 -212.5t-114 -290.5t-38 -315q0 -239 112.5 -349t297.5 -110q143 0 256 80.5t188 212.5t112.5 289.5t37.5 314.5zM1256 1741q0 -41 -57 -78l-336 -207h-70l306 297q31 31 49.5 45.5t42.5 14.5q26 0 45.5 -18.5t19.5 -53.5z" />
    <glyph glyph-name="Ocircumflex" unicode="&#xd4;" horiz-adv-x="1593" 
d="M1483 815q0 -196 -72.5 -354.5t-194 -269t-265 -167.5t-283.5 -57q-175 0 -317.5 82t-224 220.5t-81.5 303.5q0 197 73 356t193.5 268t265 166.5t283.5 57.5q132 0 246 -46.5t200 -131.5t131.5 -193.5t45.5 -234.5zM1266 913q0 239 -112 349t-298 110q-143 0 -254.5 -79
t-187.5 -212.5t-114 -290.5t-38 -315q0 -239 112.5 -349t297.5 -110q143 0 256 80.5t188 212.5t112.5 289.5t37.5 314.5zM1206 1456h-74l-170 213l-282 -213h-80l324 349h100z" />
    <glyph glyph-name="Ograve" unicode="&#xd2;" horiz-adv-x="1593" 
d="M1483 815q0 -196 -72.5 -354.5t-194 -269t-265 -167.5t-283.5 -57q-175 0 -317.5 82t-224 220.5t-81.5 303.5q0 197 73 356t193.5 268t265 166.5t283.5 57.5q132 0 246 -46.5t200 -131.5t131.5 -193.5t45.5 -234.5zM1266 913q0 239 -112 349t-298 110q-143 0 -254.5 -79
t-187.5 -212.5t-114 -290.5t-38 -315q0 -239 112.5 -349t297.5 -110q143 0 256 80.5t188 212.5t112.5 289.5t37.5 314.5zM1065 1456h-64l-276 213q-31 26 -40 39t-9 33q0 33 22.5 52.5t53.5 19.5q41 0 92 -66z" />
    <glyph glyph-name="Uacute" unicode="&#xda;" horiz-adv-x="1442" 
d="M1532 1364q0 -15 -17 -18.5t-52 -9.5t-71.5 -30.5t-72.5 -80.5q-31 -48 -49.5 -92t-39.5 -128.5t-48.5 -221.5l-83.5 -398q-46 -211 -200 -314.5t-363 -103.5q-86 0 -187.5 34.5t-171.5 105t-70 174.5q0 43 22 146t76 336.5l76.5 335.5t22.5 138q0 58 -25.5 74t-70.5 24
t-45 29q0 16 9.5 22.5t37.5 6.5q37 0 112 -2t111 -2q41 0 123 2t121 2q24 0 24 -29q0 -15 -24 -18t-62 -9t-68 -32.5t-42 -81.5l-129 -602.5t-64 -337.5q0 -121 81 -187.5t210 -66.5q123 0 218 48.5t153 131t80 186.5l71 345.5l37 186t24.5 143.5t6.5 83q0 72 -22.5 111.5
t-43.5 49.5t-58.5 23.5t-37.5 26.5q0 29 29 29q47 0 138 -2t136 -2q29 0 88 2t86 2q25 0 25 -29zM1180 1741q0 -41 -57 -78l-336 -207h-70l306 297q31 31 49.5 45.5t42.5 14.5q26 0 45.5 -18.5t19.5 -53.5z" />
    <glyph glyph-name="Ucircumflex" unicode="&#xdb;" horiz-adv-x="1442" 
d="M1532 1364q0 -15 -17 -18.5t-52 -9.5t-71.5 -30.5t-72.5 -80.5q-31 -48 -49.5 -92t-39.5 -128.5t-48.5 -221.5l-83.5 -398q-46 -211 -200 -314.5t-363 -103.5q-86 0 -187.5 34.5t-171.5 105t-70 174.5q0 43 22 146t76 336.5l76.5 335.5t22.5 138q0 58 -25.5 74t-70.5 24
t-45 29q0 16 9.5 22.5t37.5 6.5q37 0 112 -2t111 -2q41 0 123 2t121 2q24 0 24 -29q0 -15 -24 -18t-62 -9t-68 -32.5t-42 -81.5l-129 -602.5t-64 -337.5q0 -121 81 -187.5t210 -66.5q123 0 218 48.5t153 131t80 186.5l71 345.5l37 186t24.5 143.5t6.5 83q0 72 -22.5 111.5
t-43.5 49.5t-58.5 23.5t-37.5 26.5q0 29 29 29q47 0 138 -2t136 -2q29 0 88 2t86 2q25 0 25 -29zM1130 1456h-74l-170 213l-282 -213h-80l324 349h100z" />
    <glyph glyph-name="Ugrave" unicode="&#xd9;" horiz-adv-x="1442" 
d="M1532 1364q0 -15 -17 -18.5t-52 -9.5t-71.5 -30.5t-72.5 -80.5q-31 -48 -49.5 -92t-39.5 -128.5t-48.5 -221.5l-83.5 -398q-46 -211 -200 -314.5t-363 -103.5q-86 0 -187.5 34.5t-171.5 105t-70 174.5q0 43 22 146t76 336.5l76.5 335.5t22.5 138q0 58 -25.5 74t-70.5 24
t-45 29q0 16 9.5 22.5t37.5 6.5q37 0 112 -2t111 -2q41 0 123 2t121 2q24 0 24 -29q0 -15 -24 -18t-62 -9t-68 -32.5t-42 -81.5l-129 -602.5t-64 -337.5q0 -121 81 -187.5t210 -66.5q123 0 218 48.5t153 131t80 186.5l71 345.5l37 186t24.5 143.5t6.5 83q0 72 -22.5 111.5
t-43.5 49.5t-58.5 23.5t-37.5 26.5q0 29 29 29q47 0 138 -2t136 -2q29 0 88 2t86 2q25 0 25 -29zM989 1456h-64l-276 213q-31 26 -40 39t-9 33q0 33 22.5 52.5t53.5 19.5q41 0 92 -66z" />
    <glyph glyph-name="dotlessi" unicode="&#x131;" horiz-adv-x="645" 
d="M543 313q0 -27 -30.5 -109t-93.5 -151t-161 -69q-78 0 -122 49t-44 125q0 34 17.5 104.5t58 215l57.5 208.5t17 92q0 66 -64 66q-88 0 -147 -158q-14 -37 -21.5 -54.5t-17.5 -17.5q-17 0 -17 19q0 23 31 101.5t95 145t159 66.5q83 0 124.5 -44.5t41.5 -117.5
q0 -48 -22.5 -136l-75 -279.5t-52.5 -216.5q0 -66 64 -66q90 0 145 158q13 36 19.5 55.5t10 26t11.5 6.5q17 0 17 -19z" />
    <glyph glyph-name="circumflex" unicode="&#x2c6;" horiz-adv-x="645" 
d="M647 1040h-74l-170 213l-282 -213h-80l324 349h100z" />
    <glyph glyph-name="tilde" unicode="&#x2dc;" horiz-adv-x="645" 
d="M741 1315q-15 -92 -66 -152.5t-128 -60.5q-35 0 -71.5 11.5t-88.5 35.5q-96 47 -147 47q-40 0 -68.5 -27.5t-36.5 -70.5h-61q47 217 200 217q62 0 166 -47q17 -8 49 -21.5t55 -19.5t40 -6q42 0 63.5 23.5t36.5 70.5h57z" />
    <glyph glyph-name="macron" unicode="&#x2c9;" horiz-adv-x="645" 
d="M711 1229l-23 -103h-616l22 103h617z" />
    <glyph glyph-name="breve" unicode="&#x2d8;" horiz-adv-x="645" 
d="M725 1368q-20 -83 -62 -158t-112.5 -122.5t-167.5 -47.5q-105 0 -166 43.5t-85 115t-26 169.5h62q1 -63 29 -111t77 -73t117 -25q188 0 277 209h57z" />
    <glyph glyph-name="dotaccent" unicode="&#x2d9;" horiz-adv-x="645" 
d="M496 1176q0 -45 -29 -74t-74 -29q-44 0 -73 29t-29 74q0 44 29 73t73 29q20 0 40.5 -8t33.5 -21t21 -32.5t8 -40.5z" />
    <glyph glyph-name="ring" unicode="&#x2da;" horiz-adv-x="645" 
d="M604 1245q0 -55 -27 -102t-74.5 -75t-103.5 -28t-103.5 28t-74 75.5t-26.5 101.5q0 84 59.5 144.5t144.5 60.5q56 0 103 -27.5t74.5 -74.5t27.5 -103zM535 1245q0 57 -40 96t-96 39t-95.5 -39.5t-39.5 -95.5t39.5 -95.5t95.5 -39.5t96 39t40 96z" />
    <glyph glyph-name="cedilla" unicode="&#xb8;" horiz-adv-x="645" 
d="M297 -276q0 -53 -34 -91t-91 -56.5t-125 -18.5q-100 0 -182 43l33 57q80 -31 135 -31q51 0 81.5 25t30.5 65q0 36 -26.5 60t-61.5 24q-36 0 -71 -14l-19 16l123 197h78l-90 -135q27 6 55 6q74 0 119 -37.5t45 -109.5z" />
    <glyph glyph-name="hungarumlaut" unicode="&#x2dd;" horiz-adv-x="645" 
d="M844 1325q0 -40 -58 -78l-335 -207h-70l305 297l24.5 24t20 17t21.5 13t26 6q26 0 46 -19.5t20 -52.5zM508 1329q0 -39 -55 -82l-293 -207h-58l252 291q8 9 23 27.5t30.5 28.5t36.5 10q24 0 44 -18t20 -50z" />
    <glyph glyph-name="ogonek" unicode="&#x2db;" horiz-adv-x="645" 
d="M453 18q-139 -43 -248 -113t-109 -171q0 -32 26 -55t66 -23q53 0 99 20.5t131 67.5l28 -57q-55 -35 -101 -60.5t-100.5 -43t-113.5 -17.5q-86 0 -136 41t-50 106q0 121 133 202.5t375 121.5v-19z" />
    <glyph glyph-name="caron" unicode="&#x2c7;" horiz-adv-x="645" 
d="M733 1389l-323 -349h-101l-182 349h74l170 -213l282 213h80z" />
    <glyph glyph-name="Lslash" unicode="&#x141;" horiz-adv-x="1214" 
d="M1133 518q0 -13 -9.5 -38.5t-37.5 -90.5l-58 -135l-110 -258q-58 0 -104.5 0.5t-106.5 1.5t-144.5 1.5t-214.5 0.5q-105 0 -168 -0.5t-107 -1.5t-84 -1.5t-104 -0.5q-35 0 -35 24q0 26 69 36t113.5 28.5t59.5 85.5q89 395 96 424l-237 -76l37 96l221 70l60.5 272
l35.5 158t19.5 92.5t3.5 26.5q0 60 -27.5 76t-76 24t-48.5 31q0 29 43 29q34 0 103 -2t102 -2q44 0 132 2t132 2q41 0 41 -29q0 -16 -24.5 -20l-65.5 -11t-71.5 -35t-45.5 -90l-59 -267t-41 -189l459 145l-33 -94l-447 -141l-57 -260.5t-27.5 -136t-14 -80t-5.5 -42.5
q0 -42 30 -70t93 -28q90 0 210.5 46t192.5 104q70 56 120 116t81 109.5l54 86t32 36.5q23 0 23 -25z" />
    <glyph glyph-name="lslash" unicode="&#x142;" horiz-adv-x="606" 
d="M616 989l-22 -78l-229 -108l-70 -298l-54 -232.5t-19.5 -89.5t-4.5 -31q0 -66 64 -66q88 0 145 158q13 36 19.5 55.5t10 26t11.5 6.5q16 0 16 -19q0 -27 -29.5 -108.5t-96 -151t-167.5 -69.5q-77 0 -117 46t-40 122q0 19 11.5 80.5t34 158.5l34 143.5l43.5 170.5
l-232 -109l23 78l227 106l39 161l37.5 159.5t24.5 115.5t10 74q0 46 -25 62t-65.5 28t-40.5 25q0 14 18.5 20.5t69.5 14.5t122.5 20.5t161.5 34.5l-64 -278l-38.5 -164.5l-18.5 -77.5t-22 -96z" />
    <glyph glyph-name="Scaron" unicode="&#x160;" horiz-adv-x="1214" 
d="M1141 1364q0 -7 -37 -256q-9 -60 -20.5 -146t-16 -99t-18.5 -13q-16 0 -19.5 12t-5.5 45q-10 131 -48 236t-115 167t-195 62q-125 0 -201 -78t-76 -188q0 -107 72 -162.5t236.5 -135.5t247.5 -160.5t83 -221.5q0 -130 -74.5 -235.5t-199.5 -164.5t-267 -59
q-97 0 -153.5 17t-131.5 49.5t-116 32.5q-35 0 -50.5 -14t-28.5 -37t-25 -23q-23 0 -23 16q0 7 3 20.5t9 36t17 67.5t35 155q25 111 37.5 182l20 111t12.5 49.5t18 9.5q12 0 17 -7t6 -29t1 -83q0 -504 348 -504q107 0 189 40t127 118.5t45 192.5q0 101 -76.5 159
t-236.5 135.5t-243 154t-83 206.5q0 79 34.5 150.5t98.5 129t151 88.5t187 31q82 0 144 -19t127 -48t85 -29q19 0 30.5 8.5t19.5 21t17.5 23.5t18.5 11q23 0 23 -25zM1089 1805l-323 -349h-101l-182 349h74l170 -213l282 213h80z" />
    <glyph glyph-name="scaron" unicode="&#x161;" horiz-adv-x="948" 
d="M823 750q0 -47 -21 -73t-65 -26q-61 0 -84.5 34.5t-36.5 105.5q-7 41 -19.5 66.5t-44 38.5t-89.5 13q-85 0 -140 -47t-55 -112q0 -72 54.5 -105t188.5 -84.5t201.5 -108t67.5 -161.5q0 -126 -107 -216.5t-321 -90.5q-165 0 -260.5 65.5t-95.5 167.5q0 60 25 93.5t71 33.5
q51 0 71 -39t27 -112q7 -62 21.5 -97.5t51 -55.5t106.5 -20q115 0 185.5 54.5t70.5 140.5q0 67 -62 103t-189.5 83t-194 99.5t-66.5 146.5q0 90 51 158t133.5 104.5t173.5 36.5q88 0 155 -17.5t111 -46.5t65 -63t21 -69zM885 1389l-323 -349h-101l-182 349h74l170 -213
l282 213h80z" />
    <glyph glyph-name="Zcaron" unicode="&#x17d;" horiz-adv-x="1290" 
d="M1292 1376q0 -4 -5 -11t-13.5 -15.5t-24.5 -26.5l-1085 -1278h168q324 0 540 225q55 56 84 103t60 106.5t43 59.5q22 0 22 -25q0 -18 -69 -178l-140 -340q-75 0 -222 2t-285 2q-141 0 -150 -0.5t-119.5 -2t-163.5 -1.5q-38 0 -38 8q0 4 11.5 15.5t22.5 25.5l1096 1298
h-109q-199 0 -332.5 -55.5t-205 -125.5t-123.5 -145t-68 -75q-20 0 -20 21q0 8 11.5 35t64 139l118.5 256q108 0 175.5 -0.5t117 -1.5t97.5 -1.5t129 -0.5q161 0 279 2t114 2q20 0 20 -17zM1128 1805l-323 -349h-101l-182 349h74l170 -213l282 213h80z" />
    <glyph glyph-name="zcaron" unicode="&#x17e;" horiz-adv-x="1024" 
d="M954 903q0 -20 -13.5 -35t-45.5 -43l-651 -571l4 -4q32 4 51 4q67 0 110 -25.5t88 -76.5t71 -71t71 -20q52 0 82.5 25t30.5 59q0 28 -14.5 46.5t-40 39.5t-39 40t-13.5 48q0 40 27 68.5t80 28.5q61 0 94 -40.5t33 -111.5q0 -57 -36 -122.5t-118.5 -111.5t-208.5 -46
q-86 0 -139 29t-116.5 79.5t-94.5 50.5q-42 0 -70.5 -39.5l-57.5 -79.5t-71 -40q-25 0 -39 15t-14 38q0 40 36 63.5t105 55.5q20 7 37 20l580 529l-4 4q-17 -4 -66 -4q-84 0 -147 55q-18 16 -44 45t-47.5 42t-54.5 13q-53 0 -81.5 -29t-28.5 -71q0 -44 29 -67.5l58 -47
t29 -65.5t-30.5 -69.5t-83.5 -27.5q-55 0 -92 38.5t-37 113.5q0 70 33 127.5t85 98.5t110 63t110 22q91 0 182 -65q92 -66 147 -66q42 0 66 18t43 48q25 40 34.5 52.5t28.5 12.5q16 0 29.5 -12.5t13.5 -30.5zM923 1389l-323 -349h-101l-182 349h74l170 -213l282 213h80z" />
    <glyph glyph-name="brokenbar" unicode="&#xa6;" horiz-adv-x="455" 
d="M250 932h-127v563h127v-563zM250 0h-127v563h127v-563z" />
    <glyph glyph-name="Eth" unicode="&#xd0;" horiz-adv-x="1442" 
d="M1331 819q0 -225 -108.5 -415t-300 -299t-430.5 -109q-63 0 -101 1t-74 1.5l-74 1t-79 0.5q-38 0 -130 -2t-128 -2q-27 0 -27 16q0 20 32.5 30.5t70 21t69.5 35.5t43 77l85.5 369.5l35.5 159.5h-180l14 49h176q59 253 78 351.5t19 147.5q0 50 -20.5 58.5t-75 16.5
t-54.5 36q0 29 37 29q45 0 131 -2t119 -2q52 0 131 2t123 2q204 0 342 -67.5t207 -197t69 -309.5zM1114 903q0 235 -110 337.5t-349 102.5h-104l-59.5 -278l-48 -216.5t-21.5 -94.5h379l-15 -49h-374l-77.5 -348t-24.5 -115t-9 -70q0 -127 197 -127q161 0 279 78.5
t192.5 207t109.5 276t35 296.5z" />
    <glyph glyph-name="eth" unicode="&#xf0;" horiz-adv-x="1063" 
d="M1106 1446l-320 -160q47 -74 84 -169.5t57.5 -211t20.5 -246.5q0 -212 -71.5 -364.5t-198 -231.5t-285.5 -79q-116 0 -207 50.5t-140.5 146t-49.5 220.5q0 148 67 273t188.5 198.5t274.5 73.5q136 0 228 -61q-18 209 -76 348l-309 -156l-29 51l313 158q-40 78 -77 120
t-75 74t-38 40q0 20 22 20q29 0 73.5 -23t94.5 -68.5t99 -111.5l325 166zM739 639q0 91 -24 151t-70.5 89.5t-114.5 29.5q-113 0 -193 -97t-118.5 -241t-38.5 -280q0 -271 209 -271q114 0 193 96t118 242t39 281z" />
    <glyph glyph-name="Yacute" unicode="&#xdd;" horiz-adv-x="1214" 
d="M1370 1364q0 -14 -16 -20l-54.5 -20.5t-91 -51t-123.5 -111.5l-108 -118.5l-120 -136l-95 -110.5l-125 -143l-84 -372q-25 -116 -25 -129q0 -63 31 -80t79 -23t48 -24q0 -17 -7 -23t-30 -6q-44 0 -119 2t-110 2q-42 0 -135 -2t-146 -2q-24 0 -24 24q0 19 33 26l72 15
t71.5 35t44.5 86l104 469l-217 604q-11 33 -34.5 49.5t-50 23t-45.5 13.5t-19 23t10 22.5t41 6.5q41 0 123 -2t123 -2q35 0 107 2t108 2q35 0 35 -29q0 -15 -51.5 -22t-85 -24t-33.5 -69q0 -23 13 -69.5t60.5 -182l96.5 -276.5q143 154 230 260.5t117.5 164t30.5 101.5
q0 51 -19.5 65.5t-54 24t-34.5 27.5q0 29 37 29q42 0 122 -2t121 -2q29 0 84 2t82 2q33 0 33 -29zM1053 1741q0 -41 -57 -78l-336 -207h-70l306 297q31 31 49.5 45.5t42.5 14.5q26 0 45.5 -18.5t19.5 -53.5z" />
    <glyph glyph-name="yacute" unicode="&#xfd;" horiz-adv-x="1024" 
d="M940 760q0 -267 -410 -758q-333 -399 -561 -399q-88 0 -139 38.5t-51 94.5q0 44 30 71t76 27q45 0 69.5 -17t50.5 -52.5t41 -49.5t46 -14q50 0 128.5 55.5t138 126t59.5 107.5q0 17 -6.5 41.5t-25 80.5l-42 125.5l-88.5 264.5l-53.5 167.5t-25.5 71.5t-24.5 39t-35.5 11
q-33 0 -56.5 -35.5t-54.5 -126.5q-13 -40 -18.5 -52t-14.5 -12q-14 0 -14 19q0 34 29.5 123.5t84.5 164t128 74.5q45 0 77 -32.5t54 -96.5l241 -692q125 156 182.5 259t57.5 206q0 48 -15 81t-44.5 69.5t-41.5 57.5t-12 54q0 44 28 69t73 25q34 0 66 -18.5t52.5 -60
t20.5 -107.5zM887 1325q0 -41 -57 -78l-336 -207h-70l306 297q31 31 49.5 45.5t42.5 14.5q26 0 45.5 -18.5t19.5 -53.5z" />
    <glyph glyph-name="Thorn" unicode="&#xde;" horiz-adv-x="1214" 
d="M1130 780q0 -122 -81 -224t-227.5 -161t-329.5 -59h-160l-15 -72t-14.5 -76t-3.5 -45q0 -39 23.5 -59t54 -25.5t59.5 -11.5t29 -22q0 -17 -11 -23t-44 -6q-15 0 -84 2t-136 2q-97 0 -175 -2t-81 -2q-24 0 -32 6t-8 23t27 21t67 11t69.5 31.5t40.5 77.5l143 656.5
l56 258.5t22 110t9 62q0 51 -26 64.5t-72 21.5t-46 25q0 29 33 29q49 0 128 -2t99 -2q60 0 97.5 1l74.5 2t97 1q20 0 20 -29q0 -20 -57 -26.5t-95.5 -24t-54.5 -86.5l-26 -121q126 4 186 4q218 0 331 -89t113 -241zM913 834q0 65 -22 117.5t-71.5 81t-125.5 28.5h-205
l-147 -676h154q134 0 228 55.5t141.5 157t47.5 236.5z" />
    <glyph glyph-name="thorn" unicode="&#xfe;" horiz-adv-x="1214" 
d="M1075 563q0 -120 -46 -227t-123.5 -185.5t-176 -122.5t-197.5 -44q-57 0 -105 15.5t-78 35.5t-60 45l-109 -477q-37 16 -94 16q-43 0 -84 -16l194 877.5l112.5 501.5t50 229.5t10.5 78.5q0 46 -25 62t-65.5 28t-40.5 25q0 14 18.5 20.5t69.5 14.5t122.5 20.5t161.5 34.5
l-180 -778h4q62 108 134.5 168.5t183.5 60.5q65 0 125.5 -28t103.5 -77t68.5 -121.5t25.5 -156.5zM891 651q0 117 -49 173.5t-131 56.5q-81 0 -150 -63t-120.5 -169.5t-78 -216.5t-26.5 -207q0 -78 47 -135t143 -57q90 0 161 70t115.5 171.5t66.5 205t22 171.5z" />
    <glyph glyph-name="minus" unicode="&#x2212;" horiz-adv-x="1229" 
d="M1020 401h-930v127h930v-127z" />
    <glyph glyph-name="multiply" unicode="&#xd7;" horiz-adv-x="1229" 
d="M1020 90l-92 -90l-377 375l-375 -375l-90 90l373 375l-373 375l90 90l375 -375l377 375l92 -90l-375 -375z" />
    <glyph glyph-name="onesuperior" unicode="&#xb9;" horiz-adv-x="682" 
d="M551 1384q0 -13 -25.5 -127l-60.5 -264l-55.5 -239.5t-20.5 -102.5q0 -26 26 -35.5t91 -9.5q43 0 43 -28q0 -21 -27 -21q-41 0 -127 2t-129 2q-38 0 -115 -2t-116 -2q-18 0 -23.5 3.5t-5.5 14.5q0 17 17 24t65 7q81 0 106 18t35 66q54 230 95 387.5t41 169.5q0 13 -10 16
t-42 3q-99 0 -128 4.5t-29 21.5q0 18 15 23t76 13.5t107 19.5q70 15 118.5 36t53.5 21q25 0 25 -21z" />
    <glyph glyph-name="twosuperior" unicode="&#xb2;" horiz-adv-x="682" 
d="M692 1198q0 -111 -56.5 -170.5t-198 -122t-208 -97t-129.5 -120.5h346q57 0 82 15.5t41.5 40t30.5 24.5q21 0 21 -23q0 -10 -6.5 -23.5t-33.5 -63l-51 -97.5h-550q19 116 93 185t208.5 143.5t197 129.5t62.5 146q0 70 -46 108t-110 38q-73 0 -123.5 -30.5t-86.5 -71
t-44 -40.5q-18 0 -18 17q0 20 42.5 75t117 99.5t171.5 44.5q70 0 126 -27t89 -74t33 -106z" />
    <glyph glyph-name="threesuperior" unicode="&#xb3;" horiz-adv-x="682" 
d="M680 1229q0 -62 -25 -99t-75 -77q79 -68 79 -185q0 -86 -58 -159.5t-153.5 -116.5t-197.5 -43q-105 0 -185.5 51t-80.5 121q0 36 20 59t51 23q44 0 62 -29t25.5 -77.5t13.5 -55.5q34 -43 112 -43q104 0 172 57t68 179q0 115 -98 145q-15 4 -41.5 8.5t-34.5 8.5t-8 16
q0 15 40 21.5t58 13.5q47 16 75.5 56t28.5 95q0 54 -36.5 83.5t-102.5 29.5q-34 0 -63.5 -9t-51.5 -21t-38.5 -24t-26.5 -20q-5 -4 -8 -4q-21 0 -21 20q0 11 36 50t100 70.5t145 31.5q90 0 154.5 -47.5t64.5 -128.5z" />
    <glyph glyph-name="onehalf" unicode="&#xbd;" horiz-adv-x="1708" 
d="M1622 637q0 -111 -56.5 -170.5t-198 -122t-208 -97t-129.5 -120.5h346q58 0 81.5 15.5t41 40t31.5 24.5q20 0 20 -23q0 -8 -4.5 -19.5t-24.5 -49.5l-61 -115h-551q19 116 93 185t208.5 143.5t197 129.5t62.5 146q0 69 -45.5 107.5t-109.5 38.5q-73 0 -123.5 -30.5
t-86.5 -71t-44 -40.5q-19 0 -19 17q0 20 42 74.5t117.5 99.5t172.5 45q69 0 125.5 -27t89.5 -74t33 -106zM1341 1405l-868 -1421h-158l869 1421h157zM512 1384q0 -13 -25.5 -127l-60.5 -264l-55.5 -239.5t-20.5 -102.5q0 -26 26 -35.5t91 -9.5q43 0 43 -28q0 -21 -27 -21
q-41 0 -127 2t-129 2q-39 0 -115 -2t-116 -2q-18 0 -23.5 3.5t-5.5 14.5q0 17 17 24t65 7q81 0 106 18t35 66q54 230 95 387.5t41 169.5q0 13 -10 16t-42 3q-99 0 -128 4.5t-29 21.5q0 18 15 23t76 13.5t107 19.5q70 15 118.5 36t53.5 21q25 0 25 -21z" />
    <glyph glyph-name="onequarter" unicode="&#xbc;" horiz-adv-x="1708" 
d="M1589 315l-22 -82h-121q-27 -97 -27 -127q0 -34 16.5 -42.5t51.5 -17t35 -23.5q0 -16 -6 -21.5t-21 -5.5q-27 0 -84 2t-88 2q-30 0 -86 -2t-78 -2q-19 0 -27 5.5t-8 21.5q0 17 43 24t66 17t35 47q9 27 17.5 70.5t10.5 51.5h-344l-14 56l567 555h80l-117 -529h121z
M1366 1405l-868 -1421h-158l868 1421h158zM537 1384q0 -13 -25.5 -127l-60.5 -264l-55.5 -239.5t-20.5 -102.5q0 -26 25.5 -35.5t91.5 -9.5q43 0 43 -28q0 -21 -27 -21q-41 0 -127 2t-129 2q-38 0 -115 -2t-117 -2q-17 0 -22.5 3.5t-5.5 14.5q0 17 17 24t65 7q79 0 105 18.5
t36 65.5q53 228 94 386.5t41 170.5q0 13 -10 16t-41 3q-98 0 -128 4.5t-30 21.5q0 18 15 23t75.5 13t108.5 20q70 15 117.5 36t54.5 21q25 0 25 -21zM1391 647l-5 4l-344 -336h271z" />
    <glyph glyph-name="threequarters" unicode="&#xbe;" horiz-adv-x="1708" 
d="M1604 315l-23 -82h-121q-26 -94 -26 -127q0 -34 15.5 -42t51 -17t35.5 -24q0 -16 -6 -21.5t-21 -5.5q-26 0 -84 2t-88 2q-29 0 -85 -2t-78 -2q-19 0 -27 6t-8 21q0 17 42.5 24.5t65.5 17t35 46.5q9 27 16 63.5t13 58.5h-344l-15 56l568 555h79l-116 -529h121zM1397 1405
l-869 -1421h-157l868 1421h158zM688 1229q0 -62 -25 -99t-75 -77q80 -68 80 -185q0 -86 -57.5 -159t-154 -116.5t-198.5 -43.5q-105 0 -185.5 51t-80.5 121q0 36 20 59t51 23q44 0 62 -29t25.5 -77.5t13.5 -55.5q34 -43 112 -43q104 0 172 57t68 179q0 115 -98 145
q-13 4 -40.5 8.5t-35.5 8.5t-8 16q0 15 40 21.5t58 13.5q46 15 75.5 55.5t29.5 95.5q0 35 -16.5 60.5t-49 39t-74.5 13.5q-82 0 -177 -72q-9 -6 -11 -6q-8 0 -14.5 5.5t-6.5 14.5q0 12 35.5 50.5t99.5 70t146 31.5q55 0 106 -20.5t82 -61t31 -94.5zM1405 647l-4 4l-344 -336
h270z" />
    <glyph glyph-name="uni00AD" unicode="&#xad;" horiz-adv-x="682" 
d="M524 543l-28 -156h-488l29 156h487z" />
    <glyph glyph-name="uni00AF" unicode="&#xaf;" horiz-adv-x="1024" 
d="M1323 1543h-1024v102h1024v-102z" />
    <glyph glyph-name="uni00B7" unicode="&#xb7;" horiz-adv-x="569" 
d="M336 465q0 -48 -33.5 -81.5t-81.5 -33.5q-46 0 -80.5 33.5t-34.5 81.5q0 47 34 81t81 34q31 0 58 -16t42 -42.5t15 -56.5z" />
    <glyph glyph-name="uni2044" unicode="&#x2044;" horiz-adv-x="342" 
d="M684 1405l-868 -1421h-158l868 1421h158z" />
    <glyph glyph-name="currency" unicode="&#xa4;" 
d="M1053 268l-86 -86l-115 115q-65 -56 -144 -83.5t-167 -27.5q-183 0 -312 111l-114 -115l-86 86l112 111q-54 63 -81 144t-27 171q0 91 27 172t81 144l-112 110l86 86l114 -114q130 110 312 110q181 0 311 -110l115 114l86 -86l-113 -110q55 -62 82 -143.5t27 -172.5
q0 -90 -27 -171.5t-82 -143.5zM922 694q0 105 -50.5 194t-139 142t-191.5 53t-191.5 -53t-139 -142t-50.5 -194t50.5 -194t139 -142t191.5 -53t191.5 53t139 142t50.5 194z" />
    </font>
</defs>
</svg>
